{"glyphs":{"0":{"ha":1164,"x_min":58,"x_max":1106,"o":"m 582 -12 q 375 28 471 -12 q 209 141 279 69 q 99 308 139 213 q 58 515 58 404 q 99 719 58 626 q 209 880 139 813 q 375 985 279 947 q 582 1022 471 1022 q 788 985 692 1022 q 954 880 883 947 q 1065 719 1025 813 q 1106 515 1106 626 q 1065 308 1106 404 q 954 141 1025 213 q 788 28 883 69 q 582 -12 692 -12 m 928 507 q 905 642 928 579 q 838 749 882 704 q 728 819 793 793 q 582 844 664 844 q 434 819 499 844 q 325 749 369 793 q 258 642 281 704 q 235 507 235 579 q 258 371 235 433 q 325 263 281 308 q 433 190 369 217 q 581 164 497 164 q 728 190 664 164 q 838 263 793 217 q 905 371 882 308 q 928 507 928 433 z "},"1":{"ha":535,"x_min":33,"x_max":447,"o":"m 272 0 l 272 679 q 236 794 272 754 q 131 833 200 833 l 33 833 l 33 1010 l 131 1010 q 365 923 283 1010 q 447 679 447 836 l 447 0 l 272 0 z "},"2":{"ha":1146,"x_min":88,"x_max":1074,"o":"m 88 0 l 88 296 q 167 515 88 443 q 399 588 246 588 l 764 588 q 857 619 822 588 q 892 710 892 651 q 858 801 892 768 q 764 833 824 833 l 96 833 l 96 1010 l 764 1010 q 897 988 839 1010 q 994 929 954 967 q 1053 840 1033 892 q 1074 726 1074 788 q 1052 611 1074 664 q 991 520 1031 558 q 894 460 951 482 q 765 439 838 439 l 399 439 q 254 308 254 439 l 254 176 l 1057 176 l 1057 0 l 88 0 z "},"3":{"ha":1149,"x_min":64,"x_max":1081,"o":"m 64 0 l 64 176 l 713 176 q 849 210 796 176 q 901 310 901 243 q 863 406 901 372 q 749 439 824 439 l 303 439 l 303 588 l 736 588 q 847 615 811 588 q 883 710 883 643 q 836 808 883 781 q 701 835 789 835 l 68 835 l 68 1010 l 736 1010 q 869 993 810 1010 q 972 944 929 976 q 1038 862 1015 911 q 1061 749 1061 813 q 1020 602 1061 653 q 922 533 979 551 q 1036 453 992 511 q 1081 306 1081 394 q 1058 180 1081 236 q 992 84 1035 124 q 890 22 950 44 q 756 0 829 0 l 64 0 z "},"4":{"ha":1174,"x_min":67,"x_max":1139,"o":"m 817 0 l 817 269 l 399 269 q 153 347 239 269 q 67 593 67 425 l 67 1010 l 243 1010 l 243 594 q 281 473 243 507 q 399 439 319 439 l 817 439 l 817 1010 l 993 1010 l 993 439 l 1139 439 l 1139 269 l 993 269 l 993 0 l 817 0 z "},"5":{"ha":1229,"x_min":88,"x_max":1157,"o":"m 88 0 l 88 176 l 844 176 q 953 213 915 176 q 990 308 990 249 q 953 406 990 374 q 844 439 915 439 l 88 439 l 88 1010 l 1108 1010 l 1108 833 l 269 833 l 269 588 l 844 588 q 1077 515 997 588 q 1157 296 1157 443 q 1138 178 1157 232 q 1079 84 1118 124 q 982 22 1040 44 q 844 0 924 0 l 88 0 z "},"6":{"ha":1211,"x_min":58,"x_max":1138,"o":"m 517 0 q 325 32 410 0 q 181 128 240 64 q 90 289 121 192 q 58 515 58 386 q 90 738 58 644 q 181 891 121 831 q 325 981 240 951 q 517 1010 410 1010 l 1096 1010 l 1096 833 l 517 833 q 326 776 396 833 q 239 589 256 718 l 831 589 q 1056 521 975 589 q 1138 307 1138 453 q 1056 80 1138 160 q 831 0 974 0 l 517 0 m 238 439 q 322 239 251 301 q 517 176 393 176 l 814 176 q 928 212 889 176 q 968 314 968 247 q 814 439 968 439 l 238 439 z "},"7":{"ha":1050,"x_min":61,"x_max":1021,"o":"m 69 0 l 760 833 l 61 833 l 61 1010 l 910 1010 q 995 985 969 1010 q 1021 926 1021 961 q 1015 888 1021 907 q 988 843 1008 868 l 299 0 l 69 0 z "},"8":{"ha":1247,"x_min":71,"x_max":1176,"o":"m 396 0 q 262 22 322 0 q 159 83 201 43 q 94 180 117 124 q 71 306 71 236 q 115 453 71 394 q 229 533 160 511 q 131 602 172 551 q 90 749 90 653 q 113 862 90 813 q 179 944 136 911 q 282 993 222 976 q 415 1010 342 1010 l 832 1010 q 966 993 906 1010 q 1069 944 1026 976 q 1135 862 1111 911 q 1158 749 1158 813 q 1147 664 1158 700 q 1117 602 1136 628 q 1072 559 1097 576 q 1018 533 1046 542 q 1132 453 1088 511 q 1176 306 1176 394 q 1153 180 1176 236 q 1088 83 1131 124 q 985 22 1046 43 q 851 0 925 0 l 396 0 m 403 439 q 288 405 328 439 q 249 308 249 371 q 302 209 249 242 q 439 176 356 176 l 808 176 q 945 209 892 176 q 999 308 999 242 q 959 405 999 371 q 844 439 919 439 l 403 439 m 449 835 q 315 808 361 835 q 268 710 268 781 q 304 615 268 643 q 415 588 340 588 l 832 588 q 943 615 907 588 q 979 710 979 643 q 933 808 979 781 q 799 835 886 835 l 449 835 z "},"9":{"ha":1196,"x_min":58,"x_max":1138,"o":"m 172 0 l 172 176 l 679 176 q 863 228 793 176 q 953 397 932 279 l 350 397 q 135 467 213 397 q 58 694 58 538 q 78 819 58 761 q 137 919 99 876 q 229 985 175 961 q 350 1010 283 1010 l 679 1010 q 870 978 785 1010 q 1015 882 956 946 q 1106 721 1074 818 q 1138 494 1138 624 q 1106 272 1138 365 q 1015 117 1074 178 q 870 28 956 57 q 679 0 785 0 l 172 0 m 238 685 q 275 578 238 613 q 379 544 313 544 l 960 544 q 879 763 950 694 q 679 832 808 832 l 379 832 q 275 794 313 832 q 238 685 238 756 z "},"\u0017":{"ha":408,"x_min":0,"x_max":0,"o":""}," ":{"ha":408,"x_min":0,"x_max":0,"o":""},"!":{"ha":414,"x_min":115,"x_max":304,"o":"m 124 325 l 124 1011 l 290 1011 l 290 325 l 124 325 m 210 -12 q 142 14 169 -12 q 115 83 115 40 q 142 150 115 124 q 210 176 169 176 q 278 150 251 176 q 304 83 304 124 q 278 14 304 40 q 210 -12 251 -12 z "},"\"":{"ha":628,"x_min":94,"x_max":533,"o":"m 388 647 l 354 1010 l 533 1010 l 501 647 l 388 647 m 126 647 l 94 1010 l 274 1010 l 242 647 l 126 647 z "},"#":{"ha":968,"x_min":61,"x_max":914,"o":"m 436 0 l 518 274 l 311 274 l 229 0 l 106 0 l 186 274 l 61 274 l 61 392 l 222 392 l 294 635 l 168 635 l 168 751 l 331 751 l 408 1010 l 535 1010 l 457 751 l 663 751 l 740 1010 l 865 1010 l 788 751 l 914 751 l 914 635 l 751 635 l 679 392 l 806 392 l 806 274 l 643 274 l 561 0 l 436 0 m 626 635 l 419 635 l 347 392 l 554 392 l 626 635 z "},"$":{"ha":1033,"x_min":79,"x_max":951,"o":"m 563 99 l 563 0 l 485 0 l 485 99 l 90 99 l 90 243 l 485 243 l 485 454 l 326 454 q 224 472 269 454 q 146 519 178 489 q 97 592 114 550 q 79 685 79 635 q 95 775 79 733 q 143 847 111 817 q 221 894 175 876 q 328 911 267 911 l 485 911 l 485 1010 l 563 1010 l 563 911 l 913 911 l 913 769 l 563 769 l 563 571 l 700 571 q 887 514 822 571 q 951 336 951 457 q 936 242 951 285 q 890 167 921 199 q 811 117 858 135 q 700 99 764 99 l 563 99 m 700 243 q 788 271 758 243 q 817 347 817 299 q 787 428 817 401 q 700 454 757 454 l 563 454 l 563 243 l 700 243 m 485 769 l 328 769 q 253 742 279 769 q 226 671 226 715 q 254 597 226 624 q 328 571 282 571 l 485 571 l 485 769 z "},"%":{"ha":1340,"x_min":58,"x_max":1282,"o":"m 58 0 m 319 514 q 216 535 264 514 q 133 591 168 556 q 78 675 99 626 q 58 778 58 724 q 78 880 58 833 q 133 960 99 926 q 216 1013 168 994 q 319 1032 264 1032 q 423 1013 375 1032 q 506 960 471 994 q 562 880 542 926 q 582 778 582 833 q 562 675 582 724 q 506 591 542 626 q 423 535 471 556 q 319 514 375 514 m 493 774 q 448 895 493 847 q 319 943 403 943 q 191 895 236 943 q 146 774 146 847 q 191 651 146 700 q 319 603 236 603 q 448 651 403 603 q 493 774 493 700 m 135 -93 l 1047 1071 l 1165 1071 l 256 -93 l 135 -93 m 1019 -21 q 916 0 964 -21 q 833 56 868 21 q 778 140 799 92 q 758 243 758 189 q 778 345 758 299 q 833 426 799 392 q 916 478 868 460 q 1019 497 964 497 q 1123 478 1075 497 q 1206 426 1171 460 q 1262 345 1242 392 q 1282 243 1282 299 q 1262 140 1282 189 q 1206 56 1242 92 q 1123 0 1171 21 q 1019 -21 1075 -21 m 1193 239 q 1148 360 1193 313 q 1019 408 1103 408 q 891 360 936 408 q 846 239 846 313 q 891 117 846 165 q 1019 68 936 68 q 1148 117 1103 68 q 1193 239 1193 165 z "},"&":{"ha":1054,"x_min":68,"x_max":1014,"o":"m 393 0 q 258 22 318 0 q 156 83 197 43 q 91 181 114 124 q 68 307 68 238 q 113 453 68 394 q 226 533 158 511 q 128 602 169 551 q 88 749 88 653 q 110 862 88 813 q 176 944 133 911 q 280 993 219 976 q 414 1010 340 1010 l 606 1010 l 606 835 l 408 835 q 265 710 265 835 q 301 619 265 651 q 413 588 338 588 l 951 588 l 951 440 l 832 440 l 832 176 l 1014 176 l 1014 0 l 393 0 m 656 440 l 425 440 q 292 413 339 440 q 246 311 246 385 q 292 211 246 246 q 422 176 338 176 l 656 176 l 656 440 z "},"'":{"ha":354,"x_min":88,"x_max":267,"o":"m 121 647 l 88 1010 l 267 1010 l 233 647 l 121 647 z "},"(":{"ha":494,"x_min":131,"x_max":407,"o":"m 282 -124 q 166 206 201 51 q 131 515 131 361 q 167 822 131 669 q 278 1147 203 974 l 406 1147 q 283 808 324 961 q 243 514 243 654 q 281 217 243 372 q 407 -124 318 63 l 282 -124 z "},")":{"ha":493,"x_min":88,"x_max":364,"o":"m 88 -124 q 213 217 175 63 q 250 514 250 372 q 211 808 250 656 q 90 1147 172 960 l 215 1147 q 327 822 290 974 q 364 515 364 669 q 328 206 364 361 q 213 -124 293 51 l 88 -124 z "},"*":{"ha":651,"x_min":88,"x_max":564,"o":"m 433 554 l 325 706 l 218 554 l 153 604 l 258 754 l 88 807 l 113 885 l 283 832 l 283 1010 l 367 1010 l 367 832 l 539 885 l 564 807 l 392 754 l 499 603 l 433 554 z "},"+":{"ha":958,"x_min":88,"x_max":871,"o":"m 421 121 l 421 456 l 88 456 l 88 572 l 421 572 l 421 906 l 539 906 l 539 572 l 871 572 l 871 456 l 539 456 l 539 121 l 421 121 z "},",":{"ha":360,"x_min":94,"x_max":272,"o":"m 94 -164 l 94 197 l 272 197 l 203 -164 l 94 -164 z "},"-":{"ha":411,"x_min":40,"x_max":374,"o":"m 40 454 l 40 572 l 374 572 l 374 454 l 40 454 z "},".":{"ha":364,"x_min":88,"x_max":276,"o":"m 276 83 q 249 16 276 43 q 181 -11 221 -11 q 114 16 140 -11 q 88 83 88 43 q 114 151 88 124 q 181 178 140 178 q 249 151 221 178 q 276 83 276 124 z "},"/":{"ha":617,"x_min":13,"x_max":603,"o":"m 13 0 l 488 1010 l 603 1010 l 135 0 l 13 0 z "},":":{"ha":364,"x_min":88,"x_max":276,"o":"m 276 83 q 249 16 276 43 q 181 -11 221 -11 q 114 16 140 -11 q 88 83 88 43 q 114 151 88 124 q 181 178 140 178 q 249 151 221 178 q 276 83 276 124 m 276 539 q 249 472 276 499 q 181 446 221 446 q 114 472 140 446 q 88 539 88 499 q 114 607 88 579 q 181 635 140 635 q 249 607 221 635 q 276 539 276 579 z "},";":{"ha":364,"x_min":89,"x_max":276,"o":"m 182 446 q 115 473 142 446 q 89 540 89 500 q 115 608 89 582 q 182 635 142 635 q 250 608 224 635 q 276 540 276 582 q 250 473 276 500 q 182 446 224 446 m 94 -164 l 94 197 l 272 197 l 203 -164 l 94 -164 z "},"<":{"ha":958,"x_min":88,"x_max":871,"o":"m 135 449 q 100 474 113 458 q 88 514 88 490 q 100 551 88 533 q 135 579 113 569 l 871 888 l 871 761 l 238 514 l 871 264 l 871 139 l 135 449 z "},"=":{"ha":958,"x_min":88,"x_max":871,"o":"m 88 642 l 88 758 l 871 758 l 871 642 l 88 642 m 88 267 l 88 383 l 871 383 l 871 267 l 88 267 z "},">":{"ha":958,"x_min":88,"x_max":871,"o":"m 88 139 l 88 264 l 721 514 l 88 761 l 88 888 l 824 579 q 858 551 846 569 q 871 514 871 533 q 858 474 871 490 q 824 449 846 458 l 88 139 z "},"?":{"ha":1078,"x_min":61,"x_max":1036,"o":"m 388 439 q 322 381 322 439 l 322 325 l 156 325 l 156 385 q 213 533 156 478 q 388 588 269 588 l 728 588 q 821 619 786 588 q 856 710 856 651 q 822 801 856 768 q 728 833 788 833 l 61 833 l 61 1010 l 728 1010 q 860 988 803 1010 q 957 929 918 967 q 1016 840 996 892 q 1036 726 1036 788 q 1015 611 1036 664 q 955 520 994 558 q 858 460 915 482 q 731 439 801 439 l 388 439 m 242 -11 q 174 15 201 -11 q 147 85 147 42 q 174 151 147 125 q 242 178 201 178 q 310 151 283 178 q 336 85 336 125 q 310 15 336 42 q 242 -11 283 -11 z "},"@":{"ha":1157,"x_min":58,"x_max":1069,"o":"m 567 0 q 363 35 456 0 q 202 135 269 71 q 97 291 135 200 q 58 493 58 382 q 97 697 58 603 q 204 861 136 792 q 365 969 272 931 q 567 1008 458 1008 l 1069 1008 l 1069 271 l 544 271 q 463 289 500 271 q 401 338 426 307 q 360 412 375 369 q 346 503 346 454 q 360 592 346 550 q 400 665 374 633 q 463 713 426 696 q 544 731 499 731 l 817 731 l 817 382 l 938 382 l 938 879 l 567 879 q 410 851 479 879 q 291 774 340 824 q 216 656 242 725 q 190 504 190 588 q 216 352 190 421 q 290 233 242 283 q 409 156 339 183 q 567 128 479 128 l 1069 128 l 1069 0 l 567 0 m 701 631 l 576 631 q 494 597 524 631 q 464 506 464 564 q 495 417 464 453 q 576 382 526 382 l 701 382 l 701 631 z "},"A":{"ha":1374,"x_min":19,"x_max":1353,"o":"m 1140 0 l 989 254 l 511 254 l 594 397 l 904 397 l 679 775 l 221 0 l 19 0 l 600 967 q 636 1008 615 993 q 686 1024 657 1024 q 735 1008 715 1024 q 771 967 756 993 l 1353 0 l 1140 0 z "},"B":{"ha":1238,"x_min":86,"x_max":1171,"o":"m 86 0 l 86 1010 l 825 1010 q 959 993 899 1010 q 1063 944 1019 976 q 1129 862 1106 911 q 1153 749 1153 813 q 1142 664 1153 700 q 1111 602 1131 628 q 1066 559 1092 576 q 1013 533 1040 542 q 1126 453 1082 511 q 1171 306 1171 394 q 1148 180 1171 236 q 1083 83 1125 124 q 980 22 1040 43 q 846 0 919 0 l 86 0 m 390 439 l 390 588 l 826 588 q 938 615 901 588 q 974 710 974 643 q 958 774 974 750 q 915 812 943 799 q 847 829 886 825 q 758 833 807 833 l 263 833 l 263 175 l 774 175 q 861 182 821 175 q 931 205 901 189 q 976 246 960 221 q 992 308 992 271 q 953 405 992 371 q 839 439 914 439 l 390 439 z "},"C":{"ha":1151,"x_min":58,"x_max":1096,"o":"m 549 0 q 353 40 443 0 q 198 148 264 79 q 95 311 132 217 q 58 515 58 406 q 95 718 58 626 q 198 874 132 810 q 353 974 264 939 q 549 1010 443 1010 l 1096 1010 l 1096 833 l 549 833 q 423 809 481 833 q 324 742 365 785 q 258 639 282 699 q 235 507 235 579 q 258 375 235 436 q 324 270 282 314 q 423 201 365 226 q 549 176 481 176 l 1096 176 l 1096 0 l 549 0 z "},"D":{"ha":1221,"x_min":88,"x_max":1164,"o":"m 88 0 l 88 1010 l 672 1010 q 869 974 779 1010 q 1025 872 960 938 q 1127 716 1090 807 q 1164 515 1164 625 q 1127 311 1164 406 q 1025 148 1090 217 q 869 40 960 79 q 672 0 779 0 l 88 0 m 672 176 q 798 201 740 176 q 898 270 856 226 q 964 375 940 314 q 988 507 988 436 q 964 638 988 578 q 898 742 940 699 q 798 809 856 785 q 672 833 740 833 l 263 833 l 263 176 l 672 176 z "},"E":{"ha":1054,"x_min":88,"x_max":990,"o":"m 88 0 l 88 1010 l 989 1010 l 989 833 l 263 833 l 263 176 l 990 176 l 990 0 l 88 0 m 392 439 l 392 588 l 951 588 l 951 439 l 392 439 z "},"F":{"ha":979,"x_min":88,"x_max":944,"o":"m 88 0 l 88 1010 l 944 1010 l 944 833 l 263 833 l 263 0 l 88 0 m 392 418 l 392 572 l 903 572 l 903 418 l 392 418 z "},"G":{"ha":1233,"x_min":58,"x_max":1158,"o":"m 549 0 q 353 40 443 0 q 198 148 264 79 q 95 311 132 217 q 58 515 58 406 q 95 718 58 626 q 198 874 132 810 q 353 974 264 939 q 549 1010 443 1010 l 1096 1010 l 1096 833 l 549 833 q 423 809 481 833 q 324 742 365 785 q 258 639 282 699 q 235 507 235 579 q 258 375 235 436 q 324 270 282 314 q 423 201 365 226 q 549 176 481 176 l 981 176 l 981 439 l 525 439 l 525 588 l 1158 588 l 1158 0 l 549 0 z "},"H":{"ha":1164,"x_min":88,"x_max":1076,"o":"m 900 -4 l 900 435 l 392 435 l 392 592 l 900 592 l 900 1010 l 1076 1010 l 1076 -4 l 900 -4 m 88 -4 l 88 1010 l 264 1010 l 264 -4 l 88 -4 z "},"I":{"ha":371,"x_min":97,"x_max":274,"o":"m 97 0 l 97 1010 l 274 1010 l 274 0 l 97 0 z "},"J":{"ha":983,"x_min":33,"x_max":911,"o":"m 33 0 l 33 176 l 403 176 q 657 244 579 176 q 735 460 735 313 l 735 1010 l 911 1010 l 911 460 q 789 113 911 225 q 403 0 667 0 l 33 0 z "},"K":{"ha":1215,"x_min":88,"x_max":1189,"o":"m 919 0 l 354 444 q 324 480 331 463 q 318 518 318 497 q 326 560 318 542 q 363 599 335 578 l 897 1010 l 1168 1010 l 507 517 l 1189 0 l 919 0 m 88 0 l 88 1010 l 264 1010 l 264 0 l 88 0 z "},"L":{"ha":982,"x_min":88,"x_max":943,"o":"m 88 0 l 88 1010 l 264 1010 l 264 176 l 943 176 l 943 0 l 88 0 z "},"M":{"ha":1549,"x_min":33,"x_max":1519,"o":"m 1344 0 l 1151 710 l 865 53 q 828 3 850 21 q 775 -14 807 -14 q 685 53 713 -14 l 400 710 l 207 0 l 33 0 l 293 950 q 381 1022 311 1022 q 433 1007 408 1022 q 469 963 457 992 l 781 249 l 1092 963 q 1176 1022 1117 1022 q 1261 950 1240 1022 l 1519 0 l 1344 0 z "},"N":{"ha":1213,"x_min":83,"x_max":1129,"o":"m 251 739 l 251 0 l 83 0 l 83 917 q 108 994 83 965 q 174 1022 132 1022 q 211 1014 193 1022 q 249 986 229 1006 l 961 279 l 961 1018 l 1129 1018 l 1129 93 q 1105 15 1129 43 q 1042 -12 1081 -12 q 961 25 999 -12 l 251 739 z "},"O":{"ha":1344,"x_min":58,"x_max":1289,"o":"m 549 0 q 353 40 443 0 q 198 148 264 79 q 95 311 132 217 q 58 515 58 406 q 95 718 58 626 q 198 874 132 810 q 353 974 264 939 q 549 1010 443 1010 l 794 1010 q 995 974 904 1010 q 1151 872 1086 938 q 1253 716 1217 807 q 1289 515 1289 625 q 1252 311 1289 406 q 1149 148 1215 217 q 993 40 1083 79 q 794 0 903 0 l 549 0 m 794 176 q 922 201 864 176 q 1023 270 981 226 q 1089 375 1065 314 q 1113 507 1113 436 q 1089 638 1113 578 q 1023 742 1065 699 q 922 809 981 785 q 794 833 864 833 l 549 833 q 423 809 481 833 q 324 742 365 785 q 258 639 282 699 q 235 507 235 579 q 258 375 235 436 q 324 270 282 314 q 423 201 365 226 q 549 176 481 176 l 794 176 z "},"P":{"ha":1204,"x_min":88,"x_max":1167,"o":"m 392 281 l 392 451 l 797 451 q 942 504 890 451 q 994 643 994 557 q 942 782 994 731 q 797 833 890 833 l 263 833 l 263 0 l 88 0 l 88 1010 l 797 1010 q 953 984 885 1010 q 1069 912 1022 958 q 1142 799 1117 865 q 1167 649 1167 732 q 1142 499 1167 567 q 1069 383 1117 432 q 953 308 1022 335 q 797 281 885 281 l 392 281 z "},"Q":{"ha":1344,"x_min":58,"x_max":1339,"o":"m 1104 0 l 1035 60 q 922 16 982 32 q 794 0 861 0 l 549 0 q 353 40 443 0 q 198 148 264 79 q 95 311 132 217 q 58 515 58 406 q 95 718 58 626 q 198 874 132 810 q 353 974 264 939 q 549 1010 443 1010 l 794 1010 q 995 974 904 1010 q 1151 872 1086 938 q 1253 716 1217 807 q 1289 515 1289 625 q 1252 310 1289 404 q 1149 147 1215 217 l 1339 0 l 1104 0 m 590 417 l 824 417 l 1011 258 q 1085 367 1058 303 q 1113 507 1113 431 q 1089 638 1113 578 q 1023 742 1065 699 q 922 809 981 785 q 794 833 864 833 l 549 833 q 423 809 481 833 q 324 742 365 785 q 258 639 282 699 q 235 507 235 579 q 258 375 235 436 q 324 270 282 314 q 423 201 365 226 q 549 176 481 176 l 794 176 q 882 188 838 176 l 590 417 z "},"R":{"ha":1279,"x_min":88,"x_max":1275,"o":"m 1025 0 l 769 281 l 392 281 l 392 436 l 813 436 q 957 488 908 436 q 1006 639 1006 540 q 955 785 1006 738 q 813 833 904 833 l 263 833 l 263 0 l 88 0 l 88 1010 l 813 1010 q 967 984 899 1010 q 1082 910 1035 958 q 1154 794 1129 863 q 1179 642 1179 726 q 1124 430 1179 515 q 971 307 1069 344 l 1275 0 l 1025 0 z "},"S":{"ha":1222,"x_min":72,"x_max":1158,"o":"m 88 0 l 88 176 l 844 176 q 953 213 915 176 q 992 308 992 249 q 953 406 992 374 q 844 439 915 439 l 381 439 q 252 460 310 439 q 155 520 194 482 q 94 611 115 558 q 72 726 72 664 q 92 840 72 788 q 152 929 113 892 q 250 988 192 967 q 383 1010 308 1010 l 1108 1010 l 1108 833 l 383 833 q 289 801 322 833 q 256 710 256 768 q 290 619 256 651 q 382 588 324 588 l 844 588 q 1078 515 999 588 q 1158 296 1158 443 q 1139 178 1158 232 q 1081 84 1119 124 q 983 22 1042 44 q 844 0 924 0 l 88 0 z "},"T":{"ha":1000,"x_min":28,"x_max":971,"o":"m 411 0 l 411 833 l 28 833 l 28 1010 l 971 1010 l 971 833 l 588 833 l 588 0 l 411 0 z "},"U":{"ha":1235,"x_min":72,"x_max":1163,"o":"m 990 1010 l 1163 1010 l 1163 446 q 1132 242 1163 329 q 1036 99 1101 156 q 867 14 971 42 q 617 -14 764 -14 q 367 14 471 -14 q 199 99 264 42 q 103 242 133 156 q 72 446 72 329 l 72 1010 l 254 1010 l 254 446 q 273 315 254 369 q 334 226 292 261 q 447 176 376 192 q 622 160 518 160 q 797 176 726 160 q 910 226 868 192 q 972 315 953 261 q 990 446 990 369 l 990 1010 z "},"V":{"ha":1374,"x_min":19,"x_max":1353,"o":"m 19 1010 l 235 1010 l 693 232 l 1150 1010 l 1353 1010 l 771 43 q 735 1 756 17 q 686 -14 714 -14 q 636 1 657 -14 q 600 43 615 17 l 19 1010 z "},"W":{"ha":1761,"x_min":19,"x_max":1740,"o":"m 881 338 l 724 42 q 685 0 708 14 q 633 -14 661 -14 q 542 42 572 -14 l 19 1010 l 231 1010 l 639 233 l 792 508 l 529 1010 l 742 1010 l 1132 233 l 1543 1010 l 1740 1010 l 1218 42 q 1178 0 1203 14 q 1126 -14 1154 -14 q 1075 0 1099 -14 q 1036 42 1051 14 l 881 338 z "},"X":{"ha":1389,"x_min":31,"x_max":1350,"o":"m 1103 0 l 679 413 l 260 0 l 31 0 l 572 525 l 69 1010 l 313 1010 l 697 636 l 1076 1010 l 1306 1010 l 803 525 l 1350 0 l 1103 0 z "},"Y":{"ha":1286,"x_min":18,"x_max":1268,"o":"m 554 0 l 554 383 l 18 1010 l 256 1010 l 649 544 l 1043 1010 l 1268 1010 l 731 383 l 731 0 l 554 0 z "},"Z":{"ha":1114,"x_min":56,"x_max":1051,"o":"m 156 0 q 85 23 115 0 q 56 90 56 46 q 92 165 56 129 l 763 842 l 68 842 l 68 1010 l 951 1010 q 1021 987 990 1010 q 1051 919 1051 964 q 1015 844 1051 881 l 344 168 l 1047 168 l 1047 0 l 156 0 z "},"[":{"ha":463,"x_min":138,"x_max":375,"o":"m 138 -124 l 138 1147 l 375 1147 l 375 1032 l 253 1032 l 253 -11 l 375 -11 l 375 -124 l 138 -124 z "},"\\":{"ha":618,"x_min":14,"x_max":604,"o":"m 482 0 l 14 1010 l 131 1010 l 604 0 l 482 0 z "},"]":{"ha":463,"x_min":88,"x_max":325,"o":"m 88 -124 l 88 -11 l 208 -11 l 208 1032 l 88 1032 l 88 1147 l 325 1147 l 325 -124 l 88 -124 z "},"^":{"ha":776,"x_min":88,"x_max":689,"o":"m 569 417 l 389 874 l 206 417 l 88 417 l 325 975 q 350 1010 335 997 q 389 1022 365 1022 q 428 1010 410 1022 q 456 975 446 997 l 689 417 l 569 417 z "},"_":{"ha":928,"x_min":0,"x_max":939,"o":"m 0 -224 l 0 -142 l 939 -142 l 939 -224 l 0 -224 z "},"`":{"ha":503,"x_min":74,"x_max":429,"o":"m 74 1149 l 74 1258 l 429 1151 l 429 1072 l 74 1149 z "},"a":{"ha":1374,"x_min":19,"x_max":1353,"o":"m 19 0 m 1140 0 l 989 254 l 511 254 l 594 397 l 904 397 l 679 775 l 221 0 l 19 0 l 600 967 q 636 1008 615 993 q 686 1024 657 1024 q 735 1008 715 1024 q 771 967 756 993 l 1353 0 l 1140 0 z "},"b":{"ha":1238,"x_min":86,"x_max":1171,"o":"m 86 0 m 86 0 l 86 1010 l 825 1010 q 959 993 899 1010 q 1063 944 1019 976 q 1129 862 1106 911 q 1153 749 1153 813 q 1142 664 1153 700 q 1111 602 1131 628 q 1066 559 1092 576 q 1013 533 1040 542 q 1126 453 1082 511 q 1171 306 1171 394 q 1148 180 1171 236 q 1083 83 1125 124 q 980 22 1040 43 q 846 0 919 0 l 86 0 m 390 439 l 390 588 l 826 588 q 938 615 901 588 q 974 710 974 643 q 958 774 974 750 q 915 812 943 799 q 847 829 886 825 q 758 833 807 833 l 263 833 l 263 175 l 774 175 q 861 182 821 175 q 931 205 901 189 q 976 246 960 221 q 992 308 992 271 q 953 405 992 371 q 839 439 914 439 l 390 439 z "},"c":{"ha":1151,"x_min":58,"x_max":1096,"o":"m 58 0 m 549 0 q 353 40 443 0 q 198 148 264 79 q 95 311 132 217 q 58 515 58 406 q 95 718 58 626 q 198 874 132 810 q 353 974 264 939 q 549 1010 443 1010 l 1096 1010 l 1096 833 l 549 833 q 423 809 481 833 q 324 742 365 785 q 258 639 282 699 q 235 507 235 579 q 258 375 235 436 q 324 270 282 314 q 423 201 365 226 q 549 176 481 176 l 1096 176 l 1096 0 l 549 0 z "},"d":{"ha":1221,"x_min":88,"x_max":1164,"o":"m 88 0 m 88 0 l 88 1010 l 672 1010 q 869 974 779 1010 q 1025 872 960 938 q 1127 716 1090 807 q 1164 515 1164 625 q 1127 311 1164 406 q 1025 148 1090 217 q 869 40 960 79 q 672 0 779 0 l 88 0 m 672 176 q 798 201 740 176 q 898 270 856 226 q 964 375 940 314 q 988 507 988 436 q 964 638 988 578 q 898 742 940 699 q 798 809 856 785 q 672 833 740 833 l 263 833 l 263 176 l 672 176 z "},"e":{"ha":1054,"x_min":88,"x_max":990,"o":"m 88 0 m 88 0 l 88 1010 l 989 1010 l 989 833 l 263 833 l 263 176 l 990 176 l 990 0 l 88 0 m 392 439 l 392 588 l 951 588 l 951 439 l 392 439 z "},"f":{"ha":979,"x_min":88,"x_max":944,"o":"m 88 0 m 88 0 l 88 1010 l 944 1010 l 944 833 l 263 833 l 263 0 l 88 0 m 392 418 l 392 572 l 903 572 l 903 418 l 392 418 z "},"g":{"ha":1233,"x_min":58,"x_max":1158,"o":"m 58 0 m 549 0 q 353 40 443 0 q 198 148 264 79 q 95 311 132 217 q 58 515 58 406 q 95 718 58 626 q 198 874 132 810 q 353 974 264 939 q 549 1010 443 1010 l 1096 1010 l 1096 833 l 549 833 q 423 809 481 833 q 324 742 365 785 q 258 639 282 699 q 235 507 235 579 q 258 375 235 436 q 324 270 282 314 q 423 201 365 226 q 549 176 481 176 l 981 176 l 981 439 l 525 439 l 525 588 l 1158 588 l 1158 0 l 549 0 z "},"h":{"ha":1164,"x_min":88,"x_max":1076,"o":"m 88 0 m 900 -4 l 900 435 l 392 435 l 392 592 l 900 592 l 900 1010 l 1076 1010 l 1076 -4 l 900 -4 m 88 -4 l 88 1010 l 264 1010 l 264 -4 l 88 -4 z "},"i":{"ha":371,"x_min":97,"x_max":274,"o":"m 97 0 m 97 0 l 97 1010 l 274 1010 l 274 0 l 97 0 z "},"j":{"ha":983,"x_min":33,"x_max":911,"o":"m 33 0 m 33 0 l 33 176 l 403 176 q 657 244 579 176 q 735 460 735 313 l 735 1010 l 911 1010 l 911 460 q 789 113 911 225 q 403 0 667 0 l 33 0 z "},"k":{"ha":1215,"x_min":88,"x_max":1189,"o":"m 88 0 m 919 0 l 354 444 q 324 480 331 463 q 318 518 318 497 q 326 560 318 542 q 363 599 335 578 l 897 1010 l 1168 1010 l 507 517 l 1189 0 l 919 0 m 88 0 l 88 1010 l 264 1010 l 264 0 l 88 0 z "},"l":{"ha":982,"x_min":88,"x_max":943,"o":"m 88 0 m 88 0 l 88 1010 l 264 1010 l 264 176 l 943 176 l 943 0 l 88 0 z "},"m":{"ha":1549,"x_min":33,"x_max":1519,"o":"m 33 0 m 1344 0 l 1151 710 l 865 53 q 828 3 850 21 q 775 -14 807 -14 q 685 53 713 -14 l 400 710 l 207 0 l 33 0 l 293 950 q 381 1022 311 1022 q 433 1007 408 1022 q 469 963 457 992 l 781 249 l 1092 963 q 1176 1022 1117 1022 q 1261 950 1240 1022 l 1519 0 l 1344 0 z "},"n":{"ha":1213,"x_min":83,"x_max":1129,"o":"m 83 0 m 251 739 l 251 0 l 83 0 l 83 917 q 108 994 83 965 q 174 1022 132 1022 q 211 1014 193 1022 q 249 986 229 1006 l 961 279 l 961 1018 l 1129 1018 l 1129 93 q 1105 15 1129 43 q 1042 -12 1081 -12 q 961 25 999 -12 l 251 739 z "},"o":{"ha":1344,"x_min":58,"x_max":1289,"o":"m 58 0 m 549 0 q 353 40 443 0 q 198 148 264 79 q 95 311 132 217 q 58 515 58 406 q 95 718 58 626 q 198 874 132 810 q 353 974 264 939 q 549 1010 443 1010 l 794 1010 q 995 974 904 1010 q 1151 872 1086 938 q 1253 716 1217 807 q 1289 515 1289 625 q 1252 311 1289 406 q 1149 148 1215 217 q 993 40 1083 79 q 794 0 903 0 l 549 0 m 794 176 q 922 201 864 176 q 1023 270 981 226 q 1089 375 1065 314 q 1113 507 1113 436 q 1089 638 1113 578 q 1023 742 1065 699 q 922 809 981 785 q 794 833 864 833 l 549 833 q 423 809 481 833 q 324 742 365 785 q 258 639 282 699 q 235 507 235 579 q 258 375 235 436 q 324 270 282 314 q 423 201 365 226 q 549 176 481 176 l 794 176 z "},"p":{"ha":1204,"x_min":88,"x_max":1167,"o":"m 88 0 m 392 281 l 392 451 l 797 451 q 942 504 890 451 q 994 643 994 557 q 942 782 994 731 q 797 833 890 833 l 263 833 l 263 0 l 88 0 l 88 1010 l 797 1010 q 953 984 885 1010 q 1069 912 1022 958 q 1142 799 1117 865 q 1167 649 1167 732 q 1142 499 1167 567 q 1069 383 1117 432 q 953 308 1022 335 q 797 281 885 281 l 392 281 z "},"q":{"ha":1344,"x_min":58,"x_max":1339,"o":"m 58 0 m 1104 0 l 1035 60 q 922 16 982 32 q 794 0 861 0 l 549 0 q 353 40 443 0 q 198 148 264 79 q 95 311 132 217 q 58 515 58 406 q 95 718 58 626 q 198 874 132 810 q 353 974 264 939 q 549 1010 443 1010 l 794 1010 q 995 974 904 1010 q 1151 872 1086 938 q 1253 716 1217 807 q 1289 515 1289 625 q 1252 310 1289 404 q 1149 147 1215 217 l 1339 0 l 1104 0 m 590 417 l 824 417 l 1011 258 q 1085 367 1058 303 q 1113 507 1113 431 q 1089 638 1113 578 q 1023 742 1065 699 q 922 809 981 785 q 794 833 864 833 l 549 833 q 423 809 481 833 q 324 742 365 785 q 258 639 282 699 q 235 507 235 579 q 258 375 235 436 q 324 270 282 314 q 423 201 365 226 q 549 176 481 176 l 794 176 q 882 188 838 176 l 590 417 z "},"r":{"ha":1279,"x_min":88,"x_max":1275,"o":"m 88 0 m 1025 0 l 769 281 l 392 281 l 392 436 l 813 436 q 957 488 908 436 q 1006 639 1006 540 q 955 785 1006 738 q 813 833 904 833 l 263 833 l 263 0 l 88 0 l 88 1010 l 813 1010 q 967 984 899 1010 q 1082 910 1035 958 q 1154 794 1129 863 q 1179 642 1179 726 q 1124 430 1179 515 q 971 307 1069 344 l 1275 0 l 1025 0 z "},"s":{"ha":1222,"x_min":72,"x_max":1158,"o":"m 72 0 m 88 0 l 88 176 l 844 176 q 953 213 915 176 q 992 308 992 249 q 953 406 992 374 q 844 439 915 439 l 381 439 q 252 460 310 439 q 155 520 194 482 q 94 611 115 558 q 72 726 72 664 q 92 840 72 788 q 152 929 113 892 q 250 988 192 967 q 383 1010 308 1010 l 1108 1010 l 1108 833 l 383 833 q 289 801 322 833 q 256 710 256 768 q 290 619 256 651 q 382 588 324 588 l 844 588 q 1078 515 999 588 q 1158 296 1158 443 q 1139 178 1158 232 q 1081 84 1119 124 q 983 22 1042 44 q 844 0 924 0 l 88 0 z "},"t":{"ha":1000,"x_min":28,"x_max":971,"o":"m 28 0 m 411 0 l 411 833 l 28 833 l 28 1010 l 971 1010 l 971 833 l 588 833 l 588 0 l 411 0 z "},"u":{"ha":1235,"x_min":72,"x_max":1163,"o":"m 72 0 m 990 1010 l 1163 1010 l 1163 446 q 1132 242 1163 329 q 1036 99 1101 156 q 867 14 971 42 q 617 -14 764 -14 q 367 14 471 -14 q 199 99 264 42 q 103 242 133 156 q 72 446 72 329 l 72 1010 l 254 1010 l 254 446 q 273 315 254 369 q 334 226 292 261 q 447 176 376 192 q 622 160 518 160 q 797 176 726 160 q 910 226 868 192 q 972 315 953 261 q 990 446 990 369 l 990 1010 z "},"v":{"ha":1374,"x_min":19,"x_max":1353,"o":"m 19 0 m 19 1010 l 235 1010 l 693 232 l 1150 1010 l 1353 1010 l 771 43 q 735 1 756 17 q 686 -14 714 -14 q 636 1 657 -14 q 600 43 615 17 l 19 1010 z "},"w":{"ha":1761,"x_min":19,"x_max":1740,"o":"m 19 0 m 881 338 l 724 42 q 685 0 708 14 q 633 -14 661 -14 q 542 42 572 -14 l 19 1010 l 231 1010 l 639 233 l 792 508 l 529 1010 l 742 1010 l 1132 233 l 1543 1010 l 1740 1010 l 1218 42 q 1178 0 1203 14 q 1126 -14 1154 -14 q 1075 0 1099 -14 q 1036 42 1051 14 l 881 338 z "},"x":{"ha":1389,"x_min":31,"x_max":1350,"o":"m 31 0 m 1103 0 l 679 413 l 260 0 l 31 0 l 572 525 l 69 1010 l 313 1010 l 697 636 l 1076 1010 l 1306 1010 l 803 525 l 1350 0 l 1103 0 z "},"y":{"ha":1286,"x_min":18,"x_max":1268,"o":"m 18 0 m 554 0 l 554 383 l 18 1010 l 256 1010 l 649 544 l 1043 1010 l 1268 1010 l 731 383 l 731 0 l 554 0 z "},"z":{"ha":1114,"x_min":56,"x_max":1051,"o":"m 56 0 m 156 0 q 85 23 115 0 q 56 90 56 46 q 92 165 56 129 l 763 842 l 68 842 l 68 1010 l 951 1010 q 1021 987 990 1010 q 1051 919 1051 964 q 1015 844 1051 881 l 344 168 l 1047 168 l 1047 0 l 156 0 z "},"{":{"ha":468,"x_min":86,"x_max":379,"o":"m 315 -124 q 200 -81 243 -124 q 157 39 157 -39 l 157 425 q 142 451 157 443 q 86 461 126 460 l 86 557 q 142 567 126 558 q 157 592 157 575 l 157 982 q 200 1104 157 1061 q 315 1147 243 1147 l 379 1147 l 379 1050 q 295 1023 318 1050 q 272 958 272 996 l 272 622 q 260 547 272 575 q 218 508 249 519 q 262 468 251 494 q 272 396 272 442 l 272 63 q 301 -10 272 7 q 379 -26 329 -26 l 379 -124 l 315 -124 z "},"|":{"ha":413,"x_min":154,"x_max":258,"o":"m 154 -124 l 154 1147 l 258 1147 l 258 -124 l 154 -124 z "},"}":{"ha":468,"x_min":86,"x_max":379,"o":"m 86 -124 l 86 -26 q 165 -10 136 -26 q 193 63 193 7 l 193 396 q 203 468 193 442 q 247 508 214 494 q 205 547 217 519 q 193 622 193 575 l 193 958 q 170 1023 193 996 q 86 1050 147 1050 l 86 1147 l 150 1147 q 265 1104 222 1147 q 308 982 308 1061 l 308 592 q 324 567 308 575 q 379 557 339 558 l 379 461 q 324 451 339 460 q 308 425 308 443 l 308 39 q 265 -81 308 -39 q 150 -124 222 -124 l 86 -124 z "},"~":{"ha":960,"x_min":89,"x_max":872,"o":"m 872 481 q 780 426 832 443 q 671 410 728 410 q 574 424 621 410 q 481 457 528 439 q 388 490 435 475 q 289 504 340 504 q 177 481 232 504 q 89 421 122 457 l 89 549 q 178 603 126 585 q 289 622 229 622 q 386 608 339 622 q 479 575 433 593 q 572 542 525 557 q 671 528 619 528 q 786 553 731 528 q 872 610 842 579 l 872 481 z "}," ":{"ha":408,"x_min":0,"x_max":0,"o":""},"¡":{"ha":414,"x_min":115,"x_max":304,"o":"m 115 0 m 296 686 l 296 0 l 129 0 l 129 686 l 296 686 m 210 1024 q 277 997 250 1024 q 304 928 304 971 q 277 861 304 888 q 210 835 250 835 q 142 861 168 835 q 115 928 115 888 q 142 997 115 971 q 210 1024 168 1024 z "},"¢":{"ha":961,"x_min":58,"x_max":892,"o":"m 631 99 l 631 0 l 553 0 l 553 99 l 453 99 q 294 130 367 99 q 169 217 222 161 q 88 348 117 272 q 58 513 58 424 q 88 676 58 603 q 169 802 117 750 q 294 883 222 854 q 453 911 367 911 l 553 911 l 553 1010 l 631 1010 l 631 911 l 892 911 l 892 768 l 631 768 l 631 243 l 892 243 l 892 99 l 631 99 m 553 768 l 453 768 q 352 749 399 768 q 272 695 306 729 q 219 613 238 661 q 200 506 200 564 q 219 401 200 449 q 272 317 238 353 q 352 263 306 282 q 453 243 399 243 l 553 243 l 553 768 z "},"£":{"ha":985,"x_min":40,"x_max":929,"o":"m 40 0 l 40 176 l 164 176 l 164 454 l 94 454 l 94 585 l 164 585 l 164 711 q 183 830 164 775 q 240 924 201 885 q 336 987 278 964 q 474 1010 394 1010 l 781 1010 l 781 833 l 500 833 q 376 799 421 833 q 331 689 331 764 l 331 585 l 611 585 l 611 454 l 331 454 l 331 176 l 929 176 l 929 0 l 40 0 z "},"¥":{"ha":1093,"x_min":26,"x_max":1057,"o":"m 629 103 l 629 0 l 463 0 l 463 103 l 176 103 l 176 222 l 463 222 l 463 344 l 176 344 l 176 464 l 392 464 l 26 1010 l 238 1010 l 549 525 l 850 1010 l 1057 1010 l 699 464 l 924 464 l 924 344 l 629 344 l 629 222 l 924 222 l 924 103 l 629 103 z "},"¦":{"ha":413,"x_min":154,"x_max":258,"o":"m 258 583 l 154 583 l 154 1147 l 258 1147 l 258 583 m 154 -124 l 154 429 l 258 429 l 258 -124 l 154 -124 z "},"§":{"ha":1074,"x_min":68,"x_max":993,"o":"m 178 -279 l 178 -111 l 675 -111 q 780 -82 736 -111 q 824 10 824 -53 q 792 96 824 63 q 704 129 761 129 l 364 129 q 176 188 236 129 q 117 342 117 246 q 137 445 117 400 q 199 515 157 490 q 103 605 138 544 q 68 743 68 665 q 87 847 68 799 q 142 932 106 896 q 233 989 179 968 q 356 1010 286 1010 l 881 1010 l 881 842 l 385 842 q 278 813 322 842 q 235 721 235 783 q 267 635 235 668 q 354 601 299 601 l 696 601 q 883 543 824 601 q 943 388 943 485 q 922 285 943 329 q 860 214 900 240 q 956 128 919 186 q 993 -8 993 69 q 974 -115 993 -65 q 919 -201 956 -165 q 828 -258 882 -237 q 704 -279 775 -279 l 178 -279 m 383 472 q 297 442 325 472 q 269 368 269 413 q 300 288 269 318 q 392 258 331 258 l 675 258 q 761 288 733 258 q 789 363 789 318 q 758 442 789 413 q 668 472 728 472 l 383 472 z "},"¨":{"ha":546,"x_min":74,"x_max":472,"o":"m 215 1178 q 195 1132 215 1149 q 146 1115 175 1115 q 94 1132 114 1115 q 74 1178 74 1149 q 94 1224 74 1207 q 146 1240 114 1240 q 195 1224 175 1240 q 215 1178 215 1207 m 472 1178 q 452 1132 472 1149 q 401 1115 432 1115 q 351 1132 371 1115 q 331 1178 331 1149 q 351 1224 331 1207 q 401 1240 371 1240 q 452 1224 432 1240 q 472 1178 472 1207 z "},"©":{"ha":1151,"x_min":58,"x_max":1093,"o":"m 576 -14 q 375 27 469 -14 q 210 139 281 68 q 99 304 140 210 q 58 506 58 399 q 99 707 58 613 q 210 872 140 801 q 375 982 281 942 q 576 1022 469 1022 q 778 982 683 1022 q 942 872 872 942 q 1053 707 1013 801 q 1093 506 1093 613 q 1053 304 1093 399 q 942 139 1013 210 q 778 27 872 68 q 576 -14 683 -14 m 579 33 q 761 70 676 33 q 910 171 846 107 q 1010 321 974 235 q 1047 504 1047 407 q 1010 688 1047 601 q 910 838 974 774 q 761 940 846 903 q 579 976 676 976 q 394 940 481 976 q 244 838 308 903 q 144 688 181 774 q 108 504 108 601 q 144 321 108 407 q 244 171 181 235 q 394 70 308 107 q 579 33 481 33 m 571 264 q 468 283 515 264 q 387 334 421 301 q 333 411 353 367 q 314 507 314 456 q 333 603 314 560 q 387 678 353 647 q 468 726 421 710 q 571 743 515 743 l 740 743 l 740 678 l 571 678 q 499 665 532 678 q 440 629 465 653 q 401 573 415 606 q 388 501 388 540 q 401 432 388 464 q 440 377 415 400 q 497 341 464 354 q 571 328 531 328 l 740 328 l 740 264 l 571 264 z "},"ª":{"ha":839,"x_min":53,"x_max":786,"o":"m 669 417 l 586 557 l 322 557 l 368 635 l 539 635 l 415 843 l 163 417 l 53 417 l 372 949 q 392 972 381 964 q 419 979 403 979 q 465 949 447 979 l 786 417 l 669 417 z "},"«":{"ha":874,"x_min":58,"x_max":817,"o":"m 82 481 q 58 515 58 496 q 82 553 58 538 l 453 775 l 453 688 l 150 514 l 453 339 l 453 257 l 82 481 m 444 481 q 421 515 421 494 q 444 553 421 538 l 817 775 l 817 688 l 514 514 l 817 339 l 817 257 l 444 481 z "},"®":{"ha":813,"x_min":88,"x_max":725,"o":"m 725 703 q 700 578 725 636 q 631 478 675 521 q 530 410 588 435 q 406 385 472 385 q 281 410 339 385 q 181 478 224 435 q 113 578 138 521 q 88 703 88 636 q 113 828 88 769 q 181 929 138 886 q 281 997 224 972 q 406 1022 339 1022 q 530 997 472 1022 q 631 929 588 972 q 700 828 675 886 q 725 703 725 769 m 674 703 q 652 808 674 758 q 594 894 631 858 q 510 952 558 931 q 406 974 461 974 q 301 952 350 974 q 216 894 253 931 q 158 808 179 858 q 136 703 136 758 q 158 599 136 647 q 216 514 179 550 q 301 457 253 478 q 406 436 350 436 q 510 457 461 436 q 594 514 558 478 q 652 599 631 550 q 674 703 674 647 m 511 589 l 442 658 l 368 658 l 368 703 l 458 703 q 508 751 508 703 q 495 787 508 774 q 458 800 482 800 l 310 800 l 310 589 l 261 589 l 261 847 l 458 847 q 531 822 506 847 q 557 753 557 796 q 542 699 557 721 q 501 665 528 676 l 582 589 l 511 589 z "},"¯":{"ha":503,"x_min":74,"x_max":429,"o":"m 74 1128 l 74 1208 l 429 1208 l 429 1128 l 74 1128 z "},"°":{"ha":501,"x_min":58,"x_max":443,"o":"m 443 831 q 249 640 443 640 q 58 831 58 640 q 249 1022 58 1022 q 443 831 443 1022 m 364 829 q 249 943 364 943 q 163 916 192 943 q 135 831 135 889 q 249 719 135 719 q 364 829 364 719 z "},"±":{"ha":958,"x_min":88,"x_max":871,"o":"m 88 0 m 421 121 l 421 456 l 88 456 l 88 572 l 421 572 l 421 906 l 539 906 l 539 572 l 871 572 l 871 456 l 539 456 l 539 121 l 421 121 m 88 -71 l 88 46 l 871 46 l 871 -71 l 88 -71 z "},"²":{"ha":614,"x_min":64,"x_max":557,"o":"m 64 521 m 64 521 l 64 668 q 219 814 64 814 l 403 814 q 449 831 431 814 q 467 875 467 847 q 449 921 467 904 q 403 938 432 938 l 68 938 l 68 1025 l 403 1025 q 517 985 478 1025 q 557 883 557 946 q 516 781 557 821 q 403 740 475 740 l 219 740 q 147 675 147 740 l 147 608 l 549 608 l 549 521 l 64 521 z "},"³":{"ha":615,"x_min":53,"x_max":561,"o":"m 53 521 m 53 521 l 53 608 l 376 608 q 444 626 418 608 q 471 675 471 643 q 394 740 471 740 l 172 740 l 172 814 l 389 814 q 463 875 463 814 q 439 924 463 911 q 371 938 415 938 l 54 938 l 54 1025 l 389 1025 q 507 992 463 1025 q 551 894 551 960 q 531 821 551 846 q 482 788 510 796 q 539 747 517 776 q 561 674 561 718 q 517 563 561 604 q 399 521 474 521 l 53 521 z "},"´":{"ha":503,"x_min":74,"x_max":429,"o":"m 74 1072 l 74 1151 l 429 1258 l 429 1149 l 74 1072 z "},"¶":{"ha":874,"x_min":63,"x_max":786,"o":"m 676 -140 l 676 899 l 500 899 l 500 -140 l 389 -140 l 389 550 l 294 550 q 124 614 185 550 q 63 782 63 678 q 124 948 63 886 q 294 1010 185 1010 l 786 1010 l 786 -140 l 676 -140 z "},"·":{"ha":364,"x_min":88,"x_max":276,"o":"m 276 500 q 249 433 276 460 q 181 406 221 406 q 114 433 140 406 q 88 500 88 460 q 114 567 88 540 q 181 594 140 594 q 249 567 221 594 q 276 500 276 540 z "},"¸":{"ha":304,"x_min":60,"x_max":244,"o":"m 60 -65 l 244 -65 l 151 -279 l 60 -65 z "},"¹":{"ha":308,"x_min":38,"x_max":244,"o":"m 38 521 m 157 521 l 157 860 q 86 938 157 938 l 38 938 l 38 1025 l 86 1025 q 203 982 163 1025 q 244 860 244 939 l 244 521 l 157 521 z "},"º":{"ha":822,"x_min":74,"x_max":750,"o":"m 343 417 q 235 438 285 417 q 150 498 186 460 q 94 588 114 536 q 74 700 74 639 q 94 812 74 761 q 150 898 114 863 q 235 953 186 933 q 343 972 285 972 l 479 972 q 589 952 539 972 q 674 897 639 932 q 730 810 710 861 q 750 700 750 760 q 730 588 750 639 q 674 498 710 536 q 588 438 638 460 q 479 417 538 417 l 343 417 m 479 514 q 549 528 517 514 q 605 565 582 542 q 641 622 628 589 q 654 696 654 656 q 641 767 654 735 q 605 824 628 800 q 549 862 582 849 q 479 875 517 875 l 343 875 q 274 862 306 875 q 220 825 243 849 q 184 768 197 801 q 171 696 171 735 q 183 622 171 656 q 219 565 196 589 q 274 528 242 542 q 343 514 306 514 l 479 514 z "},"»":{"ha":874,"x_min":58,"x_max":817,"o":"m 421 257 l 421 339 l 724 514 l 421 688 l 421 775 l 792 553 q 817 515 817 538 q 792 481 817 494 l 421 257 m 58 257 l 58 339 l 361 514 l 58 688 l 58 775 l 431 553 q 454 515 454 539 q 431 481 454 494 l 58 257 z "},"¼":{"ha":1350,"x_min":58,"x_max":1292,"o":"m 58 0 m 293 521 l 293 860 q 222 938 293 938 l 174 938 l 174 1025 l 222 1025 q 340 982 299 1025 q 381 860 381 939 l 381 521 l 293 521 m 58 -93 l 971 1071 l 1089 1071 l 179 -93 l 58 -93 m 1131 -14 l 1131 121 l 921 121 q 799 160 842 121 q 756 282 756 199 l 756 490 l 843 490 l 843 283 q 862 222 843 239 q 921 206 881 206 l 1131 206 l 1131 490 l 1218 490 l 1218 206 l 1292 206 l 1292 121 l 1218 121 l 1218 -14 l 1131 -14 z "},"½":{"ha":1317,"x_min":58,"x_max":1258,"o":"m 58 0 m 293 521 l 293 860 q 222 938 293 938 l 174 938 l 174 1025 l 222 1025 q 340 982 299 1025 q 381 860 381 939 l 381 521 l 293 521 m 58 -93 l 971 1071 l 1089 1071 l 179 -93 l 58 -93 m 765 -14 l 765 133 q 921 279 765 279 l 1104 279 q 1150 296 1132 279 q 1168 340 1168 313 q 1151 386 1168 369 q 1104 403 1133 403 l 769 403 l 769 490 l 1104 490 q 1219 451 1179 490 q 1258 349 1258 411 q 1217 246 1258 286 q 1104 206 1176 206 l 921 206 q 849 140 849 206 l 849 74 l 1250 74 l 1250 -14 l 765 -14 z "},"¾":{"ha":1429,"x_min":58,"x_max":1371,"o":"m 58 0 m 58 521 l 58 608 l 382 608 q 450 626 424 608 q 476 675 476 643 q 400 740 476 740 l 178 740 l 178 814 l 394 814 q 468 875 468 814 q 444 924 468 911 q 376 938 421 938 l 60 938 l 60 1025 l 394 1025 q 513 992 468 1025 q 557 894 557 960 q 536 821 557 846 q 488 788 515 796 q 544 747 522 776 q 567 674 567 718 q 523 563 567 604 q 404 521 479 521 l 58 521 m 138 -93 l 1050 1071 l 1168 1071 l 258 -93 l 138 -93 m 1210 -14 l 1210 121 l 1000 121 q 878 160 921 121 q 835 282 835 199 l 835 490 l 922 490 l 922 283 q 941 222 922 239 q 1000 206 960 206 l 1210 206 l 1210 490 l 1297 490 l 1297 206 l 1371 206 l 1371 121 l 1297 121 l 1297 -14 l 1210 -14 z "},"¿":{"ha":1078,"x_min":39,"x_max":1014,"o":"m 39 0 m 688 571 q 753 629 753 571 l 753 685 l 919 685 l 919 625 q 863 477 919 532 q 688 422 806 422 l 347 422 q 254 390 289 422 q 219 300 219 358 q 254 209 219 242 q 347 176 288 176 l 1014 176 l 1014 0 l 347 0 q 215 22 272 0 q 118 81 157 43 q 59 170 79 118 q 39 283 39 222 q 60 399 39 346 q 120 490 81 451 q 217 549 160 528 q 344 571 274 571 l 688 571 m 833 1021 q 901 994 874 1021 q 928 925 928 968 q 901 858 928 885 q 833 832 874 832 q 765 858 792 832 q 739 925 739 885 q 765 994 739 968 q 833 1021 792 1021 z "},"À":{"ha":1374,"x_min":19,"x_max":1353,"o":"m 19 0 m 1140 0 l 989 254 l 511 254 l 594 397 l 904 397 l 679 775 l 221 0 l 19 0 l 600 967 q 636 1008 615 993 q 686 1024 657 1024 q 735 1008 715 1024 q 771 967 756 993 l 1353 0 l 1140 0 m 467 1149 l 467 1258 l 822 1151 l 822 1072 l 467 1149 z "},"Á":{"ha":1374,"x_min":19,"x_max":1353,"o":"m 19 0 m 1140 0 l 989 254 l 511 254 l 594 397 l 904 397 l 679 775 l 221 0 l 19 0 l 600 967 q 636 1008 615 993 q 686 1024 657 1024 q 735 1008 715 1024 q 771 967 756 993 l 1353 0 l 1140 0 m 550 1072 l 550 1151 l 906 1258 l 906 1149 l 550 1072 z "},"Â":{"ha":1374,"x_min":19,"x_max":1353,"o":"m 19 0 m 1140 0 l 989 254 l 511 254 l 594 397 l 904 397 l 679 775 l 221 0 l 19 0 l 600 967 q 636 1008 615 993 q 686 1024 657 1024 q 735 1008 715 1024 q 771 967 756 993 l 1353 0 l 1140 0 m 779 1072 l 692 1207 l 681 1207 l 593 1072 l 497 1072 l 624 1258 l 750 1258 l 876 1072 l 779 1072 z "},"Ã":{"ha":1374,"x_min":19,"x_max":1353,"o":"m 19 0 m 1140 0 l 989 254 l 511 254 l 594 397 l 904 397 l 679 775 l 221 0 l 19 0 l 600 967 q 636 1008 615 993 q 686 1024 657 1024 q 735 1008 715 1024 q 771 967 756 993 l 1353 0 l 1140 0 m 864 1143 q 772 1103 832 1103 q 728 1111 749 1103 q 686 1130 707 1119 q 644 1149 665 1140 q 599 1157 622 1157 q 546 1142 571 1157 q 508 1108 521 1128 l 508 1190 q 547 1221 524 1210 q 599 1232 571 1232 q 644 1223 622 1232 q 686 1203 665 1214 q 728 1185 707 1193 q 772 1176 749 1176 q 825 1192 800 1176 q 864 1226 850 1207 l 864 1143 z "},"Ä":{"ha":1374,"x_min":19,"x_max":1353,"o":"m 19 0 m 1140 0 l 989 254 l 511 254 l 594 397 l 904 397 l 679 775 l 221 0 l 19 0 l 600 967 q 636 1008 615 993 q 686 1024 657 1024 q 735 1008 715 1024 q 771 967 756 993 l 1353 0 l 1140 0 m 629 1178 q 609 1132 629 1149 q 560 1115 589 1115 q 508 1132 528 1115 q 488 1178 488 1149 q 508 1224 488 1207 q 560 1240 528 1240 q 609 1224 589 1240 q 629 1178 629 1207 m 886 1178 q 866 1132 886 1149 q 815 1115 846 1115 q 765 1132 785 1115 q 744 1178 744 1149 q 765 1224 744 1207 q 815 1240 785 1240 q 866 1224 846 1240 q 886 1178 886 1207 z "},"Å":{"ha":1374,"x_min":19,"x_max":1353,"o":"m 19 0 m 1140 0 l 989 254 l 511 254 l 594 397 l 904 397 l 679 775 l 221 0 l 19 0 l 600 967 q 636 1008 615 993 q 686 1024 657 1024 q 735 1008 715 1024 q 771 967 756 993 l 1353 0 l 1140 0 m 650 1072 q 548 1113 588 1072 q 508 1215 508 1154 q 548 1316 508 1278 q 650 1354 588 1354 l 721 1354 q 824 1316 783 1354 q 864 1215 864 1278 q 824 1113 864 1154 q 721 1072 783 1072 l 650 1072 m 721 1124 q 786 1149 761 1124 q 811 1214 811 1175 q 786 1277 811 1253 q 721 1301 761 1301 l 650 1301 q 586 1277 611 1301 q 561 1214 561 1253 q 585 1149 561 1175 q 650 1124 610 1124 l 721 1124 z "},"Æ":{"ha":1868,"x_min":19,"x_max":1804,"o":"m 958 0 l 958 246 l 500 246 l 586 392 l 958 392 l 958 833 l 693 833 l 218 0 l 19 0 l 572 950 q 610 994 589 978 q 660 1010 631 1010 l 1801 1010 l 1801 833 l 1133 833 l 1133 176 l 1804 176 l 1804 0 l 958 0 m 1263 439 l 1263 588 l 1764 588 l 1764 439 l 1263 439 z "},"Ç":{"ha":1151,"x_min":58,"x_max":1096,"o":"m 58 0 m 549 0 q 353 40 443 0 q 198 148 264 79 q 95 311 132 217 q 58 515 58 406 q 95 718 58 626 q 198 874 132 810 q 353 974 264 939 q 549 1010 443 1010 l 1096 1010 l 1096 833 l 549 833 q 423 809 481 833 q 324 742 365 785 q 258 639 282 699 q 235 507 235 579 q 258 375 235 436 q 324 270 282 314 q 423 201 365 226 q 549 176 481 176 l 1096 176 l 1096 0 l 549 0 m 511 -65 l 696 -65 l 603 -279 l 511 -65 z "},"È":{"ha":1054,"x_min":88,"x_max":990,"o":"m 88 0 m 88 0 l 88 1010 l 989 1010 l 989 833 l 263 833 l 263 176 l 990 176 l 990 0 l 88 0 m 392 439 l 392 588 l 951 588 l 951 439 l 392 439 m 307 1149 l 307 1258 l 663 1151 l 663 1072 l 307 1149 z "},"É":{"ha":1054,"x_min":88,"x_max":990,"o":"m 88 0 m 88 0 l 88 1010 l 989 1010 l 989 833 l 263 833 l 263 176 l 990 176 l 990 0 l 88 0 m 392 439 l 392 588 l 951 588 l 951 439 l 392 439 m 390 1072 l 390 1151 l 746 1258 l 746 1149 l 390 1072 z "},"Ê":{"ha":1054,"x_min":88,"x_max":990,"o":"m 88 0 m 88 0 l 88 1010 l 989 1010 l 989 833 l 263 833 l 263 176 l 990 176 l 990 0 l 88 0 m 392 439 l 392 588 l 951 588 l 951 439 l 392 439 m 619 1072 l 532 1207 l 521 1207 l 433 1072 l 338 1072 l 464 1258 l 590 1258 l 717 1072 l 619 1072 z "},"Ë":{"ha":1054,"x_min":88,"x_max":990,"o":"m 88 0 m 88 0 l 88 1010 l 989 1010 l 989 833 l 263 833 l 263 176 l 990 176 l 990 0 l 88 0 m 392 439 l 392 588 l 951 588 l 951 439 l 392 439 m 469 1178 q 449 1132 469 1149 q 400 1115 429 1115 q 348 1132 368 1115 q 328 1178 328 1149 q 348 1224 328 1207 q 400 1240 368 1240 q 449 1224 429 1240 q 469 1178 469 1207 m 726 1178 q 706 1132 726 1149 q 656 1115 686 1115 q 605 1132 625 1115 q 585 1178 585 1149 q 605 1224 585 1207 q 656 1240 625 1240 q 706 1224 686 1240 q 726 1178 726 1207 z "},"Ì":{"ha":371,"x_min":-32,"x_max":324,"o":"m 0 0 m 97 0 l 97 1010 l 274 1010 l 274 0 l 97 0 m -32 1149 l -32 1258 l 324 1151 l 324 1072 l -32 1149 z "},"Í":{"ha":371,"x_min":51,"x_max":407,"o":"m 51 0 m 97 0 l 97 1010 l 274 1010 l 274 0 l 97 0 m 51 1072 l 51 1151 l 407 1258 l 407 1149 l 51 1072 z "},"Î":{"ha":371,"x_min":-3,"x_max":376,"o":"m 0 0 m 97 0 l 97 1010 l 274 1010 l 274 0 l 97 0 m 279 1072 l 192 1207 l 181 1207 l 93 1072 l -3 1072 l 124 1258 l 250 1258 l 376 1072 l 279 1072 z "},"Ï":{"ha":371,"x_min":-12,"x_max":386,"o":"m 0 0 m 97 0 l 97 1010 l 274 1010 l 274 0 l 97 0 m 129 1178 q 109 1132 129 1149 q 60 1115 89 1115 q 8 1132 28 1115 q -12 1178 -12 1149 q 8 1224 -12 1207 q 60 1240 28 1240 q 109 1224 89 1240 q 129 1178 129 1207 m 386 1178 q 366 1132 386 1149 q 315 1115 346 1115 q 265 1132 285 1115 q 244 1178 244 1149 q 265 1224 244 1207 q 315 1240 285 1240 q 366 1224 346 1240 q 386 1178 386 1207 z "},"Ð":{"ha":1218,"x_min":14,"x_max":1163,"o":"m 85 0 l 85 439 l 14 439 l 14 588 l 85 588 l 85 1010 l 669 1010 q 867 974 776 1010 q 1023 872 957 938 q 1126 716 1089 807 q 1163 515 1163 625 q 1126 311 1163 406 q 1023 148 1089 217 q 867 40 957 79 q 669 0 776 0 l 85 0 m 260 439 l 260 176 l 669 176 q 795 201 738 176 q 895 270 853 226 q 961 375 938 314 q 985 507 985 436 q 961 638 985 578 q 895 742 938 699 q 795 809 853 785 q 669 833 738 833 l 260 833 l 260 588 l 657 588 l 657 439 l 260 439 z "},"Ñ":{"ha":1213,"x_min":83,"x_max":1129,"o":"m 83 0 m 251 739 l 251 0 l 83 0 l 83 917 q 108 994 83 965 q 174 1022 132 1022 q 211 1014 193 1022 q 249 986 229 1006 l 961 279 l 961 1018 l 1129 1018 l 1129 93 q 1105 15 1129 43 q 1042 -12 1081 -12 q 961 25 999 -12 l 251 739 m 783 1143 q 692 1103 751 1103 q 647 1111 668 1103 q 606 1130 626 1119 q 563 1149 585 1140 q 518 1157 542 1157 q 465 1142 490 1157 q 428 1108 440 1128 l 428 1190 q 467 1221 443 1210 q 518 1232 490 1232 q 563 1223 542 1232 q 606 1203 585 1214 q 647 1185 626 1193 q 692 1176 668 1176 q 744 1192 719 1176 q 783 1226 769 1207 l 783 1143 z "},"Ò":{"ha":1344,"x_min":58,"x_max":1289,"o":"m 58 0 m 549 0 q 353 40 443 0 q 198 148 264 79 q 95 311 132 217 q 58 515 58 406 q 95 718 58 626 q 198 874 132 810 q 353 974 264 939 q 549 1010 443 1010 l 794 1010 q 995 974 904 1010 q 1151 872 1086 938 q 1253 716 1217 807 q 1289 515 1289 625 q 1252 311 1289 406 q 1149 148 1215 217 q 993 40 1083 79 q 794 0 903 0 l 549 0 m 794 176 q 922 201 864 176 q 1023 270 981 226 q 1089 375 1065 314 q 1113 507 1113 436 q 1089 638 1113 578 q 1023 742 1065 699 q 922 809 981 785 q 794 833 864 833 l 549 833 q 423 809 481 833 q 324 742 365 785 q 258 639 282 699 q 235 507 235 579 q 258 375 235 436 q 324 270 282 314 q 423 201 365 226 q 549 176 481 176 l 794 176 m 453 1149 l 453 1258 l 808 1151 l 808 1072 l 453 1149 z "},"Ó":{"ha":1344,"x_min":58,"x_max":1289,"o":"m 58 0 m 549 0 q 353 40 443 0 q 198 148 264 79 q 95 311 132 217 q 58 515 58 406 q 95 718 58 626 q 198 874 132 810 q 353 974 264 939 q 549 1010 443 1010 l 794 1010 q 995 974 904 1010 q 1151 872 1086 938 q 1253 716 1217 807 q 1289 515 1289 625 q 1252 311 1289 406 q 1149 148 1215 217 q 993 40 1083 79 q 794 0 903 0 l 549 0 m 794 176 q 922 201 864 176 q 1023 270 981 226 q 1089 375 1065 314 q 1113 507 1113 436 q 1089 638 1113 578 q 1023 742 1065 699 q 922 809 981 785 q 794 833 864 833 l 549 833 q 423 809 481 833 q 324 742 365 785 q 258 639 282 699 q 235 507 235 579 q 258 375 235 436 q 324 270 282 314 q 423 201 365 226 q 549 176 481 176 l 794 176 m 536 1072 l 536 1151 l 892 1258 l 892 1149 l 536 1072 z "},"Ô":{"ha":1344,"x_min":58,"x_max":1289,"o":"m 58 0 m 549 0 q 353 40 443 0 q 198 148 264 79 q 95 311 132 217 q 58 515 58 406 q 95 718 58 626 q 198 874 132 810 q 353 974 264 939 q 549 1010 443 1010 l 794 1010 q 995 974 904 1010 q 1151 872 1086 938 q 1253 716 1217 807 q 1289 515 1289 625 q 1252 311 1289 406 q 1149 148 1215 217 q 993 40 1083 79 q 794 0 903 0 l 549 0 m 794 176 q 922 201 864 176 q 1023 270 981 226 q 1089 375 1065 314 q 1113 507 1113 436 q 1089 638 1113 578 q 1023 742 1065 699 q 922 809 981 785 q 794 833 864 833 l 549 833 q 423 809 481 833 q 324 742 365 785 q 258 639 282 699 q 235 507 235 579 q 258 375 235 436 q 324 270 282 314 q 423 201 365 226 q 549 176 481 176 l 794 176 m 764 1072 l 676 1207 l 665 1207 l 578 1072 l 482 1072 l 608 1258 l 735 1258 l 861 1072 l 764 1072 z "},"Õ":{"ha":1344,"x_min":58,"x_max":1289,"o":"m 58 0 m 549 0 q 353 40 443 0 q 198 148 264 79 q 95 311 132 217 q 58 515 58 406 q 95 718 58 626 q 198 874 132 810 q 353 974 264 939 q 549 1010 443 1010 l 794 1010 q 995 974 904 1010 q 1151 872 1086 938 q 1253 716 1217 807 q 1289 515 1289 625 q 1252 311 1289 406 q 1149 148 1215 217 q 993 40 1083 79 q 794 0 903 0 l 549 0 m 794 176 q 922 201 864 176 q 1023 270 981 226 q 1089 375 1065 314 q 1113 507 1113 436 q 1089 638 1113 578 q 1023 742 1065 699 q 922 809 981 785 q 794 833 864 833 l 549 833 q 423 809 481 833 q 324 742 365 785 q 258 639 282 699 q 235 507 235 579 q 258 375 235 436 q 324 270 282 314 q 423 201 365 226 q 549 176 481 176 l 794 176 m 850 1143 q 758 1103 818 1103 q 714 1111 735 1103 q 672 1130 693 1119 q 630 1149 651 1140 q 585 1157 608 1157 q 532 1142 557 1157 q 494 1108 507 1128 l 494 1190 q 533 1221 510 1210 q 585 1232 557 1232 q 630 1223 608 1232 q 672 1203 651 1214 q 714 1185 693 1193 q 758 1176 735 1176 q 811 1192 786 1176 q 850 1226 836 1207 l 850 1143 z "},"Ö":{"ha":1344,"x_min":58,"x_max":1289,"o":"m 58 0 m 549 0 q 353 40 443 0 q 198 148 264 79 q 95 311 132 217 q 58 515 58 406 q 95 718 58 626 q 198 874 132 810 q 353 974 264 939 q 549 1010 443 1010 l 794 1010 q 995 974 904 1010 q 1151 872 1086 938 q 1253 716 1217 807 q 1289 515 1289 625 q 1252 311 1289 406 q 1149 148 1215 217 q 993 40 1083 79 q 794 0 903 0 l 549 0 m 794 176 q 922 201 864 176 q 1023 270 981 226 q 1089 375 1065 314 q 1113 507 1113 436 q 1089 638 1113 578 q 1023 742 1065 699 q 922 809 981 785 q 794 833 864 833 l 549 833 q 423 809 481 833 q 324 742 365 785 q 258 639 282 699 q 235 507 235 579 q 258 375 235 436 q 324 270 282 314 q 423 201 365 226 q 549 176 481 176 l 794 176 m 614 1178 q 594 1132 614 1149 q 544 1115 574 1115 q 492 1132 513 1115 q 472 1178 472 1149 q 492 1224 472 1207 q 544 1240 513 1240 q 594 1224 574 1240 q 614 1178 614 1207 m 871 1178 q 851 1132 871 1149 q 800 1115 831 1115 q 749 1132 769 1115 q 729 1178 729 1149 q 749 1224 729 1207 q 800 1240 769 1240 q 851 1224 831 1240 q 871 1178 871 1207 z "},"×":{"ha":958,"x_min":160,"x_max":799,"o":"m 715 194 l 478 431 l 243 196 l 160 278 l 396 514 l 160 749 l 243 833 l 479 597 l 714 832 l 796 749 l 561 514 l 799 278 l 715 194 z "},"Ø":{"ha":1344,"x_min":58,"x_max":1289,"o":"m 549 0 q 438 12 490 0 q 339 46 386 24 l 242 -69 l 189 -24 l 276 81 q 117 261 176 149 q 58 515 58 374 q 95 718 58 626 q 198 874 132 810 q 353 974 264 939 q 549 1010 443 1010 l 794 1010 q 916 997 858 1010 q 1024 961 974 985 l 1122 1078 l 1175 1032 l 1085 926 q 1235 756 1181 861 q 1289 515 1289 650 q 1252 311 1289 406 q 1149 148 1215 217 q 993 40 1083 79 q 794 0 903 0 l 549 0 m 901 817 q 849 828 876 824 q 794 833 822 833 l 549 833 q 423 809 481 833 q 324 742 365 785 q 258 639 282 699 q 235 507 235 579 q 277 333 235 408 q 392 217 319 257 l 901 817 m 794 176 q 922 201 864 176 q 1023 270 981 226 q 1089 375 1065 314 q 1113 507 1113 436 q 1074 672 1113 600 q 967 786 1035 744 l 460 188 q 549 176 504 176 l 794 176 z "},"Ù":{"ha":1235,"x_min":72,"x_max":1163,"o":"m 72 0 m 990 1010 l 1163 1010 l 1163 446 q 1132 242 1163 329 q 1036 99 1101 156 q 867 14 971 42 q 617 -14 764 -14 q 367 14 471 -14 q 199 99 264 42 q 103 242 133 156 q 72 446 72 329 l 72 1010 l 254 1010 l 254 446 q 273 315 254 369 q 334 226 292 261 q 447 176 376 192 q 622 160 518 160 q 797 176 726 160 q 910 226 868 192 q 972 315 953 261 q 990 446 990 369 l 990 1010 m 397 1149 l 397 1258 l 753 1151 l 753 1072 l 397 1149 z "},"Ú":{"ha":1235,"x_min":72,"x_max":1163,"o":"m 72 0 m 990 1010 l 1163 1010 l 1163 446 q 1132 242 1163 329 q 1036 99 1101 156 q 867 14 971 42 q 617 -14 764 -14 q 367 14 471 -14 q 199 99 264 42 q 103 242 133 156 q 72 446 72 329 l 72 1010 l 254 1010 l 254 446 q 273 315 254 369 q 334 226 292 261 q 447 176 376 192 q 622 160 518 160 q 797 176 726 160 q 910 226 868 192 q 972 315 953 261 q 990 446 990 369 l 990 1010 m 481 1072 l 481 1151 l 836 1258 l 836 1149 l 481 1072 z "},"Û":{"ha":1235,"x_min":72,"x_max":1163,"o":"m 72 0 m 990 1010 l 1163 1010 l 1163 446 q 1132 242 1163 329 q 1036 99 1101 156 q 867 14 971 42 q 617 -14 764 -14 q 367 14 471 -14 q 199 99 264 42 q 103 242 133 156 q 72 446 72 329 l 72 1010 l 254 1010 l 254 446 q 273 315 254 369 q 334 226 292 261 q 447 176 376 192 q 622 160 518 160 q 797 176 726 160 q 910 226 868 192 q 972 315 953 261 q 990 446 990 369 l 990 1010 m 710 1072 l 622 1207 l 611 1207 l 524 1072 l 428 1072 l 554 1258 l 681 1258 l 807 1072 l 710 1072 z "},"Ü":{"ha":1235,"x_min":72,"x_max":1163,"o":"m 72 0 m 990 1010 l 1163 1010 l 1163 446 q 1132 242 1163 329 q 1036 99 1101 156 q 867 14 971 42 q 617 -14 764 -14 q 367 14 471 -14 q 199 99 264 42 q 103 242 133 156 q 72 446 72 329 l 72 1010 l 254 1010 l 254 446 q 273 315 254 369 q 334 226 292 261 q 447 176 376 192 q 622 160 518 160 q 797 176 726 160 q 910 226 868 192 q 972 315 953 261 q 990 446 990 369 l 990 1010 m 560 1178 q 540 1132 560 1149 q 490 1115 519 1115 q 438 1132 458 1115 q 418 1178 418 1149 q 438 1224 418 1207 q 490 1240 458 1240 q 540 1224 519 1240 q 560 1178 560 1207 m 817 1178 q 797 1132 817 1149 q 746 1115 776 1115 q 695 1132 715 1115 q 675 1178 675 1149 q 695 1224 675 1207 q 746 1240 715 1240 q 797 1224 776 1240 q 817 1178 817 1207 z "},"Ý":{"ha":1286,"x_min":18,"x_max":1268,"o":"m 18 0 m 554 0 l 554 383 l 18 1010 l 256 1010 l 649 544 l 1043 1010 l 1268 1010 l 731 383 l 731 0 l 554 0 m 513 1072 l 513 1151 l 868 1258 l 868 1149 l 513 1072 z "},"Þ":{"ha":1171,"x_min":88,"x_max":1131,"o":"m 392 126 l 392 296 l 756 296 q 904 351 851 296 q 957 497 957 406 q 904 641 957 589 q 756 693 851 693 l 263 693 l 263 0 l 88 0 l 88 1010 l 263 1010 l 263 869 l 756 869 q 913 844 843 869 q 1031 770 983 818 q 1105 654 1079 722 q 1131 503 1131 586 q 1105 349 1131 418 q 1031 230 1079 279 q 913 153 983 181 q 756 126 843 126 l 392 126 z "},"ß":{"ha":2444,"x_min":72,"x_max":2381,"o":"m 72 0 m 88 0 l 88 176 l 844 176 q 953 213 915 176 q 992 308 992 249 q 953 406 992 374 q 844 439 915 439 l 381 439 q 252 460 310 439 q 155 520 194 482 q 94 611 115 558 q 72 726 72 664 q 92 840 72 788 q 152 929 113 892 q 250 988 192 967 q 383 1010 308 1010 l 1108 1010 l 1108 833 l 383 833 q 289 801 322 833 q 256 710 256 768 q 290 619 256 651 q 382 588 324 588 l 844 588 q 1078 515 999 588 q 1158 296 1158 443 q 1139 178 1158 232 q 1081 84 1119 124 q 983 22 1042 44 q 844 0 924 0 l 88 0 m 1310 0 l 1310 176 l 2067 176 q 2176 213 2138 176 q 2214 308 2214 249 q 2176 406 2214 374 q 2067 439 2138 439 l 1603 439 q 1474 460 1532 439 q 1377 520 1417 482 q 1316 611 1338 558 q 1294 726 1294 664 q 1315 840 1294 788 q 1374 929 1335 892 q 1472 988 1414 967 q 1606 1010 1531 1010 l 2331 1010 l 2331 833 l 1606 833 q 1511 801 1544 833 q 1478 710 1478 768 q 1512 619 1478 651 q 1604 588 1546 588 l 2067 588 q 2301 515 2221 588 q 2381 296 2381 443 q 2361 178 2381 232 q 2303 84 2342 124 q 2205 22 2264 44 q 2067 0 2146 0 l 1310 0 z "},"à":{"ha":1374,"x_min":19,"x_max":1353,"o":"m 19 0 m 1140 0 l 989 254 l 511 254 l 594 397 l 904 397 l 679 775 l 221 0 l 19 0 l 600 967 q 636 1008 615 993 q 686 1024 657 1024 q 735 1008 715 1024 q 771 967 756 993 l 1353 0 l 1140 0 m 467 1149 l 467 1258 l 822 1151 l 822 1072 l 467 1149 z "},"á":{"ha":1374,"x_min":19,"x_max":1353,"o":"m 19 0 m 1140 0 l 989 254 l 511 254 l 594 397 l 904 397 l 679 775 l 221 0 l 19 0 l 600 967 q 636 1008 615 993 q 686 1024 657 1024 q 735 1008 715 1024 q 771 967 756 993 l 1353 0 l 1140 0 m 550 1072 l 550 1151 l 906 1258 l 906 1149 l 550 1072 z "},"â":{"ha":1374,"x_min":19,"x_max":1353,"o":"m 19 0 m 1140 0 l 989 254 l 511 254 l 594 397 l 904 397 l 679 775 l 221 0 l 19 0 l 600 967 q 636 1008 615 993 q 686 1024 657 1024 q 735 1008 715 1024 q 771 967 756 993 l 1353 0 l 1140 0 m 779 1072 l 692 1207 l 681 1207 l 593 1072 l 497 1072 l 624 1258 l 750 1258 l 876 1072 l 779 1072 z "},"ã":{"ha":1374,"x_min":19,"x_max":1353,"o":"m 19 0 m 1140 0 l 989 254 l 511 254 l 594 397 l 904 397 l 679 775 l 221 0 l 19 0 l 600 967 q 636 1008 615 993 q 686 1024 657 1024 q 735 1008 715 1024 q 771 967 756 993 l 1353 0 l 1140 0 m 864 1143 q 772 1103 832 1103 q 728 1111 749 1103 q 686 1130 707 1119 q 644 1149 665 1140 q 599 1157 622 1157 q 546 1142 571 1157 q 508 1108 521 1128 l 508 1190 q 547 1221 524 1210 q 599 1232 571 1232 q 644 1223 622 1232 q 686 1203 665 1214 q 728 1185 707 1193 q 772 1176 749 1176 q 825 1192 800 1176 q 864 1226 850 1207 l 864 1143 z "},"ä":{"ha":1374,"x_min":19,"x_max":1353,"o":"m 19 0 m 1140 0 l 989 254 l 511 254 l 594 397 l 904 397 l 679 775 l 221 0 l 19 0 l 600 967 q 636 1008 615 993 q 686 1024 657 1024 q 735 1008 715 1024 q 771 967 756 993 l 1353 0 l 1140 0 m 629 1178 q 609 1132 629 1149 q 560 1115 589 1115 q 508 1132 528 1115 q 488 1178 488 1149 q 508 1224 488 1207 q 560 1240 528 1240 q 609 1224 589 1240 q 629 1178 629 1207 m 886 1178 q 866 1132 886 1149 q 815 1115 846 1115 q 765 1132 785 1115 q 744 1178 744 1149 q 765 1224 744 1207 q 815 1240 785 1240 q 866 1224 846 1240 q 886 1178 886 1207 z "},"å":{"ha":1374,"x_min":19,"x_max":1353,"o":"m 19 0 m 1140 0 l 989 254 l 511 254 l 594 397 l 904 397 l 679 775 l 221 0 l 19 0 l 600 967 q 636 1008 615 993 q 686 1024 657 1024 q 735 1008 715 1024 q 771 967 756 993 l 1353 0 l 1140 0 m 650 1072 q 548 1113 588 1072 q 508 1215 508 1154 q 548 1316 508 1278 q 650 1354 588 1354 l 721 1354 q 824 1316 783 1354 q 864 1215 864 1278 q 824 1113 864 1154 q 721 1072 783 1072 l 650 1072 m 721 1124 q 786 1149 761 1124 q 811 1214 811 1175 q 786 1277 811 1253 q 721 1301 761 1301 l 650 1301 q 586 1277 611 1301 q 561 1214 561 1253 q 585 1149 561 1175 q 650 1124 610 1124 l 721 1124 z "},"æ":{"ha":1868,"x_min":19,"x_max":1804,"o":"m 19 0 m 958 0 l 958 246 l 500 246 l 586 392 l 958 392 l 958 833 l 693 833 l 218 0 l 19 0 l 572 950 q 610 994 589 978 q 660 1010 631 1010 l 1801 1010 l 1801 833 l 1133 833 l 1133 176 l 1804 176 l 1804 0 l 958 0 m 1263 439 l 1263 588 l 1764 588 l 1764 439 l 1263 439 z "},"ç":{"ha":1151,"x_min":58,"x_max":1096,"o":"m 58 0 m 549 0 q 353 40 443 0 q 198 148 264 79 q 95 311 132 217 q 58 515 58 406 q 95 718 58 626 q 198 874 132 810 q 353 974 264 939 q 549 1010 443 1010 l 1096 1010 l 1096 833 l 549 833 q 423 809 481 833 q 324 742 365 785 q 258 639 282 699 q 235 507 235 579 q 258 375 235 436 q 324 270 282 314 q 423 201 365 226 q 549 176 481 176 l 1096 176 l 1096 0 l 549 0 m 511 -65 l 696 -65 l 603 -279 l 511 -65 z "},"è":{"ha":1054,"x_min":88,"x_max":990,"o":"m 88 0 m 88 0 l 88 1010 l 989 1010 l 989 833 l 263 833 l 263 176 l 990 176 l 990 0 l 88 0 m 392 439 l 392 588 l 951 588 l 951 439 l 392 439 m 307 1149 l 307 1258 l 663 1151 l 663 1072 l 307 1149 z "},"é":{"ha":1054,"x_min":88,"x_max":990,"o":"m 88 0 m 88 0 l 88 1010 l 989 1010 l 989 833 l 263 833 l 263 176 l 990 176 l 990 0 l 88 0 m 392 439 l 392 588 l 951 588 l 951 439 l 392 439 m 390 1072 l 390 1151 l 746 1258 l 746 1149 l 390 1072 z "},"ê":{"ha":1054,"x_min":88,"x_max":990,"o":"m 88 0 m 88 0 l 88 1010 l 989 1010 l 989 833 l 263 833 l 263 176 l 990 176 l 990 0 l 88 0 m 392 439 l 392 588 l 951 588 l 951 439 l 392 439 m 619 1072 l 532 1207 l 521 1207 l 433 1072 l 338 1072 l 464 1258 l 590 1258 l 717 1072 l 619 1072 z "},"ë":{"ha":1054,"x_min":88,"x_max":990,"o":"m 88 0 m 88 0 l 88 1010 l 989 1010 l 989 833 l 263 833 l 263 176 l 990 176 l 990 0 l 88 0 m 392 439 l 392 588 l 951 588 l 951 439 l 392 439 m 469 1178 q 449 1132 469 1149 q 400 1115 429 1115 q 348 1132 368 1115 q 328 1178 328 1149 q 348 1224 328 1207 q 400 1240 368 1240 q 449 1224 429 1240 q 469 1178 469 1207 m 726 1178 q 706 1132 726 1149 q 656 1115 686 1115 q 605 1132 625 1115 q 585 1178 585 1149 q 605 1224 585 1207 q 656 1240 625 1240 q 706 1224 686 1240 q 726 1178 726 1207 z "},"ì":{"ha":371,"x_min":-32,"x_max":324,"o":"m 0 0 m 97 0 l 97 1010 l 274 1010 l 274 0 l 97 0 m -32 1149 l -32 1258 l 324 1151 l 324 1072 l -32 1149 z "},"í":{"ha":371,"x_min":51,"x_max":407,"o":"m 51 0 m 97 0 l 97 1010 l 274 1010 l 274 0 l 97 0 m 51 1072 l 51 1151 l 407 1258 l 407 1149 l 51 1072 z "},"î":{"ha":371,"x_min":-3,"x_max":376,"o":"m 0 0 m 97 0 l 97 1010 l 274 1010 l 274 0 l 97 0 m 279 1072 l 192 1207 l 181 1207 l 93 1072 l -3 1072 l 124 1258 l 250 1258 l 376 1072 l 279 1072 z "},"ï":{"ha":371,"x_min":-12,"x_max":386,"o":"m 0 0 m 97 0 l 97 1010 l 274 1010 l 274 0 l 97 0 m 129 1178 q 109 1132 129 1149 q 60 1115 89 1115 q 8 1132 28 1115 q -12 1178 -12 1149 q 8 1224 -12 1207 q 60 1240 28 1240 q 109 1224 89 1240 q 129 1178 129 1207 m 386 1178 q 366 1132 386 1149 q 315 1115 346 1115 q 265 1132 285 1115 q 244 1178 244 1149 q 265 1224 244 1207 q 315 1240 285 1240 q 366 1224 346 1240 q 386 1178 386 1207 z "},"ð":{"ha":1218,"x_min":14,"x_max":1163,"o":"m 14 0 m 85 0 l 85 439 l 14 439 l 14 588 l 85 588 l 85 1010 l 669 1010 q 867 974 776 1010 q 1023 872 957 938 q 1126 716 1089 807 q 1163 515 1163 625 q 1126 311 1163 406 q 1023 148 1089 217 q 867 40 957 79 q 669 0 776 0 l 85 0 m 260 439 l 260 176 l 669 176 q 795 201 738 176 q 895 270 853 226 q 961 375 938 314 q 985 507 985 436 q 961 638 985 578 q 895 742 938 699 q 795 809 853 785 q 669 833 738 833 l 260 833 l 260 588 l 657 588 l 657 439 l 260 439 z "},"ñ":{"ha":1213,"x_min":83,"x_max":1129,"o":"m 83 0 m 251 739 l 251 0 l 83 0 l 83 917 q 108 994 83 965 q 174 1022 132 1022 q 211 1014 193 1022 q 249 986 229 1006 l 961 279 l 961 1018 l 1129 1018 l 1129 93 q 1105 15 1129 43 q 1042 -12 1081 -12 q 961 25 999 -12 l 251 739 m 783 1143 q 692 1103 751 1103 q 647 1111 668 1103 q 606 1130 626 1119 q 563 1149 585 1140 q 518 1157 542 1157 q 465 1142 490 1157 q 428 1108 440 1128 l 428 1190 q 467 1221 443 1210 q 518 1232 490 1232 q 563 1223 542 1232 q 606 1203 585 1214 q 647 1185 626 1193 q 692 1176 668 1176 q 744 1192 719 1176 q 783 1226 769 1207 l 783 1143 z "},"ò":{"ha":1344,"x_min":58,"x_max":1289,"o":"m 58 0 m 549 0 q 353 40 443 0 q 198 148 264 79 q 95 311 132 217 q 58 515 58 406 q 95 718 58 626 q 198 874 132 810 q 353 974 264 939 q 549 1010 443 1010 l 794 1010 q 995 974 904 1010 q 1151 872 1086 938 q 1253 716 1217 807 q 1289 515 1289 625 q 1252 311 1289 406 q 1149 148 1215 217 q 993 40 1083 79 q 794 0 903 0 l 549 0 m 794 176 q 922 201 864 176 q 1023 270 981 226 q 1089 375 1065 314 q 1113 507 1113 436 q 1089 638 1113 578 q 1023 742 1065 699 q 922 809 981 785 q 794 833 864 833 l 549 833 q 423 809 481 833 q 324 742 365 785 q 258 639 282 699 q 235 507 235 579 q 258 375 235 436 q 324 270 282 314 q 423 201 365 226 q 549 176 481 176 l 794 176 m 453 1149 l 453 1258 l 808 1151 l 808 1072 l 453 1149 z "},"ó":{"ha":1344,"x_min":58,"x_max":1289,"o":"m 58 0 m 549 0 q 353 40 443 0 q 198 148 264 79 q 95 311 132 217 q 58 515 58 406 q 95 718 58 626 q 198 874 132 810 q 353 974 264 939 q 549 1010 443 1010 l 794 1010 q 995 974 904 1010 q 1151 872 1086 938 q 1253 716 1217 807 q 1289 515 1289 625 q 1252 311 1289 406 q 1149 148 1215 217 q 993 40 1083 79 q 794 0 903 0 l 549 0 m 794 176 q 922 201 864 176 q 1023 270 981 226 q 1089 375 1065 314 q 1113 507 1113 436 q 1089 638 1113 578 q 1023 742 1065 699 q 922 809 981 785 q 794 833 864 833 l 549 833 q 423 809 481 833 q 324 742 365 785 q 258 639 282 699 q 235 507 235 579 q 258 375 235 436 q 324 270 282 314 q 423 201 365 226 q 549 176 481 176 l 794 176 m 536 1072 l 536 1151 l 892 1258 l 892 1149 l 536 1072 z "},"ô":{"ha":1344,"x_min":58,"x_max":1289,"o":"m 58 0 m 549 0 q 353 40 443 0 q 198 148 264 79 q 95 311 132 217 q 58 515 58 406 q 95 718 58 626 q 198 874 132 810 q 353 974 264 939 q 549 1010 443 1010 l 794 1010 q 995 974 904 1010 q 1151 872 1086 938 q 1253 716 1217 807 q 1289 515 1289 625 q 1252 311 1289 406 q 1149 148 1215 217 q 993 40 1083 79 q 794 0 903 0 l 549 0 m 794 176 q 922 201 864 176 q 1023 270 981 226 q 1089 375 1065 314 q 1113 507 1113 436 q 1089 638 1113 578 q 1023 742 1065 699 q 922 809 981 785 q 794 833 864 833 l 549 833 q 423 809 481 833 q 324 742 365 785 q 258 639 282 699 q 235 507 235 579 q 258 375 235 436 q 324 270 282 314 q 423 201 365 226 q 549 176 481 176 l 794 176 m 764 1072 l 676 1207 l 665 1207 l 578 1072 l 482 1072 l 608 1258 l 735 1258 l 861 1072 l 764 1072 z "},"õ":{"ha":1344,"x_min":58,"x_max":1289,"o":"m 58 0 m 549 0 q 353 40 443 0 q 198 148 264 79 q 95 311 132 217 q 58 515 58 406 q 95 718 58 626 q 198 874 132 810 q 353 974 264 939 q 549 1010 443 1010 l 794 1010 q 995 974 904 1010 q 1151 872 1086 938 q 1253 716 1217 807 q 1289 515 1289 625 q 1252 311 1289 406 q 1149 148 1215 217 q 993 40 1083 79 q 794 0 903 0 l 549 0 m 794 176 q 922 201 864 176 q 1023 270 981 226 q 1089 375 1065 314 q 1113 507 1113 436 q 1089 638 1113 578 q 1023 742 1065 699 q 922 809 981 785 q 794 833 864 833 l 549 833 q 423 809 481 833 q 324 742 365 785 q 258 639 282 699 q 235 507 235 579 q 258 375 235 436 q 324 270 282 314 q 423 201 365 226 q 549 176 481 176 l 794 176 m 850 1143 q 758 1103 818 1103 q 714 1111 735 1103 q 672 1130 693 1119 q 630 1149 651 1140 q 585 1157 608 1157 q 532 1142 557 1157 q 494 1108 507 1128 l 494 1190 q 533 1221 510 1210 q 585 1232 557 1232 q 630 1223 608 1232 q 672 1203 651 1214 q 714 1185 693 1193 q 758 1176 735 1176 q 811 1192 786 1176 q 850 1226 836 1207 l 850 1143 z "},"ö":{"ha":1344,"x_min":58,"x_max":1289,"o":"m 58 0 m 549 0 q 353 40 443 0 q 198 148 264 79 q 95 311 132 217 q 58 515 58 406 q 95 718 58 626 q 198 874 132 810 q 353 974 264 939 q 549 1010 443 1010 l 794 1010 q 995 974 904 1010 q 1151 872 1086 938 q 1253 716 1217 807 q 1289 515 1289 625 q 1252 311 1289 406 q 1149 148 1215 217 q 993 40 1083 79 q 794 0 903 0 l 549 0 m 794 176 q 922 201 864 176 q 1023 270 981 226 q 1089 375 1065 314 q 1113 507 1113 436 q 1089 638 1113 578 q 1023 742 1065 699 q 922 809 981 785 q 794 833 864 833 l 549 833 q 423 809 481 833 q 324 742 365 785 q 258 639 282 699 q 235 507 235 579 q 258 375 235 436 q 324 270 282 314 q 423 201 365 226 q 549 176 481 176 l 794 176 m 614 1178 q 594 1132 614 1149 q 544 1115 574 1115 q 492 1132 513 1115 q 472 1178 472 1149 q 492 1224 472 1207 q 544 1240 513 1240 q 594 1224 574 1240 q 614 1178 614 1207 m 871 1178 q 851 1132 871 1149 q 800 1115 831 1115 q 749 1132 769 1115 q 729 1178 729 1149 q 749 1224 729 1207 q 800 1240 769 1240 q 851 1224 831 1240 q 871 1178 871 1207 z "},"÷":{"ha":958,"x_min":88,"x_max":871,"o":"m 88 44 m 88 456 l 88 572 l 871 572 l 871 456 l 88 456 m 574 875 q 546 808 574 835 q 478 781 518 781 q 411 808 438 781 q 385 875 385 835 q 411 942 385 915 q 478 969 438 969 q 546 942 518 969 q 574 875 574 915 m 574 139 q 546 72 574 99 q 478 44 518 44 q 411 72 438 44 q 385 139 385 99 q 411 206 385 179 q 478 233 438 233 q 546 206 518 233 q 574 139 574 179 z "},"ø":{"ha":1344,"x_min":58,"x_max":1289,"o":"m 58 0 m 549 0 q 438 12 490 0 q 339 46 386 24 l 242 -69 l 189 -24 l 276 81 q 117 261 176 149 q 58 515 58 374 q 95 718 58 626 q 198 874 132 810 q 353 974 264 939 q 549 1010 443 1010 l 794 1010 q 916 997 858 1010 q 1024 961 974 985 l 1122 1078 l 1175 1032 l 1085 926 q 1235 756 1181 861 q 1289 515 1289 650 q 1252 311 1289 406 q 1149 148 1215 217 q 993 40 1083 79 q 794 0 903 0 l 549 0 m 901 817 q 849 828 876 824 q 794 833 822 833 l 549 833 q 423 809 481 833 q 324 742 365 785 q 258 639 282 699 q 235 507 235 579 q 277 333 235 408 q 392 217 319 257 l 901 817 m 794 176 q 922 201 864 176 q 1023 270 981 226 q 1089 375 1065 314 q 1113 507 1113 436 q 1074 672 1113 600 q 967 786 1035 744 l 460 188 q 549 176 504 176 l 794 176 z "},"ù":{"ha":1235,"x_min":72,"x_max":1163,"o":"m 72 0 m 990 1010 l 1163 1010 l 1163 446 q 1132 242 1163 329 q 1036 99 1101 156 q 867 14 971 42 q 617 -14 764 -14 q 367 14 471 -14 q 199 99 264 42 q 103 242 133 156 q 72 446 72 329 l 72 1010 l 254 1010 l 254 446 q 273 315 254 369 q 334 226 292 261 q 447 176 376 192 q 622 160 518 160 q 797 176 726 160 q 910 226 868 192 q 972 315 953 261 q 990 446 990 369 l 990 1010 m 397 1149 l 397 1258 l 753 1151 l 753 1072 l 397 1149 z "},"ú":{"ha":1235,"x_min":72,"x_max":1163,"o":"m 72 0 m 990 1010 l 1163 1010 l 1163 446 q 1132 242 1163 329 q 1036 99 1101 156 q 867 14 971 42 q 617 -14 764 -14 q 367 14 471 -14 q 199 99 264 42 q 103 242 133 156 q 72 446 72 329 l 72 1010 l 254 1010 l 254 446 q 273 315 254 369 q 334 226 292 261 q 447 176 376 192 q 622 160 518 160 q 797 176 726 160 q 910 226 868 192 q 972 315 953 261 q 990 446 990 369 l 990 1010 m 481 1072 l 481 1151 l 836 1258 l 836 1149 l 481 1072 z "},"û":{"ha":1235,"x_min":72,"x_max":1163,"o":"m 72 0 m 990 1010 l 1163 1010 l 1163 446 q 1132 242 1163 329 q 1036 99 1101 156 q 867 14 971 42 q 617 -14 764 -14 q 367 14 471 -14 q 199 99 264 42 q 103 242 133 156 q 72 446 72 329 l 72 1010 l 254 1010 l 254 446 q 273 315 254 369 q 334 226 292 261 q 447 176 376 192 q 622 160 518 160 q 797 176 726 160 q 910 226 868 192 q 972 315 953 261 q 990 446 990 369 l 990 1010 m 710 1072 l 622 1207 l 611 1207 l 524 1072 l 428 1072 l 554 1258 l 681 1258 l 807 1072 l 710 1072 z "},"ü":{"ha":1235,"x_min":72,"x_max":1163,"o":"m 72 0 m 990 1010 l 1163 1010 l 1163 446 q 1132 242 1163 329 q 1036 99 1101 156 q 867 14 971 42 q 617 -14 764 -14 q 367 14 471 -14 q 199 99 264 42 q 103 242 133 156 q 72 446 72 329 l 72 1010 l 254 1010 l 254 446 q 273 315 254 369 q 334 226 292 261 q 447 176 376 192 q 622 160 518 160 q 797 176 726 160 q 910 226 868 192 q 972 315 953 261 q 990 446 990 369 l 990 1010 m 560 1178 q 540 1132 560 1149 q 490 1115 519 1115 q 438 1132 458 1115 q 418 1178 418 1149 q 438 1224 418 1207 q 490 1240 458 1240 q 540 1224 519 1240 q 560 1178 560 1207 m 817 1178 q 797 1132 817 1149 q 746 1115 776 1115 q 695 1132 715 1115 q 675 1178 675 1149 q 695 1224 675 1207 q 746 1240 715 1240 q 797 1224 776 1240 q 817 1178 817 1207 z "},"ý":{"ha":1286,"x_min":18,"x_max":1268,"o":"m 18 0 m 554 0 l 554 383 l 18 1010 l 256 1010 l 649 544 l 1043 1010 l 1268 1010 l 731 383 l 731 0 l 554 0 m 513 1072 l 513 1151 l 868 1258 l 868 1149 l 513 1072 z "},"þ":{"ha":1171,"x_min":88,"x_max":1131,"o":"m 88 0 m 392 126 l 392 296 l 756 296 q 904 351 851 296 q 957 497 957 406 q 904 641 957 589 q 756 693 851 693 l 263 693 l 263 0 l 88 0 l 88 1010 l 263 1010 l 263 869 l 756 869 q 913 844 843 869 q 1031 770 983 818 q 1105 654 1079 722 q 1131 503 1131 586 q 1105 349 1131 418 q 1031 230 1079 279 q 913 153 983 181 q 756 126 843 126 l 392 126 z "},"ÿ":{"ha":1286,"x_min":18,"x_max":1268,"o":"m 18 0 m 554 0 l 554 383 l 18 1010 l 256 1010 l 649 544 l 1043 1010 l 1268 1010 l 731 383 l 731 0 l 554 0 m 590 1178 q 570 1132 590 1149 q 521 1115 550 1115 q 469 1132 489 1115 q 449 1178 449 1149 q 469 1224 449 1207 q 521 1240 489 1240 q 570 1224 550 1240 q 590 1178 590 1207 m 847 1178 q 827 1132 847 1149 q 776 1115 807 1115 q 726 1132 746 1115 q 706 1178 706 1149 q 726 1224 706 1207 q 776 1240 746 1240 q 827 1224 807 1240 q 847 1178 847 1207 z "},"Ā":{"ha":1374,"x_min":19,"x_max":1353,"o":"m 19 0 m 1140 0 l 989 254 l 511 254 l 594 397 l 904 397 l 679 775 l 221 0 l 19 0 l 600 967 q 636 1008 615 993 q 686 1024 657 1024 q 735 1008 715 1024 q 771 967 756 993 l 1353 0 l 1140 0 m 508 1128 l 508 1208 l 864 1208 l 864 1128 l 508 1128 z "},"ā":{"ha":1374,"x_min":19,"x_max":1353,"o":"m 19 0 m 1140 0 l 989 254 l 511 254 l 594 397 l 904 397 l 679 775 l 221 0 l 19 0 l 600 967 q 636 1008 615 993 q 686 1024 657 1024 q 735 1008 715 1024 q 771 967 756 993 l 1353 0 l 1140 0 m 508 1128 l 508 1208 l 864 1208 l 864 1128 l 508 1128 z "},"Ă":{"ha":1374,"x_min":19,"x_max":1353,"o":"m 19 0 m 1140 0 l 989 254 l 511 254 l 594 397 l 904 397 l 679 775 l 221 0 l 19 0 l 600 967 q 636 1008 615 993 q 686 1024 657 1024 q 735 1008 715 1024 q 771 967 756 993 l 1353 0 l 1140 0 m 649 1072 q 576 1092 606 1072 q 529 1142 547 1113 q 503 1203 511 1171 q 494 1258 494 1235 l 589 1258 q 594 1219 589 1240 q 608 1178 599 1197 q 633 1145 618 1158 q 672 1132 649 1132 l 706 1132 q 743 1145 728 1132 q 767 1178 758 1158 q 778 1219 775 1197 q 782 1258 782 1240 l 878 1258 q 870 1203 878 1235 q 844 1142 863 1171 q 797 1092 826 1113 q 725 1072 768 1072 l 649 1072 z "},"ă":{"ha":1374,"x_min":19,"x_max":1353,"o":"m 19 0 m 1140 0 l 989 254 l 511 254 l 594 397 l 904 397 l 679 775 l 221 0 l 19 0 l 600 967 q 636 1008 615 993 q 686 1024 657 1024 q 735 1008 715 1024 q 771 967 756 993 l 1353 0 l 1140 0 m 649 1072 q 576 1092 606 1072 q 529 1142 547 1113 q 503 1203 511 1171 q 494 1258 494 1235 l 589 1258 q 594 1219 589 1240 q 608 1178 599 1197 q 633 1145 618 1158 q 672 1132 649 1132 l 706 1132 q 743 1145 728 1132 q 767 1178 758 1158 q 778 1219 775 1197 q 782 1258 782 1240 l 878 1258 q 870 1203 878 1235 q 844 1142 863 1171 q 797 1092 826 1113 q 725 1072 768 1072 l 649 1072 z "},"Ą":{"ha":1374,"x_min":19,"x_max":1353,"o":"m 1235 -279 q 1126 -251 1163 -279 q 1090 -176 1090 -224 q 1106 -121 1090 -144 q 1146 -82 1122 -97 l 1271 0 l 1140 0 l 989 254 l 511 254 l 594 397 l 904 397 l 679 775 l 221 0 l 19 0 l 600 967 q 636 1008 615 993 q 686 1024 657 1024 q 735 1008 715 1024 q 771 967 756 993 l 1353 0 l 1226 -85 q 1203 -106 1211 -96 q 1194 -129 1194 -115 q 1239 -164 1194 -164 l 1353 -164 l 1353 -279 l 1235 -279 z "},"ą":{"ha":1374,"x_min":19,"x_max":1353,"o":"m 19 0 m 1235 -279 q 1126 -251 1163 -279 q 1090 -176 1090 -224 q 1106 -121 1090 -144 q 1146 -82 1122 -97 l 1271 0 l 1140 0 l 989 254 l 511 254 l 594 397 l 904 397 l 679 775 l 221 0 l 19 0 l 600 967 q 636 1008 615 993 q 686 1024 657 1024 q 735 1008 715 1024 q 771 967 756 993 l 1353 0 l 1226 -85 q 1203 -106 1211 -96 q 1194 -129 1194 -115 q 1239 -164 1194 -164 l 1353 -164 l 1353 -279 l 1235 -279 z "},"Ć":{"ha":1151,"x_min":58,"x_max":1096,"o":"m 58 0 m 549 0 q 353 40 443 0 q 198 148 264 79 q 95 311 132 217 q 58 515 58 406 q 95 718 58 626 q 198 874 132 810 q 353 974 264 939 q 549 1010 443 1010 l 1096 1010 l 1096 833 l 549 833 q 423 809 481 833 q 324 742 365 785 q 258 639 282 699 q 235 507 235 579 q 258 375 235 436 q 324 270 282 314 q 423 201 365 226 q 549 176 481 176 l 1096 176 l 1096 0 l 549 0 m 508 1072 l 508 1151 l 864 1258 l 864 1149 l 508 1072 z "},"ć":{"ha":1151,"x_min":58,"x_max":1096,"o":"m 58 0 m 549 0 q 353 40 443 0 q 198 148 264 79 q 95 311 132 217 q 58 515 58 406 q 95 718 58 626 q 198 874 132 810 q 353 974 264 939 q 549 1010 443 1010 l 1096 1010 l 1096 833 l 549 833 q 423 809 481 833 q 324 742 365 785 q 258 639 282 699 q 235 507 235 579 q 258 375 235 436 q 324 270 282 314 q 423 201 365 226 q 549 176 481 176 l 1096 176 l 1096 0 l 549 0 m 508 1072 l 508 1151 l 864 1258 l 864 1149 l 508 1072 z "},"Ċ":{"ha":1151,"x_min":58,"x_max":1096,"o":"m 58 0 m 549 0 q 353 40 443 0 q 198 148 264 79 q 95 311 132 217 q 58 515 58 406 q 95 718 58 626 q 198 874 132 810 q 353 974 264 939 q 549 1010 443 1010 l 1096 1010 l 1096 833 l 549 833 q 423 809 481 833 q 324 742 365 785 q 258 639 282 699 q 235 507 235 579 q 258 375 235 436 q 324 270 282 314 q 423 201 365 226 q 549 176 481 176 l 1096 176 l 1096 0 l 549 0 m 729 1178 q 709 1132 729 1149 q 658 1115 689 1115 q 608 1132 628 1115 q 588 1178 588 1149 q 608 1224 588 1207 q 658 1240 628 1240 q 709 1224 689 1240 q 729 1178 729 1207 z "},"ċ":{"ha":1151,"x_min":58,"x_max":1096,"o":"m 58 0 m 549 0 q 353 40 443 0 q 198 148 264 79 q 95 311 132 217 q 58 515 58 406 q 95 718 58 626 q 198 874 132 810 q 353 974 264 939 q 549 1010 443 1010 l 1096 1010 l 1096 833 l 549 833 q 423 809 481 833 q 324 742 365 785 q 258 639 282 699 q 235 507 235 579 q 258 375 235 436 q 324 270 282 314 q 423 201 365 226 q 549 176 481 176 l 1096 176 l 1096 0 l 549 0 m 729 1178 q 709 1132 729 1149 q 658 1115 689 1115 q 608 1132 628 1115 q 588 1178 588 1149 q 608 1224 588 1207 q 658 1240 628 1240 q 709 1224 689 1240 q 729 1178 729 1207 z "},"Č":{"ha":1151,"x_min":58,"x_max":1096,"o":"m 58 0 m 549 0 q 353 40 443 0 q 198 148 264 79 q 95 311 132 217 q 58 515 58 406 q 95 718 58 626 q 198 874 132 810 q 353 974 264 939 q 549 1010 443 1010 l 1096 1010 l 1096 833 l 549 833 q 423 809 481 833 q 324 742 365 785 q 258 639 282 699 q 235 507 235 579 q 258 375 235 436 q 324 270 282 314 q 423 201 365 226 q 549 176 481 176 l 1096 176 l 1096 0 l 549 0 m 581 1072 l 456 1258 l 551 1258 l 639 1121 l 650 1121 l 738 1258 l 835 1258 l 707 1072 l 581 1072 z "},"č":{"ha":1151,"x_min":58,"x_max":1096,"o":"m 58 0 m 549 0 q 353 40 443 0 q 198 148 264 79 q 95 311 132 217 q 58 515 58 406 q 95 718 58 626 q 198 874 132 810 q 353 974 264 939 q 549 1010 443 1010 l 1096 1010 l 1096 833 l 549 833 q 423 809 481 833 q 324 742 365 785 q 258 639 282 699 q 235 507 235 579 q 258 375 235 436 q 324 270 282 314 q 423 201 365 226 q 549 176 481 176 l 1096 176 l 1096 0 l 549 0 m 581 1072 l 456 1258 l 551 1258 l 639 1121 l 650 1121 l 738 1258 l 835 1258 l 707 1072 l 581 1072 z "},"Ď":{"ha":1221,"x_min":88,"x_max":1164,"o":"m 88 0 m 88 0 l 88 1010 l 672 1010 q 869 974 779 1010 q 1025 872 960 938 q 1127 716 1090 807 q 1164 515 1164 625 q 1127 311 1164 406 q 1025 148 1090 217 q 869 40 960 79 q 672 0 779 0 l 88 0 m 672 176 q 798 201 740 176 q 898 270 856 226 q 964 375 940 314 q 988 507 988 436 q 964 638 988 578 q 898 742 940 699 q 798 809 856 785 q 672 833 740 833 l 263 833 l 263 176 l 672 176 m 490 1072 l 365 1258 l 461 1258 l 549 1121 l 560 1121 l 647 1258 l 744 1258 l 617 1072 l 490 1072 z "},"ď":{"ha":1221,"x_min":88,"x_max":1164,"o":"m 88 0 m 88 0 l 88 1010 l 672 1010 q 869 974 779 1010 q 1025 872 960 938 q 1127 716 1090 807 q 1164 515 1164 625 q 1127 311 1164 406 q 1025 148 1090 217 q 869 40 960 79 q 672 0 779 0 l 88 0 m 672 176 q 798 201 740 176 q 898 270 856 226 q 964 375 940 314 q 988 507 988 436 q 964 638 988 578 q 898 742 940 699 q 798 809 856 785 q 672 833 740 833 l 263 833 l 263 176 l 672 176 m 490 1072 l 365 1258 l 461 1258 l 549 1121 l 560 1121 l 647 1258 l 744 1258 l 617 1072 l 490 1072 z "},"Đ":{"ha":1218,"x_min":14,"x_max":1163,"o":"m 14 0 m 85 0 l 85 439 l 14 439 l 14 588 l 85 588 l 85 1010 l 669 1010 q 867 974 776 1010 q 1023 872 957 938 q 1126 716 1089 807 q 1163 515 1163 625 q 1126 311 1163 406 q 1023 148 1089 217 q 867 40 957 79 q 669 0 776 0 l 85 0 m 260 439 l 260 176 l 669 176 q 795 201 738 176 q 895 270 853 226 q 961 375 938 314 q 985 507 985 436 q 961 638 985 578 q 895 742 938 699 q 795 809 853 785 q 669 833 738 833 l 260 833 l 260 588 l 657 588 l 657 439 l 260 439 z "},"đ":{"ha":1218,"x_min":14,"x_max":1163,"o":"m 14 0 m 85 0 l 85 439 l 14 439 l 14 588 l 85 588 l 85 1010 l 669 1010 q 867 974 776 1010 q 1023 872 957 938 q 1126 716 1089 807 q 1163 515 1163 625 q 1126 311 1163 406 q 1023 148 1089 217 q 867 40 957 79 q 669 0 776 0 l 85 0 m 260 439 l 260 176 l 669 176 q 795 201 738 176 q 895 270 853 226 q 961 375 938 314 q 985 507 985 436 q 961 638 985 578 q 895 742 938 699 q 795 809 853 785 q 669 833 738 833 l 260 833 l 260 588 l 657 588 l 657 439 l 260 439 z "},"Ē":{"ha":1054,"x_min":88,"x_max":990,"o":"m 88 0 m 88 0 l 88 1010 l 989 1010 l 989 833 l 263 833 l 263 176 l 990 176 l 990 0 l 88 0 m 392 439 l 392 588 l 951 588 l 951 439 l 392 439 m 349 1128 l 349 1208 l 704 1208 l 704 1128 l 349 1128 z "},"ē":{"ha":1054,"x_min":88,"x_max":990,"o":"m 88 0 m 88 0 l 88 1010 l 989 1010 l 989 833 l 263 833 l 263 176 l 990 176 l 990 0 l 88 0 m 392 439 l 392 588 l 951 588 l 951 439 l 392 439 m 349 1128 l 349 1208 l 704 1208 l 704 1128 l 349 1128 z "},"Ĕ":{"ha":1054,"x_min":88,"x_max":990,"o":"m 88 0 m 88 0 l 88 1010 l 989 1010 l 989 833 l 263 833 l 263 176 l 990 176 l 990 0 l 88 0 m 392 439 l 392 588 l 951 588 l 951 439 l 392 439 m 489 1072 q 417 1092 446 1072 q 369 1142 388 1113 q 343 1203 351 1171 q 335 1258 335 1235 l 429 1258 q 434 1219 429 1240 q 449 1178 439 1197 q 474 1145 458 1158 q 513 1132 489 1132 l 546 1132 q 583 1145 568 1132 q 607 1178 599 1158 q 619 1219 615 1197 q 622 1258 622 1240 l 718 1258 q 710 1203 718 1235 q 685 1142 703 1171 q 638 1092 667 1113 q 565 1072 608 1072 l 489 1072 z "},"ĕ":{"ha":1054,"x_min":88,"x_max":990,"o":"m 88 0 m 88 0 l 88 1010 l 989 1010 l 989 833 l 263 833 l 263 176 l 990 176 l 990 0 l 88 0 m 392 439 l 392 588 l 951 588 l 951 439 l 392 439 m 489 1072 q 417 1092 446 1072 q 369 1142 388 1113 q 343 1203 351 1171 q 335 1258 335 1235 l 429 1258 q 434 1219 429 1240 q 449 1178 439 1197 q 474 1145 458 1158 q 513 1132 489 1132 l 546 1132 q 583 1145 568 1132 q 607 1178 599 1158 q 619 1219 615 1197 q 622 1258 622 1240 l 718 1258 q 710 1203 718 1235 q 685 1142 703 1171 q 638 1092 667 1113 q 565 1072 608 1072 l 489 1072 z "},"Ė":{"ha":1054,"x_min":88,"x_max":990,"o":"m 88 0 m 88 0 l 88 1010 l 989 1010 l 989 833 l 263 833 l 263 176 l 990 176 l 990 0 l 88 0 m 392 439 l 392 588 l 951 588 l 951 439 l 392 439 m 597 1178 q 577 1132 597 1149 q 526 1115 557 1115 q 476 1132 496 1115 q 456 1178 456 1149 q 476 1224 456 1207 q 526 1240 496 1240 q 577 1224 557 1240 q 597 1178 597 1207 z "},"ė":{"ha":1054,"x_min":88,"x_max":990,"o":"m 88 0 m 88 0 l 88 1010 l 989 1010 l 989 833 l 263 833 l 263 176 l 990 176 l 990 0 l 88 0 m 392 439 l 392 588 l 951 588 l 951 439 l 392 439 m 597 1178 q 577 1132 597 1149 q 526 1115 557 1115 q 476 1132 496 1115 q 456 1178 456 1149 q 476 1224 456 1207 q 526 1240 496 1240 q 577 1224 557 1240 q 597 1178 597 1207 z "},"Ę":{"ha":1054,"x_min":88,"x_max":990,"o":"m 872 -279 q 764 -251 800 -279 q 728 -176 728 -224 q 744 -121 728 -144 q 783 -82 760 -97 l 908 0 l 88 0 l 88 1010 l 989 1010 l 989 833 l 263 833 l 263 176 l 990 176 l 990 0 l 864 -85 q 840 -106 849 -96 q 832 -129 832 -115 q 876 -164 832 -164 l 990 -164 l 990 -279 l 872 -279 m 392 439 l 392 588 l 951 588 l 951 439 l 392 439 z "},"ę":{"ha":1054,"x_min":88,"x_max":990,"o":"m 88 0 m 872 -279 q 764 -251 800 -279 q 728 -176 728 -224 q 744 -121 728 -144 q 783 -82 760 -97 l 908 0 l 88 0 l 88 1010 l 989 1010 l 989 833 l 263 833 l 263 176 l 990 176 l 990 0 l 864 -85 q 840 -106 849 -96 q 832 -129 832 -115 q 876 -164 832 -164 l 990 -164 l 990 -279 l 872 -279 m 392 439 l 392 588 l 951 588 l 951 439 l 392 439 z "},"Ě":{"ha":1054,"x_min":88,"x_max":990,"o":"m 88 0 m 88 0 l 88 1010 l 989 1010 l 989 833 l 263 833 l 263 176 l 990 176 l 990 0 l 88 0 m 392 439 l 392 588 l 951 588 l 951 439 l 392 439 m 463 1072 l 338 1258 l 433 1258 l 521 1121 l 532 1121 l 619 1258 l 717 1258 l 589 1072 l 463 1072 z "},"ě":{"ha":1054,"x_min":88,"x_max":990,"o":"m 88 0 m 88 0 l 88 1010 l 989 1010 l 989 833 l 263 833 l 263 176 l 990 176 l 990 0 l 88 0 m 392 439 l 392 588 l 951 588 l 951 439 l 392 439 m 463 1072 l 338 1258 l 433 1258 l 521 1121 l 532 1121 l 619 1258 l 717 1258 l 589 1072 l 463 1072 z "},"Ğ":{"ha":1233,"x_min":58,"x_max":1158,"o":"m 58 0 m 549 0 q 353 40 443 0 q 198 148 264 79 q 95 311 132 217 q 58 515 58 406 q 95 718 58 626 q 198 874 132 810 q 353 974 264 939 q 549 1010 443 1010 l 1096 1010 l 1096 833 l 549 833 q 423 809 481 833 q 324 742 365 785 q 258 639 282 699 q 235 507 235 579 q 258 375 235 436 q 324 270 282 314 q 423 201 365 226 q 549 176 481 176 l 981 176 l 981 439 l 525 439 l 525 588 l 1158 588 l 1158 0 l 549 0 m 621 1072 q 549 1092 578 1072 q 501 1142 519 1113 q 475 1203 483 1171 q 467 1258 467 1235 l 561 1258 q 566 1219 561 1240 q 581 1178 571 1197 q 606 1145 590 1158 q 644 1132 621 1132 l 678 1132 q 715 1145 700 1132 q 739 1178 731 1158 q 751 1219 747 1197 q 754 1258 754 1240 l 850 1258 q 842 1203 850 1235 q 817 1142 835 1171 q 769 1092 799 1113 q 697 1072 740 1072 l 621 1072 z "},"ğ":{"ha":1233,"x_min":58,"x_max":1158,"o":"m 58 0 m 549 0 q 353 40 443 0 q 198 148 264 79 q 95 311 132 217 q 58 515 58 406 q 95 718 58 626 q 198 874 132 810 q 353 974 264 939 q 549 1010 443 1010 l 1096 1010 l 1096 833 l 549 833 q 423 809 481 833 q 324 742 365 785 q 258 639 282 699 q 235 507 235 579 q 258 375 235 436 q 324 270 282 314 q 423 201 365 226 q 549 176 481 176 l 981 176 l 981 439 l 525 439 l 525 588 l 1158 588 l 1158 0 l 549 0 m 621 1072 q 549 1092 578 1072 q 501 1142 519 1113 q 475 1203 483 1171 q 467 1258 467 1235 l 561 1258 q 566 1219 561 1240 q 581 1178 571 1197 q 606 1145 590 1158 q 644 1132 621 1132 l 678 1132 q 715 1145 700 1132 q 739 1178 731 1158 q 751 1219 747 1197 q 754 1258 754 1240 l 850 1258 q 842 1203 850 1235 q 817 1142 835 1171 q 769 1092 799 1113 q 697 1072 740 1072 l 621 1072 z "},"Ġ":{"ha":1233,"x_min":58,"x_max":1158,"o":"m 58 0 m 549 0 q 353 40 443 0 q 198 148 264 79 q 95 311 132 217 q 58 515 58 406 q 95 718 58 626 q 198 874 132 810 q 353 974 264 939 q 549 1010 443 1010 l 1096 1010 l 1096 833 l 549 833 q 423 809 481 833 q 324 742 365 785 q 258 639 282 699 q 235 507 235 579 q 258 375 235 436 q 324 270 282 314 q 423 201 365 226 q 549 176 481 176 l 981 176 l 981 439 l 525 439 l 525 588 l 1158 588 l 1158 0 l 549 0 m 743 1178 q 723 1132 743 1149 q 672 1115 703 1115 q 622 1132 642 1115 q 601 1178 601 1149 q 622 1224 601 1207 q 672 1240 642 1240 q 723 1224 703 1240 q 743 1178 743 1207 z "},"ġ":{"ha":1233,"x_min":58,"x_max":1158,"o":"m 58 0 m 549 0 q 353 40 443 0 q 198 148 264 79 q 95 311 132 217 q 58 515 58 406 q 95 718 58 626 q 198 874 132 810 q 353 974 264 939 q 549 1010 443 1010 l 1096 1010 l 1096 833 l 549 833 q 423 809 481 833 q 324 742 365 785 q 258 639 282 699 q 235 507 235 579 q 258 375 235 436 q 324 270 282 314 q 423 201 365 226 q 549 176 481 176 l 981 176 l 981 439 l 525 439 l 525 588 l 1158 588 l 1158 0 l 549 0 m 743 1178 q 723 1132 743 1149 q 672 1115 703 1115 q 622 1132 642 1115 q 601 1178 601 1149 q 622 1224 601 1207 q 672 1240 642 1240 q 723 1224 703 1240 q 743 1178 743 1207 z "},"Ģ":{"ha":1233,"x_min":58,"x_max":1158,"o":"m 58 0 m 549 0 q 353 40 443 0 q 198 148 264 79 q 95 311 132 217 q 58 515 58 406 q 95 718 58 626 q 198 874 132 810 q 353 974 264 939 q 549 1010 443 1010 l 1096 1010 l 1096 833 l 549 833 q 423 809 481 833 q 324 742 365 785 q 258 639 282 699 q 235 507 235 579 q 258 375 235 436 q 324 270 282 314 q 423 201 365 226 q 549 176 481 176 l 981 176 l 981 439 l 525 439 l 525 588 l 1158 588 l 1158 0 l 549 0 m 538 -65 l 722 -65 l 629 -279 l 538 -65 z "},"ģ":{"ha":1233,"x_min":58,"x_max":1158,"o":"m 58 0 m 549 0 q 353 40 443 0 q 198 148 264 79 q 95 311 132 217 q 58 515 58 406 q 95 718 58 626 q 198 874 132 810 q 353 974 264 939 q 549 1010 443 1010 l 1096 1010 l 1096 833 l 549 833 q 423 809 481 833 q 324 742 365 785 q 258 639 282 699 q 235 507 235 579 q 258 375 235 436 q 324 270 282 314 q 423 201 365 226 q 549 176 481 176 l 981 176 l 981 439 l 525 439 l 525 588 l 1158 588 l 1158 0 l 549 0 m 538 -65 l 722 -65 l 629 -279 l 538 -65 z "},"Ħ":{"ha":1164,"x_min":88,"x_max":1076,"o":"m 900 -4 l 900 435 l 392 435 l 392 592 l 900 592 l 900 767 l 392 767 l 392 847 l 900 847 l 900 1010 l 1076 1010 l 1076 -4 l 900 -4 m 88 -4 l 88 1010 l 264 1010 l 264 -4 l 88 -4 z "},"ħ":{"ha":1164,"x_min":88,"x_max":1076,"o":"m 88 0 m 900 -4 l 900 435 l 392 435 l 392 592 l 900 592 l 900 767 l 392 767 l 392 847 l 900 847 l 900 1010 l 1076 1010 l 1076 -4 l 900 -4 m 88 -4 l 88 1010 l 264 1010 l 264 -4 l 88 -4 z "},"Ī":{"ha":371,"x_min":10,"x_max":365,"o":"m 10 0 m 97 0 l 97 1010 l 274 1010 l 274 0 l 97 0 m 10 1128 l 10 1208 l 365 1208 l 365 1128 l 10 1128 z "},"ī":{"ha":371,"x_min":10,"x_max":365,"o":"m 10 0 m 97 0 l 97 1010 l 274 1010 l 274 0 l 97 0 m 10 1128 l 10 1208 l 365 1208 l 365 1128 l 10 1128 z "},"Ĭ":{"ha":371,"x_min":-4,"x_max":379,"o":"m 0 0 m 97 0 l 97 1010 l 274 1010 l 274 0 l 97 0 m 150 1072 q 78 1092 107 1072 q 31 1142 49 1113 q 4 1203 13 1171 q -4 1258 -4 1235 l 90 1258 q 95 1219 90 1240 q 110 1178 100 1197 q 135 1145 119 1158 q 174 1132 150 1132 l 207 1132 q 244 1145 229 1132 q 268 1178 260 1158 q 280 1219 276 1197 q 283 1258 283 1240 l 379 1258 q 372 1203 379 1235 q 346 1142 364 1171 q 299 1092 328 1113 q 226 1072 269 1072 l 150 1072 z "},"ĭ":{"ha":371,"x_min":-4,"x_max":379,"o":"m 0 0 m 97 0 l 97 1010 l 274 1010 l 274 0 l 97 0 m 150 1072 q 78 1092 107 1072 q 31 1142 49 1113 q 4 1203 13 1171 q -4 1258 -4 1235 l 90 1258 q 95 1219 90 1240 q 110 1178 100 1197 q 135 1145 119 1158 q 174 1132 150 1132 l 207 1132 q 244 1145 229 1132 q 268 1178 260 1158 q 280 1219 276 1197 q 283 1258 283 1240 l 379 1258 q 372 1203 379 1235 q 346 1142 364 1171 q 299 1092 328 1113 q 226 1072 269 1072 l 150 1072 z "},"Į":{"ha":371,"x_min":11,"x_max":274,"o":"m 156 -279 q 47 -251 83 -279 q 11 -176 11 -224 q 27 -121 11 -144 q 67 -82 43 -97 l 192 0 l 97 0 l 97 1010 l 274 1010 l 274 0 l 147 -85 q 124 -106 132 -96 q 115 -129 115 -115 q 160 -164 115 -164 l 274 -164 l 274 -279 l 156 -279 z "},"į":{"ha":371,"x_min":11,"x_max":274,"o":"m 11 0 m 156 -279 q 47 -251 83 -279 q 11 -176 11 -224 q 27 -121 11 -144 q 67 -82 43 -97 l 192 0 l 97 0 l 97 1010 l 274 1010 l 274 0 l 147 -85 q 124 -106 132 -96 q 115 -129 115 -115 q 160 -164 115 -164 l 274 -164 l 274 -279 l 156 -279 z "},"İ":{"ha":371,"x_min":97,"x_max":274,"o":"m 97 0 m 97 0 l 97 1010 l 274 1010 l 274 0 l 97 0 m 256 1178 q 235 1132 256 1149 q 185 1115 215 1115 q 134 1132 154 1115 q 114 1178 114 1149 q 134 1224 114 1207 q 185 1240 154 1240 q 235 1224 215 1240 q 256 1178 256 1207 z "},"ı":{"ha":371,"x_min":97,"x_max":274,"o":"m 97 0 m 97 0 l 97 1010 l 274 1010 l 274 0 l 97 0 z "},"Ĳ":{"ha":1354,"x_min":97,"x_max":1282,"o":"m 97 0 m 97 0 l 97 1010 l 274 1010 l 274 0 l 97 0 m 404 0 l 404 176 l 774 176 q 1028 244 950 176 q 1106 460 1106 313 l 1106 1010 l 1282 1010 l 1282 460 q 1160 113 1282 225 q 774 0 1038 0 l 404 0 z "},"ĳ":{"ha":1354,"x_min":97,"x_max":1282,"o":"m 97 0 m 97 0 l 97 1010 l 274 1010 l 274 0 l 97 0 m 404 0 l 404 176 l 774 176 q 1028 244 950 176 q 1106 460 1106 313 l 1106 1010 l 1282 1010 l 1282 460 q 1160 113 1282 225 q 774 0 1038 0 l 404 0 z "},"Ķ":{"ha":1215,"x_min":88,"x_max":1189,"o":"m 88 0 m 919 0 l 354 444 q 324 480 331 463 q 318 518 318 497 q 326 560 318 542 q 363 599 335 578 l 897 1010 l 1168 1010 l 507 517 l 1189 0 l 919 0 m 88 0 l 88 1010 l 264 1010 l 264 0 l 88 0 m 515 -65 l 700 -65 l 607 -279 l 515 -65 z "},"ķ":{"ha":1215,"x_min":88,"x_max":1189,"o":"m 88 0 m 919 0 l 354 444 q 324 480 331 463 q 318 518 318 497 q 326 560 318 542 q 363 599 335 578 l 897 1010 l 1168 1010 l 507 517 l 1189 0 l 919 0 m 88 0 l 88 1010 l 264 1010 l 264 0 l 88 0 m 515 -65 l 700 -65 l 607 -279 l 515 -65 z "},"Ĺ":{"ha":982,"x_min":36,"x_max":943,"o":"m 36 0 m 88 0 l 88 1010 l 264 1010 l 264 176 l 943 176 l 943 0 l 88 0 m 36 1072 l 36 1151 l 392 1258 l 392 1149 l 36 1072 z "},"ĺ":{"ha":982,"x_min":36,"x_max":943,"o":"m 36 0 m 88 0 l 88 1010 l 264 1010 l 264 176 l 943 176 l 943 0 l 88 0 m 36 1072 l 36 1151 l 392 1258 l 392 1149 l 36 1072 z "},"Ļ":{"ha":982,"x_min":88,"x_max":943,"o":"m 88 0 m 88 0 l 88 1010 l 264 1010 l 264 176 l 943 176 l 943 0 l 88 0 m 424 -65 l 608 -65 l 515 -279 l 424 -65 z "},"ļ":{"ha":982,"x_min":88,"x_max":943,"o":"m 88 0 m 88 0 l 88 1010 l 264 1010 l 264 176 l 943 176 l 943 0 l 88 0 m 424 -65 l 608 -65 l 515 -279 l 424 -65 z "},"Ľ":{"ha":982,"x_min":88,"x_max":943,"o":"m 88 0 m 88 0 l 88 1010 l 264 1010 l 264 176 l 943 176 l 943 0 l 88 0 m 433 649 l 433 1010 l 611 1010 l 542 649 l 433 649 z "},"ľ":{"ha":982,"x_min":88,"x_max":943,"o":"m 88 0 m 88 0 l 88 1010 l 264 1010 l 264 176 l 943 176 l 943 0 l 88 0 m 433 649 l 433 1010 l 611 1010 l 542 649 l 433 649 z "},"Ŀ":{"ha":982,"x_min":88,"x_max":943,"o":"m 88 0 m 88 0 l 88 1010 l 264 1010 l 264 176 l 943 176 l 943 0 l 88 0 m 533 515 q 513 469 533 486 q 463 453 493 453 q 412 469 432 453 q 392 515 392 486 q 412 561 392 544 q 463 578 432 578 q 513 561 493 578 q 533 515 533 544 z "},"ŀ":{"ha":982,"x_min":88,"x_max":943,"o":"m 88 0 m 88 0 l 88 1010 l 264 1010 l 264 176 l 943 176 l 943 0 l 88 0 m 533 515 q 513 469 533 486 q 463 453 493 453 q 412 469 432 453 q 392 515 392 486 q 412 561 392 544 q 463 578 432 578 q 513 561 493 578 q 533 515 533 544 z "},"Ł":{"ha":982,"x_min":88,"x_max":943,"o":"m 88 0 l 88 1010 l 264 1010 l 264 560 l 644 725 l 644 572 l 264 406 l 264 176 l 943 176 l 943 0 l 88 0 z "},"ł":{"ha":982,"x_min":88,"x_max":943,"o":"m 88 0 m 88 0 l 88 1010 l 264 1010 l 264 560 l 644 725 l 644 572 l 264 406 l 264 176 l 943 176 l 943 0 l 88 0 z "},"Ń":{"ha":1213,"x_min":83,"x_max":1129,"o":"m 83 0 m 251 739 l 251 0 l 83 0 l 83 917 q 108 994 83 965 q 174 1022 132 1022 q 211 1014 193 1022 q 249 986 229 1006 l 961 279 l 961 1018 l 1129 1018 l 1129 93 q 1105 15 1129 43 q 1042 -12 1081 -12 q 961 25 999 -12 l 251 739 m 469 1072 l 469 1151 l 825 1258 l 825 1149 l 469 1072 z "},"ń":{"ha":1213,"x_min":83,"x_max":1129,"o":"m 83 0 m 251 739 l 251 0 l 83 0 l 83 917 q 108 994 83 965 q 174 1022 132 1022 q 211 1014 193 1022 q 249 986 229 1006 l 961 279 l 961 1018 l 1129 1018 l 1129 93 q 1105 15 1129 43 q 1042 -12 1081 -12 q 961 25 999 -12 l 251 739 m 469 1072 l 469 1151 l 825 1258 l 825 1149 l 469 1072 z "},"Ņ":{"ha":1213,"x_min":83,"x_max":1129,"o":"m 83 0 m 251 739 l 251 0 l 83 0 l 83 917 q 108 994 83 965 q 174 1022 132 1022 q 211 1014 193 1022 q 249 986 229 1006 l 961 279 l 961 1018 l 1129 1018 l 1129 93 q 1105 15 1129 43 q 1042 -12 1081 -12 q 961 25 999 -12 l 251 739 m 514 -65 l 699 -65 l 606 -279 l 514 -65 z "},"ņ":{"ha":1213,"x_min":83,"x_max":1129,"o":"m 83 0 m 251 739 l 251 0 l 83 0 l 83 917 q 108 994 83 965 q 174 1022 132 1022 q 211 1014 193 1022 q 249 986 229 1006 l 961 279 l 961 1018 l 1129 1018 l 1129 93 q 1105 15 1129 43 q 1042 -12 1081 -12 q 961 25 999 -12 l 251 739 m 514 -65 l 699 -65 l 606 -279 l 514 -65 z "},"Ň":{"ha":1213,"x_min":83,"x_max":1129,"o":"m 83 0 m 251 739 l 251 0 l 83 0 l 83 917 q 108 994 83 965 q 174 1022 132 1022 q 211 1014 193 1022 q 249 986 229 1006 l 961 279 l 961 1018 l 1129 1018 l 1129 93 q 1105 15 1129 43 q 1042 -12 1081 -12 q 961 25 999 -12 l 251 739 m 542 1072 l 417 1258 l 513 1258 l 600 1121 l 611 1121 l 699 1258 l 796 1258 l 668 1072 l 542 1072 z "},"ň":{"ha":1213,"x_min":83,"x_max":1129,"o":"m 83 0 m 251 739 l 251 0 l 83 0 l 83 917 q 108 994 83 965 q 174 1022 132 1022 q 211 1014 193 1022 q 249 986 229 1006 l 961 279 l 961 1018 l 1129 1018 l 1129 93 q 1105 15 1129 43 q 1042 -12 1081 -12 q 961 25 999 -12 l 251 739 m 542 1072 l 417 1258 l 513 1258 l 600 1121 l 611 1121 l 699 1258 l 796 1258 l 668 1072 l 542 1072 z "},"Ŋ":{"ha":1213,"x_min":83,"x_max":1129,"o":"m 488 -279 l 488 -103 l 621 -103 q 829 -67 751 -103 q 939 47 907 -31 l 251 739 l 251 0 l 83 0 l 83 917 q 108 994 83 965 q 174 1022 132 1022 q 211 1014 193 1022 q 249 986 229 1006 l 961 279 l 961 1018 l 1129 1018 l 1129 93 q 1091 -70 1129 0 q 985 -187 1053 -140 q 824 -256 917 -233 q 621 -279 731 -279 l 488 -279 z "},"ŋ":{"ha":1213,"x_min":83,"x_max":1129,"o":"m 83 0 m 488 -279 l 488 -103 l 621 -103 q 829 -67 751 -103 q 939 47 907 -31 l 251 739 l 251 0 l 83 0 l 83 917 q 108 994 83 965 q 174 1022 132 1022 q 211 1014 193 1022 q 249 986 229 1006 l 961 279 l 961 1018 l 1129 1018 l 1129 93 q 1091 -70 1129 0 q 985 -187 1053 -140 q 824 -256 917 -233 q 621 -279 731 -279 l 488 -279 z "},"Ō":{"ha":1344,"x_min":58,"x_max":1289,"o":"m 58 0 m 549 0 q 353 40 443 0 q 198 148 264 79 q 95 311 132 217 q 58 515 58 406 q 95 718 58 626 q 198 874 132 810 q 353 974 264 939 q 549 1010 443 1010 l 794 1010 q 995 974 904 1010 q 1151 872 1086 938 q 1253 716 1217 807 q 1289 515 1289 625 q 1252 311 1289 406 q 1149 148 1215 217 q 993 40 1083 79 q 794 0 903 0 l 549 0 m 794 176 q 922 201 864 176 q 1023 270 981 226 q 1089 375 1065 314 q 1113 507 1113 436 q 1089 638 1113 578 q 1023 742 1065 699 q 922 809 981 785 q 794 833 864 833 l 549 833 q 423 809 481 833 q 324 742 365 785 q 258 639 282 699 q 235 507 235 579 q 258 375 235 436 q 324 270 282 314 q 423 201 365 226 q 549 176 481 176 l 794 176 m 494 1128 l 494 1208 l 850 1208 l 850 1128 l 494 1128 z "},"ō":{"ha":1344,"x_min":58,"x_max":1289,"o":"m 58 0 m 549 0 q 353 40 443 0 q 198 148 264 79 q 95 311 132 217 q 58 515 58 406 q 95 718 58 626 q 198 874 132 810 q 353 974 264 939 q 549 1010 443 1010 l 794 1010 q 995 974 904 1010 q 1151 872 1086 938 q 1253 716 1217 807 q 1289 515 1289 625 q 1252 311 1289 406 q 1149 148 1215 217 q 993 40 1083 79 q 794 0 903 0 l 549 0 m 794 176 q 922 201 864 176 q 1023 270 981 226 q 1089 375 1065 314 q 1113 507 1113 436 q 1089 638 1113 578 q 1023 742 1065 699 q 922 809 981 785 q 794 833 864 833 l 549 833 q 423 809 481 833 q 324 742 365 785 q 258 639 282 699 q 235 507 235 579 q 258 375 235 436 q 324 270 282 314 q 423 201 365 226 q 549 176 481 176 l 794 176 m 494 1128 l 494 1208 l 850 1208 l 850 1128 l 494 1128 z "},"Ŏ":{"ha":1344,"x_min":58,"x_max":1289,"o":"m 58 0 m 549 0 q 353 40 443 0 q 198 148 264 79 q 95 311 132 217 q 58 515 58 406 q 95 718 58 626 q 198 874 132 810 q 353 974 264 939 q 549 1010 443 1010 l 794 1010 q 995 974 904 1010 q 1151 872 1086 938 q 1253 716 1217 807 q 1289 515 1289 625 q 1252 311 1289 406 q 1149 148 1215 217 q 993 40 1083 79 q 794 0 903 0 l 549 0 m 794 176 q 922 201 864 176 q 1023 270 981 226 q 1089 375 1065 314 q 1113 507 1113 436 q 1089 638 1113 578 q 1023 742 1065 699 q 922 809 981 785 q 794 833 864 833 l 549 833 q 423 809 481 833 q 324 742 365 785 q 258 639 282 699 q 235 507 235 579 q 258 375 235 436 q 324 270 282 314 q 423 201 365 226 q 549 176 481 176 l 794 176 m 635 1072 q 563 1092 592 1072 q 515 1142 533 1113 q 489 1203 497 1171 q 481 1258 481 1235 l 575 1258 q 580 1219 575 1240 q 594 1178 585 1197 q 619 1145 604 1158 q 658 1132 635 1132 l 692 1132 q 729 1145 714 1132 q 753 1178 744 1158 q 765 1219 761 1197 q 768 1258 768 1240 l 864 1258 q 856 1203 864 1235 q 831 1142 849 1171 q 783 1092 813 1113 q 711 1072 754 1072 l 635 1072 z "},"ŏ":{"ha":1344,"x_min":58,"x_max":1289,"o":"m 58 0 m 549 0 q 353 40 443 0 q 198 148 264 79 q 95 311 132 217 q 58 515 58 406 q 95 718 58 626 q 198 874 132 810 q 353 974 264 939 q 549 1010 443 1010 l 794 1010 q 995 974 904 1010 q 1151 872 1086 938 q 1253 716 1217 807 q 1289 515 1289 625 q 1252 311 1289 406 q 1149 148 1215 217 q 993 40 1083 79 q 794 0 903 0 l 549 0 m 794 176 q 922 201 864 176 q 1023 270 981 226 q 1089 375 1065 314 q 1113 507 1113 436 q 1089 638 1113 578 q 1023 742 1065 699 q 922 809 981 785 q 794 833 864 833 l 549 833 q 423 809 481 833 q 324 742 365 785 q 258 639 282 699 q 235 507 235 579 q 258 375 235 436 q 324 270 282 314 q 423 201 365 226 q 549 176 481 176 l 794 176 m 635 1072 q 563 1092 592 1072 q 515 1142 533 1113 q 489 1203 497 1171 q 481 1258 481 1235 l 575 1258 q 580 1219 575 1240 q 594 1178 585 1197 q 619 1145 604 1158 q 658 1132 635 1132 l 692 1132 q 729 1145 714 1132 q 753 1178 744 1158 q 765 1219 761 1197 q 768 1258 768 1240 l 864 1258 q 856 1203 864 1235 q 831 1142 849 1171 q 783 1092 813 1113 q 711 1072 754 1072 l 635 1072 z "},"Ő":{"ha":1344,"x_min":58,"x_max":1289,"o":"m 58 0 m 549 0 q 353 40 443 0 q 198 148 264 79 q 95 311 132 217 q 58 515 58 406 q 95 718 58 626 q 198 874 132 810 q 353 974 264 939 q 549 1010 443 1010 l 794 1010 q 995 974 904 1010 q 1151 872 1086 938 q 1253 716 1217 807 q 1289 515 1289 625 q 1252 311 1289 406 q 1149 148 1215 217 q 993 40 1083 79 q 794 0 903 0 l 549 0 m 794 176 q 922 201 864 176 q 1023 270 981 226 q 1089 375 1065 314 q 1113 507 1113 436 q 1089 638 1113 578 q 1023 742 1065 699 q 922 809 981 785 q 794 833 864 833 l 549 833 q 423 809 481 833 q 324 742 365 785 q 258 639 282 699 q 235 507 235 579 q 258 375 235 436 q 324 270 282 314 q 423 201 365 226 q 549 176 481 176 l 794 176 m 739 1085 l 804 1258 l 925 1258 l 813 1085 l 739 1085 m 518 1085 l 583 1258 l 704 1258 l 590 1085 l 518 1085 z "},"ő":{"ha":1344,"x_min":58,"x_max":1289,"o":"m 58 0 m 549 0 q 353 40 443 0 q 198 148 264 79 q 95 311 132 217 q 58 515 58 406 q 95 718 58 626 q 198 874 132 810 q 353 974 264 939 q 549 1010 443 1010 l 794 1010 q 995 974 904 1010 q 1151 872 1086 938 q 1253 716 1217 807 q 1289 515 1289 625 q 1252 311 1289 406 q 1149 148 1215 217 q 993 40 1083 79 q 794 0 903 0 l 549 0 m 794 176 q 922 201 864 176 q 1023 270 981 226 q 1089 375 1065 314 q 1113 507 1113 436 q 1089 638 1113 578 q 1023 742 1065 699 q 922 809 981 785 q 794 833 864 833 l 549 833 q 423 809 481 833 q 324 742 365 785 q 258 639 282 699 q 235 507 235 579 q 258 375 235 436 q 324 270 282 314 q 423 201 365 226 q 549 176 481 176 l 794 176 m 739 1085 l 804 1258 l 925 1258 l 813 1085 l 739 1085 m 518 1085 l 583 1258 l 704 1258 l 590 1085 l 518 1085 z "},"Œ":{"ha":1811,"x_min":58,"x_max":1747,"o":"m 549 0 q 353 40 443 0 q 198 148 264 79 q 95 311 132 217 q 58 515 58 406 q 95 718 58 626 q 198 874 132 810 q 353 974 264 939 q 549 1010 443 1010 l 1746 1010 l 1746 833 l 1060 833 l 1060 176 l 1747 176 l 1747 0 l 549 0 m 883 833 l 549 833 q 423 809 481 833 q 324 742 365 785 q 258 639 282 699 q 235 507 235 579 q 258 375 235 436 q 324 270 282 314 q 423 201 365 226 q 549 176 481 176 l 883 176 l 883 833 m 1188 439 l 1188 588 l 1707 588 l 1707 439 l 1188 439 z "},"œ":{"ha":1811,"x_min":58,"x_max":1747,"o":"m 58 0 m 549 0 q 353 40 443 0 q 198 148 264 79 q 95 311 132 217 q 58 515 58 406 q 95 718 58 626 q 198 874 132 810 q 353 974 264 939 q 549 1010 443 1010 l 1746 1010 l 1746 833 l 1060 833 l 1060 176 l 1747 176 l 1747 0 l 549 0 m 883 833 l 549 833 q 423 809 481 833 q 324 742 365 785 q 258 639 282 699 q 235 507 235 579 q 258 375 235 436 q 324 270 282 314 q 423 201 365 226 q 549 176 481 176 l 883 176 l 883 833 m 1188 439 l 1188 588 l 1707 588 l 1707 439 l 1188 439 z "},"Ŕ":{"ha":1279,"x_min":88,"x_max":1275,"o":"m 88 0 m 1025 0 l 769 281 l 392 281 l 392 436 l 813 436 q 957 488 908 436 q 1006 639 1006 540 q 955 785 1006 738 q 813 833 904 833 l 263 833 l 263 0 l 88 0 l 88 1010 l 813 1010 q 967 984 899 1010 q 1082 910 1035 958 q 1154 794 1129 863 q 1179 642 1179 726 q 1124 430 1179 515 q 971 307 1069 344 l 1275 0 l 1025 0 m 447 1072 l 447 1151 l 803 1258 l 803 1149 l 447 1072 z "},"ŕ":{"ha":1279,"x_min":88,"x_max":1275,"o":"m 88 0 m 1025 0 l 769 281 l 392 281 l 392 436 l 813 436 q 957 488 908 436 q 1006 639 1006 540 q 955 785 1006 738 q 813 833 904 833 l 263 833 l 263 0 l 88 0 l 88 1010 l 813 1010 q 967 984 899 1010 q 1082 910 1035 958 q 1154 794 1129 863 q 1179 642 1179 726 q 1124 430 1179 515 q 971 307 1069 344 l 1275 0 l 1025 0 m 447 1072 l 447 1151 l 803 1258 l 803 1149 l 447 1072 z "},"Ŗ":{"ha":1279,"x_min":88,"x_max":1275,"o":"m 88 0 m 1025 0 l 769 281 l 392 281 l 392 436 l 813 436 q 957 488 908 436 q 1006 639 1006 540 q 955 785 1006 738 q 813 833 904 833 l 263 833 l 263 0 l 88 0 l 88 1010 l 813 1010 q 967 984 899 1010 q 1082 910 1035 958 q 1154 794 1129 863 q 1179 642 1179 726 q 1124 430 1179 515 q 971 307 1069 344 l 1275 0 l 1025 0 m 547 -65 l 732 -65 l 639 -279 l 547 -65 z "},"ŗ":{"ha":1279,"x_min":88,"x_max":1275,"o":"m 88 0 m 1025 0 l 769 281 l 392 281 l 392 436 l 813 436 q 957 488 908 436 q 1006 639 1006 540 q 955 785 1006 738 q 813 833 904 833 l 263 833 l 263 0 l 88 0 l 88 1010 l 813 1010 q 967 984 899 1010 q 1082 910 1035 958 q 1154 794 1129 863 q 1179 642 1179 726 q 1124 430 1179 515 q 971 307 1069 344 l 1275 0 l 1025 0 m 547 -65 l 732 -65 l 639 -279 l 547 -65 z "},"Ř":{"ha":1279,"x_min":88,"x_max":1275,"o":"m 88 0 m 1025 0 l 769 281 l 392 281 l 392 436 l 813 436 q 957 488 908 436 q 1006 639 1006 540 q 955 785 1006 738 q 813 833 904 833 l 263 833 l 263 0 l 88 0 l 88 1010 l 813 1010 q 967 984 899 1010 q 1082 910 1035 958 q 1154 794 1129 863 q 1179 642 1179 726 q 1124 430 1179 515 q 971 307 1069 344 l 1275 0 l 1025 0 m 519 1072 l 394 1258 l 490 1258 l 578 1121 l 589 1121 l 676 1258 l 774 1258 l 646 1072 l 519 1072 z "},"ř":{"ha":1279,"x_min":88,"x_max":1275,"o":"m 88 0 m 1025 0 l 769 281 l 392 281 l 392 436 l 813 436 q 957 488 908 436 q 1006 639 1006 540 q 955 785 1006 738 q 813 833 904 833 l 263 833 l 263 0 l 88 0 l 88 1010 l 813 1010 q 967 984 899 1010 q 1082 910 1035 958 q 1154 794 1129 863 q 1179 642 1179 726 q 1124 430 1179 515 q 971 307 1069 344 l 1275 0 l 1025 0 m 519 1072 l 394 1258 l 490 1258 l 578 1121 l 589 1121 l 676 1258 l 774 1258 l 646 1072 l 519 1072 z "},"Ś":{"ha":1222,"x_min":72,"x_max":1158,"o":"m 72 0 m 88 0 l 88 176 l 844 176 q 953 213 915 176 q 992 308 992 249 q 953 406 992 374 q 844 439 915 439 l 381 439 q 252 460 310 439 q 155 520 194 482 q 94 611 115 558 q 72 726 72 664 q 92 840 72 788 q 152 929 113 892 q 250 988 192 967 q 383 1010 308 1010 l 1108 1010 l 1108 833 l 383 833 q 289 801 322 833 q 256 710 256 768 q 290 619 256 651 q 382 588 324 588 l 844 588 q 1078 515 999 588 q 1158 296 1158 443 q 1139 178 1158 232 q 1081 84 1119 124 q 983 22 1042 44 q 844 0 924 0 l 88 0 m 475 1072 l 475 1151 l 831 1258 l 831 1149 l 475 1072 z "},"ś":{"ha":1222,"x_min":72,"x_max":1158,"o":"m 72 0 m 88 0 l 88 176 l 844 176 q 953 213 915 176 q 992 308 992 249 q 953 406 992 374 q 844 439 915 439 l 381 439 q 252 460 310 439 q 155 520 194 482 q 94 611 115 558 q 72 726 72 664 q 92 840 72 788 q 152 929 113 892 q 250 988 192 967 q 383 1010 308 1010 l 1108 1010 l 1108 833 l 383 833 q 289 801 322 833 q 256 710 256 768 q 290 619 256 651 q 382 588 324 588 l 844 588 q 1078 515 999 588 q 1158 296 1158 443 q 1139 178 1158 232 q 1081 84 1119 124 q 983 22 1042 44 q 844 0 924 0 l 88 0 m 475 1072 l 475 1151 l 831 1258 l 831 1149 l 475 1072 z "},"Ş":{"ha":1222,"x_min":72,"x_max":1158,"o":"m 72 0 m 88 0 l 88 176 l 844 176 q 953 213 915 176 q 992 308 992 249 q 953 406 992 374 q 844 439 915 439 l 381 439 q 252 460 310 439 q 155 520 194 482 q 94 611 115 558 q 72 726 72 664 q 92 840 72 788 q 152 929 113 892 q 250 988 192 967 q 383 1010 308 1010 l 1108 1010 l 1108 833 l 383 833 q 289 801 322 833 q 256 710 256 768 q 290 619 256 651 q 382 588 324 588 l 844 588 q 1078 515 999 588 q 1158 296 1158 443 q 1139 178 1158 232 q 1081 84 1119 124 q 983 22 1042 44 q 844 0 924 0 l 88 0 m 518 -65 l 703 -65 l 610 -279 l 518 -65 z "},"ş":{"ha":1222,"x_min":72,"x_max":1158,"o":"m 72 0 m 88 0 l 88 176 l 844 176 q 953 213 915 176 q 992 308 992 249 q 953 406 992 374 q 844 439 915 439 l 381 439 q 252 460 310 439 q 155 520 194 482 q 94 611 115 558 q 72 726 72 664 q 92 840 72 788 q 152 929 113 892 q 250 988 192 967 q 383 1010 308 1010 l 1108 1010 l 1108 833 l 383 833 q 289 801 322 833 q 256 710 256 768 q 290 619 256 651 q 382 588 324 588 l 844 588 q 1078 515 999 588 q 1158 296 1158 443 q 1139 178 1158 232 q 1081 84 1119 124 q 983 22 1042 44 q 844 0 924 0 l 88 0 m 518 -65 l 703 -65 l 610 -279 l 518 -65 z "},"Š":{"ha":1222,"x_min":72,"x_max":1158,"o":"m 72 0 m 88 0 l 88 176 l 844 176 q 953 213 915 176 q 992 308 992 249 q 953 406 992 374 q 844 439 915 439 l 381 439 q 252 460 310 439 q 155 520 194 482 q 94 611 115 558 q 72 726 72 664 q 92 840 72 788 q 152 929 113 892 q 250 988 192 967 q 383 1010 308 1010 l 1108 1010 l 1108 833 l 383 833 q 289 801 322 833 q 256 710 256 768 q 290 619 256 651 q 382 588 324 588 l 844 588 q 1078 515 999 588 q 1158 296 1158 443 q 1139 178 1158 232 q 1081 84 1119 124 q 983 22 1042 44 q 844 0 924 0 l 88 0 m 560 1072 l 435 1258 l 531 1258 l 618 1121 l 629 1121 l 717 1258 l 814 1258 l 686 1072 l 560 1072 z "},"š":{"ha":1222,"x_min":72,"x_max":1158,"o":"m 72 0 m 88 0 l 88 176 l 844 176 q 953 213 915 176 q 992 308 992 249 q 953 406 992 374 q 844 439 915 439 l 381 439 q 252 460 310 439 q 155 520 194 482 q 94 611 115 558 q 72 726 72 664 q 92 840 72 788 q 152 929 113 892 q 250 988 192 967 q 383 1010 308 1010 l 1108 1010 l 1108 833 l 383 833 q 289 801 322 833 q 256 710 256 768 q 290 619 256 651 q 382 588 324 588 l 844 588 q 1078 515 999 588 q 1158 296 1158 443 q 1139 178 1158 232 q 1081 84 1119 124 q 983 22 1042 44 q 844 0 924 0 l 88 0 m 560 1072 l 435 1258 l 531 1258 l 618 1121 l 629 1121 l 717 1258 l 814 1258 l 686 1072 l 560 1072 z "},"Ţ":{"ha":1000,"x_min":28,"x_max":971,"o":"m 28 0 m 411 0 l 411 833 l 28 833 l 28 1010 l 971 1010 l 971 833 l 588 833 l 588 0 l 411 0 m 407 -65 l 592 -65 l 499 -279 l 407 -65 z "},"ţ":{"ha":1000,"x_min":28,"x_max":971,"o":"m 28 0 m 411 0 l 411 833 l 28 833 l 28 1010 l 971 1010 l 971 833 l 588 833 l 588 0 l 411 0 m 407 -65 l 592 -65 l 499 -279 l 407 -65 z "},"Ť":{"ha":1000,"x_min":28,"x_max":971,"o":"m 28 0 m 411 0 l 411 833 l 28 833 l 28 1010 l 971 1010 l 971 833 l 588 833 l 588 0 l 411 0 m 435 1072 l 310 1258 l 406 1258 l 493 1121 l 504 1121 l 592 1258 l 689 1258 l 561 1072 l 435 1072 z "},"ť":{"ha":1000,"x_min":28,"x_max":971,"o":"m 28 0 m 411 0 l 411 833 l 28 833 l 28 1010 l 971 1010 l 971 833 l 588 833 l 588 0 l 411 0 m 435 1072 l 310 1258 l 406 1258 l 493 1121 l 504 1121 l 592 1258 l 689 1258 l 561 1072 l 435 1072 z "},"Ŧ":{"ha":1000,"x_min":28,"x_max":971,"o":"m 411 0 l 411 356 l 250 356 l 250 474 l 411 474 l 411 833 l 28 833 l 28 1010 l 971 1010 l 971 833 l 588 833 l 588 474 l 750 474 l 750 356 l 588 356 l 588 0 l 411 0 z "},"ŧ":{"ha":1000,"x_min":28,"x_max":971,"o":"m 28 0 m 411 0 l 411 356 l 250 356 l 250 474 l 411 474 l 411 833 l 28 833 l 28 1010 l 971 1010 l 971 833 l 588 833 l 588 474 l 750 474 l 750 356 l 588 356 l 588 0 l 411 0 z "},"Ũ":{"ha":1235,"x_min":72,"x_max":1163,"o":"m 72 0 m 990 1010 l 1163 1010 l 1163 446 q 1132 242 1163 329 q 1036 99 1101 156 q 867 14 971 42 q 617 -14 764 -14 q 367 14 471 -14 q 199 99 264 42 q 103 242 133 156 q 72 446 72 329 l 72 1010 l 254 1010 l 254 446 q 273 315 254 369 q 334 226 292 261 q 447 176 376 192 q 622 160 518 160 q 797 176 726 160 q 910 226 868 192 q 972 315 953 261 q 990 446 990 369 l 990 1010 m 794 1143 q 703 1103 763 1103 q 658 1111 679 1103 q 617 1130 638 1119 q 574 1149 596 1140 q 529 1157 553 1157 q 476 1142 501 1157 q 439 1108 451 1128 l 439 1190 q 478 1221 454 1210 q 529 1232 501 1232 q 574 1223 553 1232 q 617 1203 596 1214 q 658 1185 638 1193 q 703 1176 679 1176 q 756 1192 731 1176 q 794 1226 781 1207 l 794 1143 z "},"ũ":{"ha":1235,"x_min":72,"x_max":1163,"o":"m 72 0 m 990 1010 l 1163 1010 l 1163 446 q 1132 242 1163 329 q 1036 99 1101 156 q 867 14 971 42 q 617 -14 764 -14 q 367 14 471 -14 q 199 99 264 42 q 103 242 133 156 q 72 446 72 329 l 72 1010 l 254 1010 l 254 446 q 273 315 254 369 q 334 226 292 261 q 447 176 376 192 q 622 160 518 160 q 797 176 726 160 q 910 226 868 192 q 972 315 953 261 q 990 446 990 369 l 990 1010 m 794 1143 q 703 1103 763 1103 q 658 1111 679 1103 q 617 1130 638 1119 q 574 1149 596 1140 q 529 1157 553 1157 q 476 1142 501 1157 q 439 1108 451 1128 l 439 1190 q 478 1221 454 1210 q 529 1232 501 1232 q 574 1223 553 1232 q 617 1203 596 1214 q 658 1185 638 1193 q 703 1176 679 1176 q 756 1192 731 1176 q 794 1226 781 1207 l 794 1143 z "},"Ū":{"ha":1235,"x_min":72,"x_max":1163,"o":"m 72 0 m 990 1010 l 1163 1010 l 1163 446 q 1132 242 1163 329 q 1036 99 1101 156 q 867 14 971 42 q 617 -14 764 -14 q 367 14 471 -14 q 199 99 264 42 q 103 242 133 156 q 72 446 72 329 l 72 1010 l 254 1010 l 254 446 q 273 315 254 369 q 334 226 292 261 q 447 176 376 192 q 622 160 518 160 q 797 176 726 160 q 910 226 868 192 q 972 315 953 261 q 990 446 990 369 l 990 1010 m 439 1128 l 439 1208 l 794 1208 l 794 1128 l 439 1128 z "},"ū":{"ha":1235,"x_min":72,"x_max":1163,"o":"m 72 0 m 990 1010 l 1163 1010 l 1163 446 q 1132 242 1163 329 q 1036 99 1101 156 q 867 14 971 42 q 617 -14 764 -14 q 367 14 471 -14 q 199 99 264 42 q 103 242 133 156 q 72 446 72 329 l 72 1010 l 254 1010 l 254 446 q 273 315 254 369 q 334 226 292 261 q 447 176 376 192 q 622 160 518 160 q 797 176 726 160 q 910 226 868 192 q 972 315 953 261 q 990 446 990 369 l 990 1010 m 439 1128 l 439 1208 l 794 1208 l 794 1128 l 439 1128 z "},"Ŭ":{"ha":1235,"x_min":72,"x_max":1163,"o":"m 72 0 m 990 1010 l 1163 1010 l 1163 446 q 1132 242 1163 329 q 1036 99 1101 156 q 867 14 971 42 q 617 -14 764 -14 q 367 14 471 -14 q 199 99 264 42 q 103 242 133 156 q 72 446 72 329 l 72 1010 l 254 1010 l 254 446 q 273 315 254 369 q 334 226 292 261 q 447 176 376 192 q 622 160 518 160 q 797 176 726 160 q 910 226 868 192 q 972 315 953 261 q 990 446 990 369 l 990 1010 m 579 1072 q 507 1092 536 1072 q 460 1142 478 1113 q 433 1203 442 1171 q 425 1258 425 1235 l 519 1258 q 524 1219 519 1240 q 539 1178 529 1197 q 564 1145 549 1158 q 603 1132 579 1132 l 636 1132 q 674 1145 658 1132 q 697 1178 689 1158 q 709 1219 706 1197 q 713 1258 713 1240 l 808 1258 q 801 1203 808 1235 q 775 1142 793 1171 q 728 1092 757 1113 q 656 1072 699 1072 l 579 1072 z "},"ŭ":{"ha":1235,"x_min":72,"x_max":1163,"o":"m 72 0 m 990 1010 l 1163 1010 l 1163 446 q 1132 242 1163 329 q 1036 99 1101 156 q 867 14 971 42 q 617 -14 764 -14 q 367 14 471 -14 q 199 99 264 42 q 103 242 133 156 q 72 446 72 329 l 72 1010 l 254 1010 l 254 446 q 273 315 254 369 q 334 226 292 261 q 447 176 376 192 q 622 160 518 160 q 797 176 726 160 q 910 226 868 192 q 972 315 953 261 q 990 446 990 369 l 990 1010 m 579 1072 q 507 1092 536 1072 q 460 1142 478 1113 q 433 1203 442 1171 q 425 1258 425 1235 l 519 1258 q 524 1219 519 1240 q 539 1178 529 1197 q 564 1145 549 1158 q 603 1132 579 1132 l 636 1132 q 674 1145 658 1132 q 697 1178 689 1158 q 709 1219 706 1197 q 713 1258 713 1240 l 808 1258 q 801 1203 808 1235 q 775 1142 793 1171 q 728 1092 757 1113 q 656 1072 699 1072 l 579 1072 z "},"Ů":{"ha":1235,"x_min":72,"x_max":1163,"o":"m 72 0 m 990 1010 l 1163 1010 l 1163 446 q 1132 242 1163 329 q 1036 99 1101 156 q 867 14 971 42 q 617 -14 764 -14 q 367 14 471 -14 q 199 99 264 42 q 103 242 133 156 q 72 446 72 329 l 72 1010 l 254 1010 l 254 446 q 273 315 254 369 q 334 226 292 261 q 447 176 376 192 q 622 160 518 160 q 797 176 726 160 q 910 226 868 192 q 972 315 953 261 q 990 446 990 369 l 990 1010 m 581 1072 q 478 1113 518 1072 q 439 1215 439 1154 q 478 1316 439 1278 q 581 1354 518 1354 l 651 1354 q 754 1316 714 1354 q 794 1215 794 1278 q 754 1113 794 1154 q 651 1072 714 1072 l 581 1072 m 651 1124 q 717 1149 692 1124 q 742 1214 742 1175 q 717 1277 742 1253 q 651 1301 692 1301 l 581 1301 q 517 1277 542 1301 q 492 1214 492 1253 q 516 1149 492 1175 q 581 1124 540 1124 l 651 1124 z "},"ů":{"ha":1235,"x_min":72,"x_max":1163,"o":"m 72 0 m 990 1010 l 1163 1010 l 1163 446 q 1132 242 1163 329 q 1036 99 1101 156 q 867 14 971 42 q 617 -14 764 -14 q 367 14 471 -14 q 199 99 264 42 q 103 242 133 156 q 72 446 72 329 l 72 1010 l 254 1010 l 254 446 q 273 315 254 369 q 334 226 292 261 q 447 176 376 192 q 622 160 518 160 q 797 176 726 160 q 910 226 868 192 q 972 315 953 261 q 990 446 990 369 l 990 1010 m 581 1072 q 478 1113 518 1072 q 439 1215 439 1154 q 478 1316 439 1278 q 581 1354 518 1354 l 651 1354 q 754 1316 714 1354 q 794 1215 794 1278 q 754 1113 794 1154 q 651 1072 714 1072 l 581 1072 m 651 1124 q 717 1149 692 1124 q 742 1214 742 1175 q 717 1277 742 1253 q 651 1301 692 1301 l 581 1301 q 517 1277 542 1301 q 492 1214 492 1253 q 516 1149 492 1175 q 581 1124 540 1124 l 651 1124 z "},"Ű":{"ha":1235,"x_min":72,"x_max":1163,"o":"m 72 0 m 990 1010 l 1163 1010 l 1163 446 q 1132 242 1163 329 q 1036 99 1101 156 q 867 14 971 42 q 617 -14 764 -14 q 367 14 471 -14 q 199 99 264 42 q 103 242 133 156 q 72 446 72 329 l 72 1010 l 254 1010 l 254 446 q 273 315 254 369 q 334 226 292 261 q 447 176 376 192 q 622 160 518 160 q 797 176 726 160 q 910 226 868 192 q 972 315 953 261 q 990 446 990 369 l 990 1010 m 683 1085 l 749 1258 l 869 1258 l 757 1085 l 683 1085 m 463 1085 l 528 1258 l 649 1258 l 535 1085 l 463 1085 z "},"ű":{"ha":1235,"x_min":72,"x_max":1163,"o":"m 72 0 m 990 1010 l 1163 1010 l 1163 446 q 1132 242 1163 329 q 1036 99 1101 156 q 867 14 971 42 q 617 -14 764 -14 q 367 14 471 -14 q 199 99 264 42 q 103 242 133 156 q 72 446 72 329 l 72 1010 l 254 1010 l 254 446 q 273 315 254 369 q 334 226 292 261 q 447 176 376 192 q 622 160 518 160 q 797 176 726 160 q 910 226 868 192 q 972 315 953 261 q 990 446 990 369 l 990 1010 m 683 1085 l 749 1258 l 869 1258 l 757 1085 l 683 1085 m 463 1085 l 528 1258 l 649 1258 l 535 1085 l 463 1085 z "},"Ų":{"ha":1235,"x_min":72,"x_max":1163,"o":"m 631 -279 q 522 -251 558 -279 q 486 -176 486 -224 q 502 -121 486 -144 q 542 -82 518 -97 l 644 -14 l 617 -14 q 367 14 471 -14 q 199 99 264 42 q 103 242 133 156 q 72 446 72 329 l 72 1010 l 254 1010 l 254 446 q 273 315 254 369 q 334 226 292 261 q 447 176 376 192 q 622 160 518 160 q 797 176 726 160 q 910 226 868 192 q 972 315 953 261 q 990 446 990 369 l 990 1010 l 1163 1010 l 1163 446 q 1138 261 1163 342 q 1063 124 1114 181 q 930 35 1011 68 q 735 -8 849 1 l 622 -85 q 599 -106 607 -96 q 590 -129 590 -115 q 635 -164 590 -164 l 749 -164 l 749 -279 l 631 -279 z "},"ų":{"ha":1235,"x_min":72,"x_max":1163,"o":"m 72 0 m 631 -279 q 522 -251 558 -279 q 486 -176 486 -224 q 502 -121 486 -144 q 542 -82 518 -97 l 644 -14 l 617 -14 q 367 14 471 -14 q 199 99 264 42 q 103 242 133 156 q 72 446 72 329 l 72 1010 l 254 1010 l 254 446 q 273 315 254 369 q 334 226 292 261 q 447 176 376 192 q 622 160 518 160 q 797 176 726 160 q 910 226 868 192 q 972 315 953 261 q 990 446 990 369 l 990 1010 l 1163 1010 l 1163 446 q 1138 261 1163 342 q 1063 124 1114 181 q 930 35 1011 68 q 735 -8 849 1 l 622 -85 q 599 -106 607 -96 q 590 -129 590 -115 q 635 -164 590 -164 l 749 -164 l 749 -279 l 631 -279 z "},"Ŵ":{"ha":1761,"x_min":19,"x_max":1740,"o":"m 19 0 m 881 338 l 724 42 q 685 0 708 14 q 633 -14 661 -14 q 542 42 572 -14 l 19 1010 l 231 1010 l 639 233 l 792 508 l 529 1010 l 742 1010 l 1132 233 l 1543 1010 l 1740 1010 l 1218 42 q 1178 0 1203 14 q 1126 -14 1154 -14 q 1075 0 1099 -14 q 1036 42 1051 14 l 881 338 m 972 1072 l 885 1207 l 874 1207 l 786 1072 l 690 1072 l 817 1258 l 943 1258 l 1069 1072 l 972 1072 z "},"ŵ":{"ha":1761,"x_min":19,"x_max":1740,"o":"m 19 0 m 881 338 l 724 42 q 685 0 708 14 q 633 -14 661 -14 q 542 42 572 -14 l 19 1010 l 231 1010 l 639 233 l 792 508 l 529 1010 l 742 1010 l 1132 233 l 1543 1010 l 1740 1010 l 1218 42 q 1178 0 1203 14 q 1126 -14 1154 -14 q 1075 0 1099 -14 q 1036 42 1051 14 l 881 338 m 972 1072 l 885 1207 l 874 1207 l 786 1072 l 690 1072 l 817 1258 l 943 1258 l 1069 1072 l 972 1072 z "},"Ŷ":{"ha":1286,"x_min":18,"x_max":1268,"o":"m 18 0 m 554 0 l 554 383 l 18 1010 l 256 1010 l 649 544 l 1043 1010 l 1268 1010 l 731 383 l 731 0 l 554 0 m 740 1072 l 653 1207 l 642 1207 l 554 1072 l 458 1072 l 585 1258 l 711 1258 l 838 1072 l 740 1072 z "},"ŷ":{"ha":1286,"x_min":18,"x_max":1268,"o":"m 18 0 m 554 0 l 554 383 l 18 1010 l 256 1010 l 649 544 l 1043 1010 l 1268 1010 l 731 383 l 731 0 l 554 0 m 740 1072 l 653 1207 l 642 1207 l 554 1072 l 458 1072 l 585 1258 l 711 1258 l 838 1072 l 740 1072 z "},"Ÿ":{"ha":1286,"x_min":18,"x_max":1268,"o":"m 18 0 m 554 0 l 554 383 l 18 1010 l 256 1010 l 649 544 l 1043 1010 l 1268 1010 l 731 383 l 731 0 l 554 0 m 590 1178 q 570 1132 590 1149 q 521 1115 550 1115 q 469 1132 489 1115 q 449 1178 449 1149 q 469 1224 449 1207 q 521 1240 489 1240 q 570 1224 550 1240 q 590 1178 590 1207 m 847 1178 q 827 1132 847 1149 q 776 1115 807 1115 q 726 1132 746 1115 q 706 1178 706 1149 q 726 1224 706 1207 q 776 1240 746 1240 q 827 1224 807 1240 q 847 1178 847 1207 z "},"Ź":{"ha":1114,"x_min":56,"x_max":1051,"o":"m 56 0 m 156 0 q 85 23 115 0 q 56 90 56 46 q 92 165 56 129 l 763 842 l 68 842 l 68 1010 l 951 1010 q 1021 987 990 1010 q 1051 919 1051 964 q 1015 844 1051 881 l 344 168 l 1047 168 l 1047 0 l 156 0 m 421 1072 l 421 1151 l 776 1258 l 776 1149 l 421 1072 z "},"ź":{"ha":1114,"x_min":56,"x_max":1051,"o":"m 56 0 m 156 0 q 85 23 115 0 q 56 90 56 46 q 92 165 56 129 l 763 842 l 68 842 l 68 1010 l 951 1010 q 1021 987 990 1010 q 1051 919 1051 964 q 1015 844 1051 881 l 344 168 l 1047 168 l 1047 0 l 156 0 m 421 1072 l 421 1151 l 776 1258 l 776 1149 l 421 1072 z "},"Ż":{"ha":1114,"x_min":56,"x_max":1051,"o":"m 56 0 m 156 0 q 85 23 115 0 q 56 90 56 46 q 92 165 56 129 l 763 842 l 68 842 l 68 1010 l 951 1010 q 1021 987 990 1010 q 1051 919 1051 964 q 1015 844 1051 881 l 344 168 l 1047 168 l 1047 0 l 156 0 m 628 1178 q 608 1132 628 1149 q 557 1115 588 1115 q 506 1132 526 1115 q 486 1178 486 1149 q 506 1224 486 1207 q 557 1240 526 1240 q 608 1224 588 1240 q 628 1178 628 1207 z "},"ż":{"ha":1114,"x_min":56,"x_max":1051,"o":"m 56 0 m 156 0 q 85 23 115 0 q 56 90 56 46 q 92 165 56 129 l 763 842 l 68 842 l 68 1010 l 951 1010 q 1021 987 990 1010 q 1051 919 1051 964 q 1015 844 1051 881 l 344 168 l 1047 168 l 1047 0 l 156 0 m 628 1178 q 608 1132 628 1149 q 557 1115 588 1115 q 506 1132 526 1115 q 486 1178 486 1149 q 506 1224 486 1207 q 557 1240 526 1240 q 608 1224 588 1240 q 628 1178 628 1207 z "},"Ž":{"ha":1114,"x_min":56,"x_max":1051,"o":"m 56 0 m 156 0 q 85 23 115 0 q 56 90 56 46 q 92 165 56 129 l 763 842 l 68 842 l 68 1010 l 951 1010 q 1021 987 990 1010 q 1051 919 1051 964 q 1015 844 1051 881 l 344 168 l 1047 168 l 1047 0 l 156 0 m 478 1072 l 353 1258 l 449 1258 l 536 1121 l 547 1121 l 635 1258 l 732 1258 l 604 1072 l 478 1072 z "},"ž":{"ha":1114,"x_min":56,"x_max":1051,"o":"m 56 0 m 156 0 q 85 23 115 0 q 56 90 56 46 q 92 165 56 129 l 763 842 l 68 842 l 68 1010 l 951 1010 q 1021 987 990 1010 q 1051 919 1051 964 q 1015 844 1051 881 l 344 168 l 1047 168 l 1047 0 l 156 0 m 478 1072 l 353 1258 l 449 1258 l 536 1121 l 547 1121 l 635 1258 l 732 1258 l 604 1072 l 478 1072 z "},"Ș":{"ha":1222,"x_min":72,"x_max":1158,"o":"m 72 0 m 88 0 l 88 176 l 844 176 q 953 213 915 176 q 992 308 992 249 q 953 406 992 374 q 844 439 915 439 l 381 439 q 252 460 310 439 q 155 520 194 482 q 94 611 115 558 q 72 726 72 664 q 92 840 72 788 q 152 929 113 892 q 250 988 192 967 q 383 1010 308 1010 l 1108 1010 l 1108 833 l 383 833 q 289 801 322 833 q 256 710 256 768 q 290 619 256 651 q 382 588 324 588 l 844 588 q 1078 515 999 588 q 1158 296 1158 443 q 1139 178 1158 232 q 1081 84 1119 124 q 983 22 1042 44 q 844 0 924 0 l 88 0 m 518 -65 l 703 -65 l 610 -279 l 518 -65 z "},"ș":{"ha":1222,"x_min":72,"x_max":1158,"o":"m 72 0 m 88 0 l 88 176 l 844 176 q 953 213 915 176 q 992 308 992 249 q 953 406 992 374 q 844 439 915 439 l 381 439 q 252 460 310 439 q 155 520 194 482 q 94 611 115 558 q 72 726 72 664 q 92 840 72 788 q 152 929 113 892 q 250 988 192 967 q 383 1010 308 1010 l 1108 1010 l 1108 833 l 383 833 q 289 801 322 833 q 256 710 256 768 q 290 619 256 651 q 382 588 324 588 l 844 588 q 1078 515 999 588 q 1158 296 1158 443 q 1139 178 1158 232 q 1081 84 1119 124 q 983 22 1042 44 q 844 0 924 0 l 88 0 m 518 -65 l 703 -65 l 610 -279 l 518 -65 z "},"Ț":{"ha":1000,"x_min":28,"x_max":971,"o":"m 28 0 m 411 0 l 411 833 l 28 833 l 28 1010 l 971 1010 l 971 833 l 588 833 l 588 0 l 411 0 m 407 -65 l 592 -65 l 499 -279 l 407 -65 z "},"ț":{"ha":1000,"x_min":28,"x_max":971,"o":"m 28 0 m 411 0 l 411 833 l 28 833 l 28 1010 l 971 1010 l 971 833 l 588 833 l 588 0 l 411 0 m 407 -65 l 592 -65 l 499 -279 l 407 -65 z "},"ˆ":{"ha":526,"x_min":74,"x_max":453,"o":"m 356 1072 l 268 1207 l 257 1207 l 169 1072 l 74 1072 l 200 1258 l 326 1258 l 453 1072 l 356 1072 z "},"ˇ":{"ha":526,"x_min":74,"x_max":453,"o":"m 199 1072 l 74 1258 l 169 1258 l 257 1121 l 268 1121 l 356 1258 l 453 1258 l 325 1072 l 199 1072 z "},"˘":{"ha":531,"x_min":74,"x_max":457,"o":"m 228 1072 q 156 1092 185 1072 q 108 1142 126 1113 q 82 1203 90 1171 q 74 1258 74 1235 l 168 1258 q 173 1219 168 1240 q 188 1178 178 1197 q 213 1145 197 1158 q 251 1132 228 1132 l 285 1132 q 322 1145 307 1132 q 346 1178 338 1158 q 358 1219 354 1197 q 361 1258 361 1240 l 457 1258 q 449 1203 457 1235 q 424 1142 442 1171 q 376 1092 406 1113 q 304 1072 347 1072 l 228 1072 z "},"˙":{"ha":289,"x_min":74,"x_max":215,"o":"m 215 1178 q 195 1132 215 1149 q 144 1115 175 1115 q 94 1132 114 1115 q 74 1178 74 1149 q 94 1224 74 1207 q 144 1240 114 1240 q 195 1224 175 1240 q 215 1178 215 1207 z "},"˚":{"ha":503,"x_min":74,"x_max":429,"o":"m 215 1072 q 113 1113 153 1072 q 74 1215 74 1154 q 113 1316 74 1278 q 215 1354 153 1354 l 286 1354 q 389 1316 349 1354 q 429 1215 429 1278 q 389 1113 429 1154 q 286 1072 349 1072 l 215 1072 m 286 1124 q 351 1149 326 1124 q 376 1214 376 1175 q 351 1277 376 1253 q 286 1301 326 1301 l 215 1301 q 151 1277 176 1301 q 126 1214 126 1253 q 151 1149 126 1175 q 215 1124 175 1124 l 286 1124 z "},"˛":{"ha":325,"x_min":26,"x_max":289,"o":"m 171 -279 q 63 -251 99 -279 q 26 -176 26 -224 q 42 -121 26 -144 q 82 -82 58 -97 l 207 0 l 289 0 l 163 -85 q 139 -106 147 -96 q 131 -129 131 -115 q 175 -164 131 -164 l 289 -164 l 289 -279 l 171 -279 z "},"˜":{"ha":503,"x_min":74,"x_max":429,"o":"m 429 1143 q 338 1103 397 1103 q 293 1111 314 1103 q 251 1130 272 1119 q 209 1149 231 1140 q 164 1157 188 1157 q 111 1142 136 1157 q 74 1108 86 1128 l 74 1190 q 113 1221 89 1210 q 164 1232 136 1232 q 209 1223 188 1232 q 251 1203 231 1214 q 293 1185 272 1193 q 338 1176 314 1176 q 390 1192 365 1176 q 429 1226 415 1207 l 429 1143 z "},"˝":{"ha":554,"x_min":74,"x_max":481,"o":"m 294 1085 l 360 1258 l 481 1258 l 368 1085 l 294 1085 m 74 1085 l 139 1258 l 260 1258 l 146 1085 l 74 1085 z "},"̦":{"ha":304,"x_min":60,"x_max":244,"o":"m 60 -65 l 244 -65 l 151 -279 l 60 -65 z "},"Ẁ":{"ha":1761,"x_min":19,"x_max":1740,"o":"m 19 0 m 881 338 l 724 42 q 685 0 708 14 q 633 -14 661 -14 q 542 42 572 -14 l 19 1010 l 231 1010 l 639 233 l 792 508 l 529 1010 l 742 1010 l 1132 233 l 1543 1010 l 1740 1010 l 1218 42 q 1178 0 1203 14 q 1126 -14 1154 -14 q 1075 0 1099 -14 q 1036 42 1051 14 l 881 338 m 661 1149 l 661 1258 l 1017 1151 l 1017 1072 l 661 1149 z "},"ẁ":{"ha":1761,"x_min":19,"x_max":1740,"o":"m 19 0 m 881 338 l 724 42 q 685 0 708 14 q 633 -14 661 -14 q 542 42 572 -14 l 19 1010 l 231 1010 l 639 233 l 792 508 l 529 1010 l 742 1010 l 1132 233 l 1543 1010 l 1740 1010 l 1218 42 q 1178 0 1203 14 q 1126 -14 1154 -14 q 1075 0 1099 -14 q 1036 42 1051 14 l 881 338 m 661 1149 l 661 1258 l 1017 1151 l 1017 1072 l 661 1149 z "},"Ẃ":{"ha":1761,"x_min":19,"x_max":1740,"o":"m 19 0 m 881 338 l 724 42 q 685 0 708 14 q 633 -14 661 -14 q 542 42 572 -14 l 19 1010 l 231 1010 l 639 233 l 792 508 l 529 1010 l 742 1010 l 1132 233 l 1543 1010 l 1740 1010 l 1218 42 q 1178 0 1203 14 q 1126 -14 1154 -14 q 1075 0 1099 -14 q 1036 42 1051 14 l 881 338 m 744 1072 l 744 1151 l 1100 1258 l 1100 1149 l 744 1072 z "},"ẃ":{"ha":1761,"x_min":19,"x_max":1740,"o":"m 19 0 m 881 338 l 724 42 q 685 0 708 14 q 633 -14 661 -14 q 542 42 572 -14 l 19 1010 l 231 1010 l 639 233 l 792 508 l 529 1010 l 742 1010 l 1132 233 l 1543 1010 l 1740 1010 l 1218 42 q 1178 0 1203 14 q 1126 -14 1154 -14 q 1075 0 1099 -14 q 1036 42 1051 14 l 881 338 m 744 1072 l 744 1151 l 1100 1258 l 1100 1149 l 744 1072 z "},"Ẅ":{"ha":1761,"x_min":19,"x_max":1740,"o":"m 19 0 m 881 338 l 724 42 q 685 0 708 14 q 633 -14 661 -14 q 542 42 572 -14 l 19 1010 l 231 1010 l 639 233 l 792 508 l 529 1010 l 742 1010 l 1132 233 l 1543 1010 l 1740 1010 l 1218 42 q 1178 0 1203 14 q 1126 -14 1154 -14 q 1075 0 1099 -14 q 1036 42 1051 14 l 881 338 m 822 1178 q 802 1132 822 1149 q 753 1115 782 1115 q 701 1132 721 1115 q 681 1178 681 1149 q 701 1224 681 1207 q 753 1240 721 1240 q 802 1224 782 1240 q 822 1178 822 1207 m 1079 1178 q 1059 1132 1079 1149 q 1008 1115 1039 1115 q 958 1132 978 1115 q 938 1178 938 1149 q 958 1224 938 1207 q 1008 1240 978 1240 q 1059 1224 1039 1240 q 1079 1178 1079 1207 z "},"ẅ":{"ha":1761,"x_min":19,"x_max":1740,"o":"m 19 0 m 881 338 l 724 42 q 685 0 708 14 q 633 -14 661 -14 q 542 42 572 -14 l 19 1010 l 231 1010 l 639 233 l 792 508 l 529 1010 l 742 1010 l 1132 233 l 1543 1010 l 1740 1010 l 1218 42 q 1178 0 1203 14 q 1126 -14 1154 -14 q 1075 0 1099 -14 q 1036 42 1051 14 l 881 338 m 822 1178 q 802 1132 822 1149 q 753 1115 782 1115 q 701 1132 721 1115 q 681 1178 681 1149 q 701 1224 681 1207 q 753 1240 721 1240 q 802 1224 782 1240 q 822 1178 822 1207 m 1079 1178 q 1059 1132 1079 1149 q 1008 1115 1039 1115 q 958 1132 978 1115 q 938 1178 938 1149 q 958 1224 938 1207 q 1008 1240 978 1240 q 1059 1224 1039 1240 q 1079 1178 1079 1207 z "},"Ỳ":{"ha":1286,"x_min":18,"x_max":1268,"o":"m 18 0 m 554 0 l 554 383 l 18 1010 l 256 1010 l 649 544 l 1043 1010 l 1268 1010 l 731 383 l 731 0 l 554 0 m 428 1149 l 428 1258 l 783 1151 l 783 1072 l 428 1149 z "},"ỳ":{"ha":1286,"x_min":18,"x_max":1268,"o":"m 18 0 m 554 0 l 554 383 l 18 1010 l 256 1010 l 649 544 l 1043 1010 l 1268 1010 l 731 383 l 731 0 l 554 0 m 428 1149 l 428 1258 l 783 1151 l 783 1072 l 428 1149 z "},"–":{"ha":819,"x_min":40,"x_max":783,"o":"m 40 444 l 40 583 l 783 583 l 783 444 l 40 444 z "},"—":{"ha":1203,"x_min":40,"x_max":1165,"o":"m 40 444 l 40 583 l 1165 583 l 1165 444 l 40 444 z "},"‘":{"ha":360,"x_min":88,"x_max":272,"o":"m 157 649 l 88 1010 l 272 1010 l 272 649 l 157 649 z "},"’":{"ha":360,"x_min":94,"x_max":272,"o":"m 94 649 l 94 1010 l 272 1010 l 203 649 l 94 649 z "},"‚":{"ha":360,"x_min":94,"x_max":272,"o":"m 94 -164 l 94 197 l 272 197 l 203 -164 l 94 -164 z "},"“":{"ha":642,"x_min":88,"x_max":568,"o":"m 454 649 l 383 1010 l 568 1010 l 568 649 l 454 649 m 157 649 l 88 1010 l 272 1010 l 272 649 l 157 649 z "},"”":{"ha":642,"x_min":94,"x_max":568,"o":"m 94 649 l 94 1010 l 272 1010 l 203 649 l 94 649 m 390 649 l 390 1010 l 568 1010 l 499 649 l 390 649 z "},"„":{"ha":642,"x_min":94,"x_max":568,"o":"m 94 -164 l 94 197 l 272 197 l 203 -164 l 94 -164 m 390 -164 l 390 197 l 568 197 l 499 -164 l 390 -164 z "},"†":{"ha":647,"x_min":88,"x_max":560,"o":"m 285 0 l 285 710 l 88 710 l 88 789 l 285 789 l 285 1010 l 365 1010 l 365 789 l 560 789 l 560 710 l 365 710 l 365 0 l 285 0 z "},"‡":{"ha":647,"x_min":88,"x_max":560,"o":"m 285 0 l 285 219 l 88 219 l 88 299 l 285 299 l 285 710 l 88 710 l 88 790 l 285 790 l 285 1010 l 365 1010 l 365 790 l 560 790 l 560 710 l 365 710 l 365 299 l 560 299 l 560 219 l 365 219 l 365 0 l 285 0 z "},"•":{"ha":574,"x_min":88,"x_max":486,"o":"m 486 515 q 470 438 486 475 q 426 374 454 401 q 363 331 399 347 q 285 315 326 315 q 208 331 244 315 q 145 374 172 347 q 103 438 118 401 q 88 515 88 475 q 103 593 88 557 q 145 656 118 629 q 208 699 172 683 q 285 715 244 715 q 363 699 326 715 q 426 656 399 683 q 470 593 454 629 q 486 515 486 557 z "},"…":{"ha":1819,"x_min":88,"x_max":1732,"o":"m 88 0 m 276 83 q 249 16 276 43 q 181 -11 221 -11 q 114 16 140 -11 q 88 83 88 43 q 114 151 88 124 q 181 178 140 178 q 249 151 221 178 q 276 83 276 124 m 1004 83 q 976 16 1004 43 q 908 -11 949 -11 q 842 16 868 -11 q 815 83 815 43 q 842 151 815 124 q 908 178 868 178 q 976 151 949 178 q 1004 83 1004 124 m 1732 83 q 1704 16 1732 43 q 1636 -11 1676 -11 q 1569 16 1596 -11 q 1543 83 1543 43 q 1569 151 1543 124 q 1636 178 1596 178 q 1704 151 1676 178 q 1732 83 1732 124 z "},"‰":{"ha":1825,"x_min":58,"x_max":1767,"o":"m 58 0 m 319 514 q 216 535 264 514 q 133 591 168 556 q 78 675 99 626 q 58 778 58 724 q 78 880 58 833 q 133 960 99 926 q 216 1013 168 994 q 319 1032 264 1032 q 423 1013 375 1032 q 506 960 471 994 q 562 880 542 926 q 582 778 582 833 q 562 675 582 724 q 506 591 542 626 q 423 535 471 556 q 319 514 375 514 m 493 774 q 448 895 493 847 q 319 943 403 943 q 191 895 236 943 q 146 774 146 847 q 191 651 146 700 q 319 603 236 603 q 448 651 403 603 q 493 774 493 700 m 93 -93 l 1006 1071 l 1124 1071 l 214 -93 l 93 -93 m 908 -21 q 805 0 853 -21 q 722 56 757 21 q 667 140 688 92 q 647 243 647 189 q 667 345 647 299 q 722 426 688 392 q 805 478 757 460 q 908 497 853 497 q 1012 478 964 497 q 1095 426 1060 460 q 1151 345 1131 392 q 1171 243 1171 299 q 1151 140 1171 189 q 1095 56 1131 92 q 1012 0 1060 21 q 908 -21 964 -21 m 1082 239 q 1037 360 1082 313 q 908 408 992 408 q 780 360 825 408 q 735 239 735 313 q 780 117 735 165 q 908 68 825 68 q 1037 117 992 68 q 1082 239 1082 165 m 1504 -21 q 1401 0 1449 -21 q 1318 56 1353 21 q 1263 140 1283 92 q 1243 243 1243 189 q 1263 345 1243 299 q 1318 426 1283 392 q 1401 478 1353 460 q 1504 497 1449 497 q 1608 478 1560 497 q 1691 426 1656 460 q 1747 345 1726 392 q 1767 243 1767 299 q 1747 140 1767 189 q 1691 56 1726 92 q 1608 0 1656 21 q 1504 -21 1560 -21 m 1678 239 q 1633 360 1678 313 q 1504 408 1588 408 q 1376 360 1421 408 q 1331 239 1331 313 q 1376 117 1331 165 q 1504 68 1421 68 q 1633 117 1588 68 q 1678 239 1678 165 z "},"‹":{"ha":510,"x_min":58,"x_max":453,"o":"m 82 481 q 58 515 58 496 q 82 553 58 538 l 453 775 l 453 688 l 150 514 l 453 339 l 453 257 l 82 481 z "},"›":{"ha":511,"x_min":58,"x_max":454,"o":"m 58 257 l 58 339 l 361 514 l 58 688 l 58 775 l 431 553 q 454 515 454 539 q 431 481 454 494 l 58 257 z "},"⁄":{"ha":257,"x_min":-386,"x_max":644,"o":"m -386 -93 l 526 1071 l 644 1071 l -265 -93 l -386 -93 z "},"⁰":{"ha":624,"x_min":50,"x_max":574,"o":"m 50 514 m 311 514 q 208 535 256 514 q 125 591 160 556 q 70 675 90 626 q 50 778 50 724 q 70 880 50 833 q 125 960 90 926 q 208 1013 160 994 q 311 1032 256 1032 q 415 1013 367 1032 q 498 960 463 994 q 553 880 533 926 q 574 778 574 833 q 553 675 574 724 q 498 591 533 626 q 415 535 463 556 q 311 514 367 514 m 485 774 q 440 895 485 847 q 311 943 394 943 q 183 895 228 943 q 138 774 138 847 q 183 651 138 700 q 311 603 228 603 q 440 651 394 603 q 485 774 485 700 z "},"⁴":{"ha":628,"x_min":54,"x_max":590,"o":"m 54 521 m 429 521 l 429 656 l 219 656 q 97 694 140 656 q 54 817 54 733 l 54 1025 l 142 1025 l 142 818 q 160 757 142 774 q 219 740 179 740 l 429 740 l 429 1025 l 517 1025 l 517 740 l 590 740 l 590 656 l 517 656 l 517 521 l 429 521 z "},"⁵":{"ha":656,"x_min":64,"x_max":599,"o":"m 64 521 m 64 521 l 64 608 l 443 608 q 497 626 479 608 q 515 675 515 644 q 443 740 515 740 l 64 740 l 64 1025 l 575 1025 l 575 938 l 156 938 l 156 814 l 443 814 q 599 668 599 814 q 560 563 599 604 q 443 521 522 521 l 64 521 z "},"⁶":{"ha":647,"x_min":50,"x_max":589,"o":"m 50 521 m 279 521 q 110 584 171 521 q 50 778 50 647 q 111 966 50 907 q 279 1025 172 1025 l 568 1025 l 568 938 l 279 938 q 183 908 218 938 q 140 815 149 879 l 436 815 q 549 781 508 815 q 589 674 589 747 q 548 560 589 600 q 436 521 507 521 l 279 521 m 139 740 q 181 640 146 671 q 279 608 217 608 l 428 608 q 504 678 504 608 q 428 740 504 740 l 139 740 z "},"⁷":{"ha":567,"x_min":51,"x_max":531,"o":"m 51 521 m 56 521 l 400 938 l 51 938 l 51 1025 l 475 1025 q 518 1013 506 1025 q 531 983 531 1001 q 528 964 531 974 q 514 942 525 954 l 169 521 l 56 521 z "},"⁸":{"ha":665,"x_min":56,"x_max":608,"o":"m 56 521 m 218 521 q 99 562 143 521 q 56 674 56 603 q 78 747 56 718 q 135 788 100 776 q 86 821 107 796 q 65 894 65 846 q 110 992 65 960 q 228 1025 154 1025 l 436 1025 q 556 992 511 1025 q 600 894 600 960 q 578 821 600 846 q 529 788 557 796 q 586 747 564 776 q 608 674 608 718 q 565 562 608 603 q 446 521 521 521 l 218 521 m 222 740 q 144 675 144 740 q 172 625 144 642 q 240 608 199 608 l 425 608 q 493 625 467 608 q 519 675 519 642 q 443 740 519 740 l 222 740 m 244 938 q 178 924 201 938 q 154 875 154 911 q 228 814 154 814 l 436 814 q 510 875 510 814 q 487 924 510 911 q 419 938 464 938 l 244 938 z "},"⁹":{"ha":639,"x_min":50,"x_max":589,"o":"m 50 521 m 107 521 l 107 608 l 360 608 q 452 635 418 608 q 497 719 486 661 l 196 719 q 88 754 126 719 q 50 868 50 789 q 89 980 50 935 q 196 1025 128 1025 l 360 1025 q 528 962 467 1025 q 589 768 589 899 q 527 580 589 639 q 360 521 465 521 l 107 521 m 139 863 q 158 810 139 826 q 210 793 176 793 l 500 793 q 460 902 496 868 q 360 936 425 936 l 210 936 q 158 917 178 936 q 139 863 139 899 z "},"₀":{"ha":624,"x_min":50,"x_max":574,"o":"m 311 -21 q 208 0 256 -21 q 125 56 160 21 q 70 140 90 92 q 50 243 50 189 q 70 345 50 299 q 125 426 90 392 q 208 478 160 460 q 311 497 256 497 q 415 478 367 497 q 498 426 463 460 q 553 345 533 392 q 574 243 574 299 q 553 140 574 189 q 498 56 533 92 q 415 0 463 21 q 311 -21 367 -21 m 485 239 q 440 360 485 313 q 311 408 394 408 q 183 360 228 408 q 138 239 138 313 q 183 117 138 165 q 311 68 228 68 q 440 117 394 68 q 485 239 485 165 z "},"₁":{"ha":308,"x_min":38,"x_max":244,"o":"m 157 -14 l 157 325 q 86 403 157 403 l 38 403 l 38 490 l 86 490 q 203 447 163 490 q 244 325 244 404 l 244 -14 l 157 -14 z "},"₂":{"ha":614,"x_min":64,"x_max":557,"o":"m 64 -14 l 64 133 q 219 279 64 279 l 403 279 q 449 296 431 279 q 467 340 467 313 q 449 386 467 369 q 403 403 432 403 l 68 403 l 68 490 l 403 490 q 517 451 478 490 q 557 349 557 411 q 516 246 557 286 q 403 206 475 206 l 219 206 q 147 140 147 206 l 147 74 l 549 74 l 549 -14 l 64 -14 z "},"₃":{"ha":615,"x_min":53,"x_max":561,"o":"m 53 -14 l 53 74 l 376 74 q 444 91 418 74 q 471 140 471 108 q 394 206 471 206 l 172 206 l 172 279 l 389 279 q 463 340 463 279 q 439 390 463 376 q 371 403 415 403 l 54 403 l 54 490 l 389 490 q 507 458 463 490 q 551 360 551 425 q 531 286 551 311 q 482 253 510 261 q 539 213 517 242 q 561 139 561 183 q 517 28 561 69 q 399 -14 474 -14 l 53 -14 z "},"₄":{"ha":628,"x_min":54,"x_max":590,"o":"m 429 -14 l 429 121 l 219 121 q 97 160 140 121 q 54 282 54 199 l 54 490 l 142 490 l 142 283 q 160 222 142 239 q 219 206 179 206 l 429 206 l 429 490 l 517 490 l 517 206 l 590 206 l 590 121 l 517 121 l 517 -14 l 429 -14 z "},"₅":{"ha":656,"x_min":64,"x_max":599,"o":"m 64 -14 l 64 74 l 443 74 q 497 92 479 74 q 515 140 515 110 q 443 206 515 206 l 64 206 l 64 490 l 575 490 l 575 403 l 156 403 l 156 279 l 443 279 q 599 133 599 279 q 560 28 599 69 q 443 -14 522 -14 l 64 -14 z "},"₆":{"ha":647,"x_min":50,"x_max":589,"o":"m 279 -14 q 110 49 171 -14 q 50 243 50 113 q 111 431 50 372 q 279 490 172 490 l 568 490 l 568 403 l 279 403 q 183 374 218 403 q 140 281 149 344 l 436 281 q 549 247 508 281 q 589 139 589 213 q 548 26 589 65 q 436 -14 507 -14 l 279 -14 m 139 206 q 181 105 146 136 q 279 74 217 74 l 428 74 q 504 143 504 74 q 428 206 504 206 l 139 206 z "},"₇":{"ha":567,"x_min":51,"x_max":531,"o":"m 56 -14 l 400 403 l 51 403 l 51 490 l 475 490 q 518 478 506 490 q 531 449 531 467 q 528 429 531 439 q 514 407 525 419 l 169 -14 l 56 -14 z "},"₈":{"ha":665,"x_min":56,"x_max":608,"o":"m 218 -14 q 99 27 143 -14 q 56 139 56 68 q 78 213 56 183 q 135 253 100 242 q 86 286 107 261 q 65 360 65 311 q 110 458 65 425 q 228 490 154 490 l 436 490 q 556 458 511 490 q 600 360 600 425 q 578 286 600 311 q 529 253 557 261 q 586 213 564 242 q 608 139 608 183 q 565 27 608 68 q 446 -14 521 -14 l 218 -14 m 222 206 q 144 140 144 206 q 172 90 144 107 q 240 74 199 74 l 425 74 q 493 90 467 74 q 519 140 519 107 q 443 206 519 206 l 222 206 m 244 403 q 178 390 201 403 q 154 340 154 376 q 228 279 154 279 l 436 279 q 510 340 510 279 q 487 390 510 376 q 419 403 464 403 l 244 403 z "},"₉":{"ha":639,"x_min":50,"x_max":589,"o":"m 107 -14 l 107 74 l 360 74 q 452 100 418 74 q 497 185 486 126 l 196 185 q 88 219 126 185 q 50 333 50 254 q 89 445 50 400 q 196 490 128 490 l 360 490 q 528 427 467 490 q 589 233 589 364 q 527 45 589 104 q 360 -14 465 -14 l 107 -14 m 139 328 q 158 275 139 292 q 210 258 176 258 l 500 258 q 460 367 496 333 q 360 401 425 401 l 210 401 q 158 383 178 401 q 139 328 139 364 z "},"€":{"ha":1228,"x_min":42,"x_max":1183,"o":"m 635 0 q 467 28 546 0 q 327 106 389 56 q 222 227 265 157 q 158 381 178 297 l 42 381 l 60 444 l 147 444 q 143 515 143 478 q 144 544 143 529 q 146 572 144 558 l 42 572 l 60 638 l 156 638 q 217 791 174 722 q 324 908 261 860 q 465 983 386 957 q 635 1010 544 1010 l 1183 1010 l 1068 833 l 635 833 q 458 781 533 833 q 351 638 383 728 l 947 638 l 904 572 l 326 572 q 322 540 324 557 q 321 507 321 524 q 325 444 321 475 l 824 444 l 782 381 l 349 381 q 456 233 381 289 q 635 176 531 176 l 1104 176 l 1104 0 l 635 0 z "},"℗":{"ha":1151,"x_min":58,"x_max":1093,"o":"m 576 -14 q 375 27 469 -14 q 210 139 281 68 q 99 304 140 210 q 58 506 58 399 q 99 707 58 613 q 210 872 140 801 q 375 982 281 942 q 576 1022 469 1022 q 778 982 683 1022 q 942 872 872 942 q 1053 707 1013 801 q 1093 506 1093 613 q 1053 304 1093 399 q 942 139 1013 210 q 778 27 872 68 q 576 -14 683 -14 m 579 33 q 761 70 676 33 q 910 171 846 107 q 1010 321 974 235 q 1047 504 1047 407 q 1010 688 1047 601 q 910 838 974 774 q 761 940 846 903 q 579 976 676 976 q 394 940 481 976 q 244 838 308 903 q 144 688 181 774 q 108 504 108 601 q 144 321 108 407 q 244 171 181 235 q 394 70 308 107 q 579 33 481 33 m 489 422 l 489 469 l 682 469 q 760 497 732 469 q 789 569 789 525 q 760 642 789 615 q 682 668 732 668 l 417 668 l 417 297 l 365 297 l 365 721 l 682 721 q 799 681 757 721 q 840 572 840 640 q 799 464 840 506 q 682 422 757 422 l 489 422 z "},"™":{"ha":744,"x_min":63,"x_max":657,"o":"m 597 667 l 597 858 l 533 667 l 486 667 l 419 858 l 419 667 l 360 667 l 360 1010 l 417 1010 l 508 765 l 601 1010 l 657 1010 l 657 667 l 597 667 m 158 667 l 158 950 l 63 950 l 63 1010 l 314 1010 l 314 950 l 219 950 l 219 667 l 158 667 z "},"⅓":{"ha":1321,"x_min":58,"x_max":1263,"o":"m 58 0 m 293 521 l 293 860 q 222 938 293 938 l 174 938 l 174 1025 l 222 1025 q 340 982 299 1025 q 381 860 381 939 l 381 521 l 293 521 m 58 -93 l 971 1071 l 1089 1071 l 179 -93 l 58 -93 m 754 -14 l 754 74 l 1078 74 q 1146 91 1119 74 q 1172 140 1172 108 q 1096 206 1172 206 l 874 206 l 874 279 l 1090 279 q 1164 340 1164 279 q 1140 390 1164 376 q 1072 403 1117 403 l 756 403 l 756 490 l 1090 490 q 1208 458 1164 490 q 1253 360 1253 425 q 1232 286 1253 311 q 1183 253 1211 261 q 1240 213 1218 242 q 1263 139 1263 183 q 1219 28 1263 69 q 1100 -14 1175 -14 l 754 -14 z "},"⅔":{"ha":1360,"x_min":60,"x_max":1301,"o":"m 60 0 m 60 521 l 60 668 q 215 814 60 814 l 399 814 q 444 831 426 814 q 463 875 463 847 q 445 921 463 904 q 399 938 428 938 l 64 938 l 64 1025 l 399 1025 q 513 985 474 1025 q 553 883 553 946 q 512 781 553 821 q 399 740 471 740 l 215 740 q 143 675 143 740 l 143 608 l 544 608 l 544 521 l 60 521 m 139 -93 l 1051 1071 l 1169 1071 l 260 -93 l 139 -93 m 793 -14 l 793 74 l 1117 74 q 1185 91 1158 74 q 1211 140 1211 108 q 1135 206 1211 206 l 913 206 l 913 279 l 1129 279 q 1203 340 1203 279 q 1179 390 1203 376 q 1111 403 1156 403 l 794 403 l 794 490 l 1129 490 q 1247 458 1203 490 q 1292 360 1292 425 q 1271 286 1292 311 q 1222 253 1250 261 q 1279 213 1257 242 q 1301 139 1301 183 q 1258 28 1301 69 q 1139 -14 1214 -14 l 793 -14 z "},"⅛":{"ha":1368,"x_min":58,"x_max":1310,"o":"m 58 0 m 293 521 l 293 860 q 222 938 293 938 l 174 938 l 174 1025 l 222 1025 q 340 982 299 1025 q 381 860 381 939 l 381 521 l 293 521 m 58 -93 l 971 1071 l 1089 1071 l 179 -93 l 58 -93 m 919 -14 q 801 27 844 -14 q 757 139 757 68 q 779 213 757 183 q 836 253 801 242 q 788 286 808 261 q 767 360 767 311 q 811 458 767 425 q 929 490 856 490 l 1138 490 q 1257 458 1213 490 q 1301 360 1301 425 q 1280 286 1301 311 q 1231 253 1258 261 q 1288 213 1265 242 q 1310 139 1310 183 q 1266 27 1310 68 q 1147 -14 1222 -14 l 919 -14 m 924 206 q 846 140 846 206 q 873 90 846 107 q 942 74 900 74 l 1126 74 q 1194 90 1168 74 q 1221 140 1221 107 q 1144 206 1221 206 l 924 206 m 946 403 q 879 390 903 403 q 856 340 856 376 q 929 279 856 279 l 1138 279 q 1211 340 1211 279 q 1188 390 1211 376 q 1121 403 1165 403 l 946 403 z "},"⅜":{"ha":1350,"x_min":58,"x_max":1292,"o":"m 58 0 m 58 521 l 58 608 l 382 608 q 450 626 424 608 q 476 675 476 643 q 400 740 476 740 l 178 740 l 178 814 l 394 814 q 468 875 468 814 q 444 924 468 911 q 376 938 421 938 l 60 938 l 60 1025 l 394 1025 q 513 992 468 1025 q 557 894 557 960 q 536 821 557 846 q 488 788 515 796 q 544 747 522 776 q 567 674 567 718 q 523 563 567 604 q 404 521 479 521 l 58 521 m 124 -93 l 1036 1071 l 1154 1071 l 244 -93 l 124 -93 m 901 -14 q 783 27 826 -14 q 739 139 739 68 q 761 213 739 183 q 818 253 783 242 q 769 286 790 261 q 749 360 749 311 q 793 458 749 425 q 911 490 838 490 l 1119 490 q 1239 458 1194 490 q 1283 360 1283 425 q 1262 286 1283 311 q 1213 253 1240 261 q 1269 213 1247 242 q 1292 139 1292 183 q 1248 27 1292 68 q 1129 -14 1204 -14 l 901 -14 m 906 206 q 828 140 828 206 q 855 90 828 107 q 924 74 882 74 l 1108 74 q 1176 90 1150 74 q 1203 140 1203 107 q 1126 206 1203 206 l 906 206 m 928 403 q 861 390 885 403 q 838 340 838 376 q 911 279 838 279 l 1119 279 q 1193 340 1193 279 q 1170 390 1193 376 q 1103 403 1147 403 l 928 403 z "},"⅝":{"ha":1351,"x_min":60,"x_max":1293,"o":"m 60 0 m 60 521 l 60 608 l 439 608 q 493 626 475 608 q 511 675 511 644 q 439 740 511 740 l 60 740 l 60 1025 l 571 1025 l 571 938 l 151 938 l 151 814 l 439 814 q 594 668 594 814 q 556 563 594 604 q 439 521 518 521 l 60 521 m 139 -93 l 1051 1071 l 1169 1071 l 260 -93 l 139 -93 m 903 -14 q 784 27 828 -14 q 740 139 740 68 q 763 213 740 183 q 819 253 785 242 q 771 286 792 261 q 750 360 750 311 q 794 458 750 425 q 913 490 839 490 l 1121 490 q 1240 458 1196 490 q 1285 360 1285 425 q 1263 286 1285 311 q 1214 253 1242 261 q 1271 213 1249 242 q 1293 139 1293 183 q 1249 27 1293 68 q 1131 -14 1206 -14 l 903 -14 m 907 206 q 829 140 829 206 q 856 90 829 107 q 925 74 883 74 l 1110 74 q 1178 90 1151 74 q 1204 140 1204 107 q 1128 206 1204 206 l 907 206 m 929 403 q 863 390 886 403 q 839 340 839 376 q 913 279 839 279 l 1121 279 q 1194 340 1194 279 q 1172 390 1194 376 q 1104 403 1149 403 l 929 403 z "},"⅞":{"ha":1340,"x_min":58,"x_max":1282,"o":"m 58 0 m 118 521 l 463 938 l 114 938 l 114 1025 l 538 1025 q 581 1013 568 1025 q 593 983 593 1001 q 590 964 593 974 q 576 942 588 954 l 232 521 l 118 521 m 58 -93 l 971 1071 l 1089 1071 l 179 -93 l 58 -93 m 892 -14 q 773 27 817 -14 q 729 139 729 68 q 751 213 729 183 q 808 253 774 242 q 760 286 781 261 q 739 360 739 311 q 783 458 739 425 q 901 490 828 490 l 1110 490 q 1229 458 1185 490 q 1274 360 1274 425 q 1252 286 1274 311 q 1203 253 1231 261 q 1260 213 1238 242 q 1282 139 1282 183 q 1238 27 1282 68 q 1119 -14 1194 -14 l 892 -14 m 896 206 q 818 140 818 206 q 845 90 818 107 q 914 74 872 74 l 1099 74 q 1167 90 1140 74 q 1193 140 1193 107 q 1117 206 1193 206 l 896 206 m 918 403 q 851 390 875 403 q 828 340 828 376 q 901 279 828 279 l 1110 279 q 1183 340 1183 279 q 1160 390 1183 376 q 1093 403 1138 403 l 918 403 z "},"−":{"ha":958,"x_min":88,"x_max":871,"o":"m 88 456 l 88 572 l 871 572 l 871 456 l 88 456 z "},"≈":{"ha":960,"x_min":89,"x_max":872,"o":"m 89 244 m 872 315 q 780 261 832 278 q 671 244 728 244 q 574 259 621 244 q 481 292 528 274 q 388 324 435 310 q 289 339 340 339 q 177 315 232 339 q 89 256 122 292 l 89 383 q 178 438 126 419 q 289 457 229 457 q 386 442 339 457 q 479 410 433 428 q 572 377 525 392 q 671 363 619 363 q 786 388 731 363 q 872 444 842 414 l 872 315 m 872 647 q 780 593 832 610 q 671 576 728 576 q 574 591 621 576 q 481 624 528 606 q 388 656 435 642 q 289 671 340 671 q 177 647 232 671 q 89 588 122 624 l 89 715 q 178 770 126 751 q 289 789 229 789 q 386 774 339 789 q 479 742 433 760 q 572 709 525 724 q 671 694 619 694 q 786 720 731 694 q 872 776 842 746 l 872 647 z "},"≠":{"ha":958,"x_min":-36,"x_max":994,"o":"m -36 -93 l 246 267 l 88 267 l 88 383 l 338 383 l 540 642 l 88 642 l 88 758 l 632 758 l 876 1071 l 994 1071 l 750 758 l 871 758 l 871 642 l 658 642 l 457 383 l 871 383 l 871 267 l 365 267 l 85 -93 l -36 -93 z "},"≤":{"ha":958,"x_min":88,"x_max":871,"o":"m 135 449 q 100 474 113 458 q 88 514 88 490 q 100 551 88 533 q 135 579 113 569 l 871 888 l 871 761 l 238 514 l 871 264 l 871 139 l 135 449 m 88 -72 l 88 44 l 871 44 l 871 -72 l 88 -72 z "},"≥":{"ha":958,"x_min":88,"x_max":871,"o":"m 88 139 l 88 264 l 721 514 l 88 761 l 88 888 l 824 579 q 858 551 846 569 q 871 514 871 533 q 858 474 871 490 q 824 449 846 458 l 88 139 m 88 -72 l 88 44 l 871 44 l 871 -72 l 88 -72 z "}}}
